<?xml version="1.0" encoding="UTF-8" standalone="no"?>
<svg
   xmlns:dc="http://purl.org/dc/elements/1.1/"
   xmlns:cc="http://creativecommons.org/ns#"
   xmlns:rdf="http://www.w3.org/1999/02/22-rdf-syntax-ns#"
   xmlns:svg="http://www.w3.org/2000/svg"
   xmlns="http://www.w3.org/2000/svg"
   id="svg8"
   version="1.1"
   viewBox="0 0 93.750969 20.659338"
   height="20.659338mm"
   width="93.750969mm">
  <defs
     id="defs2" />
  <metadata
     id="metadata5">
    <rdf:RDF>
      <cc:Work
         rdf:about="">
        <dc:format>image/svg+xml</dc:format>
        <dc:type
           rdf:resource="http://purl.org/dc/dcmitype/StillImage" />
        <dc:title></dc:title>
      </cc:Work>
    </rdf:RDF>
  </metadata>
  <g
     transform="translate(-44.944093,-112.85835)"
     id="layer1">
    <path
       id="path4550"
       d="m 45.125973,133.34676 c -0.1,-0.1 -0.18182,-0.75134 -0.18182,-1.44743 v -1.26562 l 1.52136,-0.0794 1.52135,-0.0793 0.0703,-7.34219 0.0703,-7.34218 h -1.59168 -1.59169 v -1.45521 -1.45521 l 6.41615,-0.0162 c 3.52888,-0.009 16.2388,-0.007 28.24427,0.004 12.00547,0.011 28.409197,0.0183 36.452737,0.0162 l 14.62462,-0.004 -0.0725,1.38906 -0.0725,1.38907 -38.968837,0.067 -38.96884,0.067 0.0751,2.84339 c 0.0711,2.69215 0.10574,2.84776 0.6513,2.92544 0.45946,0.0654 0.59347,-0.0686 0.66145,-0.66146 0.0768,-0.66951 0.19716,-0.75159 1.20974,-0.82486 l 1.12448,-0.0814 v 2.79334 2.79334 h -0.92604 c -0.50933,0 -1.01534,0.0298 -1.12448,0.0661 -0.10914,0.0364 -0.23681,-0.26843 -0.2837,-0.67736 -0.068,-0.59287 -0.20199,-0.72688 -0.66145,-0.66146 -0.55373,0.0788 -0.57621,0.20075 -0.57621,3.12475 v 3.04271 l 1.53471,0.0797 1.53471,0.0797 -0.0795,1.37546 -0.0795,1.37546 -5.17599,0.0716 c -2.8468,0.0394 -5.25782,-0.0102 -5.35782,-0.11024 z m 14.44162,-0.22131 c -0.47007,-0.20435 -1.09471,-0.76524 -1.38807,-1.24641 -0.48916,-0.80231 -0.53347,-1.32717 -0.53438,-6.32928 -9.4e-4,-5.19539 0.0263,-5.48906 0.5726,-6.18363 0.9607,-1.22133 1.94418,-1.45883 6.041,-1.45883 5.95426,0 6.35,0.36223 6.35,5.81234 v 3.1835 h -4.24447 -4.24446 l 0.0773,2.05052 0.0773,2.05052 1.45521,0.15751 c 2.03623,0.22039 2.38125,-0.0146 2.38125,-1.62203 v -1.31361 h 2.24896 2.24896 v 1.33606 c 0,1.79641 -0.57875,2.82532 -1.93578,3.44142 -0.91441,0.41516 -1.72818,0.50178 -4.67881,0.49802 -2.47583,-0.003 -3.83414,-0.11856 -4.42656,-0.3761 z m 6.54323,-10.16942 c 0,-2.86442 -0.0398,-2.93206 -1.72646,-2.93206 -2.24906,0 -2.24229,-0.008 -2.24229,2.67414 v 2.35294 h 1.98438 1.98437 z m 6.08542,9.01088 c 0,-1.51153 0.0167,-1.54761 0.66145,-1.42436 l 0.66146,0.12644 v -5.05793 -5.05792 h -0.66146 c -0.61736,0 -0.66145,-0.0882 -0.66145,-1.32292 v -1.32292 h 2.91041 2.91042 v 0.92605 c 0,0.50932 0.056,0.92604 0.12455,0.92604 0.0685,0 0.63406,-0.3569 1.25678,-0.79312 1.3266,-0.92927 3.25443,-1.28525 4.39712,-0.81194 1.25215,0.51866 1.49759,1.31922 1.49759,4.88471 v 3.20264 l -2.30605,0.0763 -2.30605,0.0763 -0.0752,-2.85444 -0.0752,-2.85444 -1.26441,1.2296 -1.26442,1.2296 0.0738,3.66519 c 0.072,3.57388 0.0886,3.6673 0.6691,3.74974 0.5339,0.0758 0.59532,0.23277 0.59532,1.52135 v 1.43681 h -3.57188 -3.57187 z m 14.55208,-0.0192 c 0,-1.53024 0.0168,-1.56694 0.66146,-1.45003 l 0.66146,0.11994 v -5.03225 -5.03226 h -0.66146 c -0.61736,0 -0.66146,-0.0882 -0.66146,-1.32292 v -1.32292 h 2.91042 2.91041 v 0.92605 c 0,0.50932 0.056,0.92604 0.12456,0.92604 0.0685,0 0.64002,-0.36334 1.27003,-0.80741 0.80925,-0.57041 1.57134,-0.85136 2.59631,-0.95715 1.30511,-0.1347 1.53628,-0.0778 2.30184,0.56635 l 0.85101,0.71608 v 3.54836 3.54835 h -2.24896 -2.24895 v -2.63022 c 0,-1.44662 -0.10528,-2.69528 -0.23395,-2.7748 -0.12867,-0.0795 -0.72734,0.39068 -1.33037,1.04489 l -1.09642,1.18948 0.0736,3.63584 c 0.0717,3.54352 0.0887,3.638 0.66891,3.7204 0.5339,0.0758 0.59531,0.23277 0.59531,1.52135 v 1.43681 h -3.57187 -3.57188 z m 16.225697,1.18392 c -1.32025,-0.57428 -1.75598,-1.49243 -1.88626,-3.97467 -0.12081,-2.30162 0.19496,-3.80598 0.92681,-4.4155 0.27404,-0.22823 1.50124,-0.39838 3.4922,-0.48419 l 3.06967,-0.13229 0.0818,-1.44107 c 0.13268,-2.33809 -0.0315,-2.65997 -1.35682,-2.65997 -1.42454,0 -1.76767,0.3441 -1.76767,1.77271 v 1.13771 h -2.24895 -2.24896 v -1.19913 c 0,-1.79944 0.59498,-2.97816 1.74607,-3.45911 0.76159,-0.31822 1.81958,-0.38758 4.89904,-0.32121 3.88999,0.0838 3.93471,0.0917 4.66056,0.8179 l 0.73287,0.73324 0.0901,5.44935 c 0.0843,5.0999 0.1225,5.45783 0.59531,5.58148 0.4183,0.10938 0.50521,0.37714 0.50521,1.55646 v 1.42435 l -5.22552,-0.0103 c -3.84337,-0.008 -5.44768,-0.107 -6.06544,-0.37571 z m 5.67815,-4.57488 -0.0757,-2.57968 -1.14403,-0.0823 c -1.6529,-0.11893 -1.89868,0.20137 -1.89868,2.47432 0,2.69143 0.0482,2.76737 1.75768,2.76737 h 1.43649 z m 7.20031,3.40791 c 0,-1.44356 0.042,-1.5508 0.59532,-1.52136 0.59491,0.0317 0.59536,0.0284 0.66729,-4.92926 l 0.072,-4.96093 h -0.6673 c -0.62437,0 -0.6673,-0.0851 -0.6673,-1.32292 v -1.32292 h 2.91042 2.91042 v 0.91512 0.91511 l 1.33188,-0.82794 c 0.92837,-0.57711 1.76657,-0.86399 2.76666,-0.94693 1.32112,-0.10956 1.49858,-0.0552 2.24,0.68623 l 0.80521,0.80521 v 3.45993 3.45994 h -2.24896 -2.24896 v -2.63022 c 0,-1.57217 -0.11315,-2.70015 -0.28128,-2.80406 -0.15471,-0.0956 -0.75002,0.33389 -1.32292,0.95445 l -1.04163,1.1283 v 3.79243 3.79243 h 0.66146 c 0.62538,0 0.66145,0.0794 0.66145,1.45521 v 1.45521 h -3.57187 -3.57188 z m 15.34584,0.0978 c 0,-1.48382 0.1184,-1.62278 1.25677,-1.47496 0.25451,0.0331 0.33073,-1.11827 0.33073,-4.99573 v -5.03868 h -0.79375 c -0.77611,0 -0.79375,-0.0294 -0.79375,-1.32292 v -1.32292 h 3.70416 3.70417 v 1.32292 c 0,1.23781 -0.0429,1.32292 -0.6673,1.32292 h -0.66729 l 0.072,4.96093 c 0.0714,4.91842 0.0771,4.96167 0.6673,5.04549 0.5339,0.0758 0.59531,0.23277 0.59531,1.52135 v 1.43681 h -3.70417 -3.70416 z m 1.05833,-16.73531 c -2.04177,-1.01997 -0.48425,-2.44583 2.6725,-2.44657 0.96055,-2.2e-4 2.12392,0.13118 2.58527,0.292 1.59473,0.55593 1.56971,1.74043 -0.0495,2.34151 -1.19955,0.4453 -4.15505,0.33922 -5.2083,-0.18694 z"
       style="fill:#000000;stroke-width:0.26458332" />
  </g>
</svg>
