<svg width="32" height="32" viewBox="0 0 32 32" fill="none" xmlns="http://www.w3.org/2000/svg">
<path fill-rule="evenodd" clip-rule="evenodd" d="M28.1114 11.5897C27.0472 12.6446 25.617 13.2598 24.1104 13.3088C22.5817 13.3586 21.0926 12.8215 19.9541 11.8097C18.8156 10.7979 18.1157 9.38965 18.0005 7.879C17.8874 6.39555 18.3468 4.92597 19.284 3.7661C19.7853 3.16328 20.4061 2.66094 21.1106 2.29432C20.2725 2.10178 19.3993 2 18.5021 2C12.152 2 7.00427 7.09853 7.00427 13.3879C7.00427 14.7731 7.25399 16.1006 7.71128 17.3285C8.25514 16.9409 8.86194 16.6344 9.51361 16.427C9.18334 15.473 9.00427 14.4504 9.00427 13.3879C9.00427 8.8319 12.2966 5.01112 16.684 4.17153C16.1328 5.36909 15.8889 6.69493 15.9906 8.02914C16.1449 10.0531 17.0826 11.9399 18.608 13.2955C20.1334 14.6511 22.1285 15.3707 24.1768 15.3041C25.523 15.2603 26.8238 14.8791 27.9639 14.2107C27.5999 18.3461 24.518 21.7314 20.4721 22.5739C20.8951 23.1027 21.1847 23.7408 21.2905 24.4386C26.2932 23.2043 30 18.7249 30 13.3879C30 12.0922 29.7815 10.8471 29.379 9.68667C29.0846 10.4023 28.651 11.0476 28.1114 11.5897Z" fill="#4A90E2"/>
<path fill-rule="evenodd" clip-rule="evenodd" d="M9.50252 27.9909L9.52319 27.9909V27.9914H12.9899C12.9903 27.9919 12.9906 27.9923 12.9909 27.9927H12.998C12.9977 27.9923 12.9974 27.9919 12.9971 27.9914H16.7739C16.7797 27.9919 16.7855 27.9923 16.7913 27.9927H17.0024V28.0002C17.0032 28.0002 17.0041 28.0002 17.005 28.0002C18.6629 28.0002 20.0066 26.6563 20.0066 24.999C20.0066 23.3416 18.6629 21.9978 17.005 21.9978C16.2367 21.9978 15.5358 22.2864 15.0049 22.761C15.0073 22.6945 15.0086 22.6277 15.0086 22.5606C15.0086 21.8914 14.8868 21.2504 14.664 20.6581L14.6585 20.661C13.8805 18.6057 11.8759 17.1294 9.50252 17.1294C6.4454 17.1294 4 19.5789 4 22.5602C4 25.5414 6.4454 27.9909 9.50252 27.9909ZM16.7289 29.9927C16.8203 29.9977 16.9123 30.0002 17.005 30.0002C19.7673 30.0002 22.0066 27.7611 22.0066 24.999C22.0066 22.2369 19.7673 19.9978 17.005 19.9978C16.8531 19.9978 16.7028 20.0045 16.5544 20.0178C15.5061 17.1659 12.7444 15.1294 9.50252 15.1294C5.35899 15.1294 2 18.4563 2 22.5602C2 26.6641 5.35899 29.9909 9.50252 29.9909C9.50461 29.9909 9.5067 29.9909 9.50879 29.9909V29.9927L16.7289 29.9927Z" fill="#B0BEC5"/>
</svg>
