<svg width="219" height="34" viewBox="0 0 219 34" fill="none" xmlns="http://www.w3.org/2000/svg">
<path d="M80.27 28.7727H80.6229L80.7411 28.4401L82.9646 22.1818H91.6779L93.9013 28.4401L94.0195 28.7727H94.3725H97.3294H98.0459L97.7988 28.1003L89.2463 4.82753L89.1259 4.5H88.777H85.8655H85.5165L85.3962 4.82753L76.8437 28.1003L76.5966 28.7727H77.313H80.27ZM87.3212 9.91924L90.4344 18.6818H84.208L87.3212 9.91924Z" fill="#272F28" stroke="black"/>
<path d="M66.4057 10.8183V10.3183H65.9057H62.6753V6.63647V6.13647H62.1753H59.4913H58.9913V6.63647V10.3183H56.8528H56.3528V10.8183V13.091V13.591H56.8528H58.9913V24.0001C58.9913 25.093 59.2451 26.0413 59.7878 26.811L59.79 26.814C60.3169 27.5494 60.9839 28.1037 61.7873 28.467L61.7891 28.4678C62.5779 28.8208 63.3903 29.0001 64.2225 29.0001C64.7417 29.0001 65.1944 28.9614 65.5698 28.8748C65.9035 28.8048 66.184 28.7309 66.3996 28.6501L66.8082 28.497L66.7118 28.0714L66.1659 25.6623L66.0582 25.187L65.5802 25.2825L65.1353 25.3714C64.9826 25.3951 64.7717 25.4092 64.4954 25.4092C64.1558 25.4092 63.8372 25.3575 63.537 25.2562C63.3145 25.1725 63.1117 25.0082 62.9347 24.7214C62.7822 24.4552 62.6753 23.9939 62.6753 23.2728V13.591H65.9057H66.4057V13.091V10.8183Z" fill="#272F28" stroke="black"/>
<path d="M42.2585 28.7729H42.7585V28.2729V17.7729C42.7585 16.8204 42.9398 16.0432 43.2779 15.4206C43.622 14.7869 44.0828 14.3167 44.6614 13.9945C45.2541 13.6687 45.935 13.5002 46.7167 13.5002C47.8483 13.5002 48.6827 13.8469 49.2834 14.4982L49.2851 14.5C49.8875 15.1468 50.22 16.0786 50.22 17.3638V28.2729V28.7729H50.72H53.404H53.904V28.2729V17.182C53.904 15.646 53.6497 14.3349 53.1109 13.2743C52.5764 12.2147 51.8175 11.4088 50.8332 10.8788C49.8613 10.348 48.7417 10.0911 47.4901 10.0911C46.1051 10.0911 44.9254 10.3772 43.9878 10.9899C43.4758 11.3203 43.0351 11.7125 42.6675 12.1654V10.8183V10.3183H42.1675H39.5745H39.0745V10.8183V28.2729V28.7729H39.5745H42.2585Z" fill="#272F28" stroke="black"/>
<path d="M23.6395 27.9482L23.6426 27.9501C24.9546 28.748 26.5 29.1365 28.2583 29.1365C29.4924 29.1365 30.6197 28.9467 31.6332 28.5579L31.6365 28.5566C32.6432 28.1623 33.501 27.61 34.1999 26.8952L34.2019 26.8931C34.9003 26.1706 35.3997 25.3298 35.6961 24.3757L35.8485 23.8848L35.3536 23.746L32.7605 23.0187L32.3187 22.8948L32.1574 23.3245C31.9531 23.8688 31.6691 24.3119 31.3103 24.6643C30.9482 25.0125 30.5149 25.2783 30.0035 25.4601C29.4961 25.6356 28.9163 25.7274 28.2583 25.7274C27.2489 25.7274 26.3861 25.5096 25.6539 25.09C24.9258 24.6652 24.3504 24.0474 23.9284 23.2188C23.615 22.5864 23.414 21.8346 23.336 20.9547H35.4915H35.9915V20.4547V19.3183C35.9915 17.6487 35.7705 16.2119 35.3094 15.0238C34.8555 13.8542 34.2373 12.8922 33.444 12.157C32.668 11.4304 31.8003 10.8997 30.8424 10.5725L30.6823 11.0411L30.8424 10.5725C29.9048 10.2522 28.9518 10.0911 27.9853 10.0911C26.3231 10.0911 24.846 10.4995 23.5728 11.3311C22.3144 12.1504 21.3385 13.2916 20.6427 14.7379L20.6422 14.739C19.9526 16.1812 19.6152 17.833 19.6152 19.682C19.6152 21.5308 19.9526 23.1759 20.6432 24.6042L20.6432 24.6042L20.6447 24.6072C21.3437 26.0282 22.3426 27.1464 23.6395 27.9482ZM32.243 17.6365H23.3696C23.4567 17.0876 23.6245 16.5637 23.8727 16.0632C24.2515 15.2993 24.789 14.6839 25.4903 14.2099L25.4912 14.2093C26.1786 13.7425 27.0027 13.5002 27.9853 13.5002C28.8766 13.5002 29.623 13.7044 30.2445 14.0942L30.2465 14.0955C30.8866 14.4927 31.3773 15.0322 31.7235 15.7239L31.7234 15.7239L31.7252 15.7274C32.0131 16.2916 32.1879 16.9259 32.243 17.6365Z" fill="#272F28" stroke="black"/>
<path d="M0.5 28.2727V28.7727H1H3.8205H4.3205V28.2727V19.6818H8.9156C9.01628 19.6818 9.11611 19.6809 9.21509 19.6791L13.9801 28.5101L14.1218 28.7727H14.4201H17.6955H18.5399L18.134 28.0323L13.1476 18.9377C13.2998 18.8724 13.4478 18.8027 13.5917 18.7284L13.594 18.7273C14.8352 18.0788 15.7734 17.1761 16.3861 16.0179C16.9904 14.8755 17.2857 13.5773 17.2857 12.1364C17.2857 10.6952 16.9903 9.39067 16.3874 8.23469C15.7753 7.06108 14.8337 6.14642 13.5848 5.4898C12.323 4.81881 10.7419 4.5 8.87011 4.5H1H0.5V5V28.2727ZM8.82462 16.1364H4.3205V8H8.77912C9.99328 8 10.9195 8.18741 11.5905 8.52595L11.5905 8.52596L11.594 8.52771C12.2722 8.86315 12.7451 9.32678 13.0404 9.91693C13.3482 10.5321 13.5107 11.2672 13.5107 12.1364C13.5107 13.0062 13.348 13.7269 13.0434 14.3157L13.0424 14.3177C12.7579 14.8736 12.2927 15.3163 11.6126 15.6392L11.6109 15.6401C10.9446 15.9596 10.0261 16.1364 8.82462 16.1364Z" fill="#272F28" stroke="black"/>
<path d="M80.27 27.5908H77.313L85.8655 4.3181H88.777L97.3294 27.5908H94.3725L87.4122 7.99992H87.2302L80.27 27.5908ZM81.3618 18.4999H93.2807V20.9999H81.3618V18.4999Z" fill="#272F28"/>
<path d="M65.9057 10.1364V12.4091H56.8528V10.1364H65.9057ZM59.4913 5.95458H62.1753V22.5909C62.1753 23.3485 62.2853 23.9167 62.5052 24.2955C62.7326 24.6667 63.0207 24.9167 63.3695 25.0455C63.7259 25.1667 64.1012 25.2273 64.4954 25.2273C64.7911 25.2273 65.0337 25.2121 65.2233 25.1818C65.4128 25.144 65.5645 25.1137 65.6782 25.0909L66.2241 27.5C66.0422 27.5682 65.7882 27.6364 65.4621 27.7046C65.1361 27.7803 64.7229 27.8182 64.2225 27.8182C63.4643 27.8182 62.7212 27.6553 61.9934 27.3296C61.2731 27.0038 60.6741 26.5076 60.1964 25.8409C59.7264 25.1743 59.4913 24.3334 59.4913 23.3182V5.95458Z" fill="#272F28"/>
<path d="M42.2585 17.091V27.591H39.5745V10.1364H42.1675V12.8637H42.395C42.8044 11.9774 43.4261 11.2652 44.2601 10.7274C45.0942 10.1819 46.1708 9.90917 47.4901 9.90917C48.6729 9.90917 49.7078 10.1516 50.5949 10.6364C51.482 11.1137 52.1719 11.841 52.6648 12.8183C53.1576 13.788 53.404 15.0152 53.404 16.5001V27.591H50.72V16.6819C50.72 15.3107 50.3636 14.2425 49.6509 13.4773C48.9382 12.7046 47.9601 12.3183 46.7167 12.3183C45.8599 12.3183 45.0942 12.5039 44.4194 12.8751C43.7521 13.2463 43.2252 13.788 42.8385 14.5001C42.4518 15.2122 42.2585 16.0758 42.2585 17.091Z" fill="#272F28"/>
<path d="M28.2583 27.9546C26.5751 27.9546 25.1231 27.5834 23.9024 26.841C22.6893 26.091 21.7529 25.0455 21.0933 23.7046C20.4413 22.3561 20.1152 20.788 20.1152 19.0001C20.1152 17.2122 20.4413 15.6364 21.0933 14.2728C21.7529 12.9016 22.6704 11.8334 23.8456 11.0683C25.0284 10.2955 26.4083 9.90917 27.9853 9.90917C28.8952 9.90917 29.7936 10.0607 30.6807 10.3637C31.5678 10.6667 32.3753 11.1592 33.1032 11.841C33.8311 12.5152 34.4111 13.4092 34.8433 14.5228C35.2754 15.6364 35.4915 17.0077 35.4915 18.6364V19.7728H22.0259V17.4546H32.762C32.762 16.4698 32.5649 15.591 32.1706 14.8183C31.7839 14.0455 31.2304 13.4357 30.5101 12.9887C29.7974 12.5417 28.9558 12.3183 27.9853 12.3183C26.9163 12.3183 25.9913 12.5834 25.2103 13.1137C24.437 13.6364 23.8418 14.3183 23.4248 15.1592C23.0078 16.0001 22.7993 16.9016 22.7993 17.8637V19.4092C22.7993 20.7273 23.0267 21.8448 23.4816 22.7614C23.9441 23.6705 24.5848 24.3637 25.4037 24.841C26.2225 25.3107 27.1741 25.5455 28.2583 25.5455C28.9634 25.5455 29.6003 25.447 30.169 25.2501C30.7452 25.0455 31.2418 24.7425 31.6588 24.341C32.0758 23.9319 32.3981 23.4243 32.6255 22.8183L35.2186 23.5455C34.9456 24.4243 34.4869 25.197 33.8424 25.8637C33.198 26.5228 32.4019 27.038 31.4541 27.4092C30.5064 27.7728 29.4411 27.9546 28.2583 27.9546Z" fill="#272F28"/>
<path d="M1 27.5908V4.3181H8.87011C10.6898 4.3181 12.1834 4.62871 13.3511 5.24992C14.5187 5.86356 15.383 6.70825 15.9441 7.78401C16.5052 8.85977 16.7857 10.0833 16.7857 11.4545C16.7857 12.8257 16.5052 14.0416 15.9441 15.1022C15.383 16.1628 14.5225 16.9961 13.3624 17.6022C12.2024 18.2007 10.7201 18.4999 8.9156 18.4999H2.54673V15.9545H8.82462C10.0681 15.9545 11.0689 15.7726 11.8271 15.409C12.5929 15.0454 13.1464 14.5302 13.4875 13.8636C13.8363 13.1893 14.0107 12.3863 14.0107 11.4545C14.0107 10.5226 13.8363 9.70825 13.4875 9.01128C13.1388 8.31432 12.5815 7.77644 11.8157 7.39765C11.0499 7.01129 10.0377 6.8181 8.77912 6.8181H3.8205V27.5908H1ZM11.9636 17.1363L17.6955 27.5908H14.4201L8.77912 17.1363H11.9636Z" fill="#272F28"/>
<path d="M129.354 24.937C129.484 22.8797 128.882 20.9817 127.682 19.2646C127.065 18.3816 126.326 17.6824 125.483 17.1187C124.403 16.304 123.128 15.7651 121.655 15.5095C121.609 15.4807 121.563 15.4517 121.517 15.4229C121.49 15.4068 121.461 15.3951 121.429 15.3873C121.196 15.3497 120.964 15.3121 120.731 15.2744C120.544 15.2639 120.358 15.2534 120.172 15.243C120.047 15.2404 119.923 15.2378 119.799 15.2352C119.536 15.2483 119.273 15.2613 119.01 15.2744L118.637 15.3385C118.575 15.3485 118.513 15.3584 118.451 15.3684C118.405 15.3754 118.359 15.3823 118.312 15.3893C118.028 15.472 117.747 15.5631 117.46 15.6362C114.657 16.3521 112.771 18.1341 111.559 20.6789C110.903 22.0552 110.738 23.5046 110.841 25.0288C110.955 26.7207 111.539 28.2106 112.497 29.5673C112.532 29.6174 112.57 29.6643 112.607 29.7134C112.85 30.0778 113.098 30.4382 113.395 30.7516C114.069 31.4611 114.827 32.0432 115.66 32.5003C115.629 32.5403 115.599 32.5804 115.569 32.6205C115.709 32.638 115.849 32.6556 115.989 32.6731C116.574 32.9649 117.195 33.1975 117.849 33.3709C120.314 34.0251 122.613 33.7039 124.733 32.4C124.837 32.346 124.939 32.2904 125.039 32.2298C125.134 32.1716 125.227 32.1121 125.319 32.052C125.345 32.0463 125.37 32.0406 125.396 32.0347C125.427 32.0267 125.456 32.0145 125.483 31.998C125.675 31.861 125.867 31.7239 126.058 31.5868C126.197 31.4633 126.336 31.3398 126.476 31.2163C126.565 31.1309 126.655 31.0457 126.744 30.9603C126.921 30.7663 127.098 30.5723 127.274 30.3783C127.308 30.331 127.341 30.2837 127.375 30.2364C128.58 28.7793 129.224 26.993 129.354 24.937ZM116.745 29.0433C116.7 28.9312 116.726 28.6794 116.798 28.6296C116.821 28.6139 116.844 28.5992 116.867 28.5837C116.826 28.7368 116.785 28.89 116.745 29.0433ZM114.192 24.0308C114.176 23.8104 114.159 23.5847 114.141 23.3501C114.635 23.5249 115.067 23.6414 115.464 23.8299C115.544 23.8676 115.62 23.9119 115.695 23.9587C115.195 23.9911 114.693 24.0144 114.192 24.0308ZM117.468 19.4531C117.79 19.2926 118.112 19.1342 118.435 18.9765C118.493 18.9728 118.55 18.9698 118.608 18.9664C118.565 19.62 118.532 20.2149 118.481 20.7895C118.143 20.344 117.806 19.8986 117.468 19.4531ZM125.723 24.923C125.725 24.923 125.727 24.9235 125.728 24.9235C125.707 25.2387 125.683 25.5502 125.649 25.8599C125.623 26.0876 125.5 26.3158 125.145 26.1448C124.689 25.9253 124.193 25.7857 123.738 25.5641C123.607 25.4201 123.61 25.2591 123.75 25.0877C124.407 25.0196 125.065 24.9611 125.723 24.923ZM123.469 20.1688C123.147 20.565 122.799 20.9426 122.435 21.3021C122.51 20.7048 122.601 20.1091 122.698 19.5151C122.712 19.4296 122.872 19.3677 122.965 19.2948C123.049 19.3273 123.133 19.3598 123.217 19.3922C123.271 19.4374 123.324 19.4824 123.378 19.5275C123.475 19.6086 123.572 19.6896 123.669 19.7705C123.632 19.915 123.558 20.0598 123.469 20.1688ZM122.494 29.945C122.464 29.783 122.434 29.621 122.404 29.4589C122.544 29.5469 122.685 29.6358 122.839 29.7324C122.77 29.7854 122.7 29.8387 122.633 29.8912C122.587 29.909 122.541 29.927 122.494 29.945Z" fill="#1D1D1B"/>
<path d="M218.647 26.1932C218.633 25.5694 218.616 24.9457 218.607 24.3218C218.598 23.7145 218.542 23.1015 218.604 22.5008C218.714 21.4251 218.797 20.3688 217.829 19.6046C217.242 19.1405 216.604 18.7394 215.989 18.31C215.95 18.2789 215.911 18.2477 215.872 18.2167C215.601 18.0369 215.33 17.857 215.059 17.6772C215.049 17.6498 215.03 17.6395 215.001 17.6458C214.829 17.5335 214.657 17.4212 214.485 17.3088C214.506 17.2529 214.528 17.1968 214.549 17.1408C214.45 17.1598 214.351 17.1787 214.252 17.1976C214.215 17.1658 214.178 17.1341 214.142 17.1024C214.116 17.0009 214.09 16.8992 214.064 16.7977C214.014 16.8616 213.964 16.9255 213.915 16.9895C213.077 16.5569 212.239 16.1244 211.401 15.6919C211.294 15.6548 211.187 15.6178 211.081 15.5808C210.92 15.5028 210.759 15.4247 210.598 15.3467C210.564 15.2567 210.531 15.1667 210.498 15.0768C210.453 15.1383 210.409 15.1999 210.364 15.2615C210.062 15.1292 209.759 14.9979 209.457 14.8642C208.986 14.6558 208.527 14.4145 208.043 14.2433C207.257 13.9652 206.449 13.7476 205.661 13.4754C205.164 13.3038 204.7 13.0287 204.196 12.8886C202.886 12.5246 201.568 12.1856 200.242 11.8827C199.219 11.6487 198.179 11.4839 197.147 11.289C196.621 11.1898 196.095 11.0949 195.57 10.9934C194.881 10.8602 194.198 10.6781 193.503 10.5954C191.942 10.41 190.375 10.2729 188.81 10.1162C188.688 10.097 188.566 10.078 188.445 10.0589C188.146 10.0301 187.847 10.0014 187.548 9.9727C187.43 9.98615 187.313 9.99948 187.196 10.0129C187.195 9.97429 187.195 9.93565 187.195 9.89702C187.043 9.88961 186.892 9.8822 186.74 9.87479C186.691 9.90545 186.642 9.93611 186.593 9.96677C186.555 9.96324 186.527 9.94489 186.508 9.91172C185.667 9.78954 184.826 9.66725 183.985 9.54507C183.905 9.51726 183.826 9.48956 183.747 9.46175C183.56 9.36419 183.373 9.26652 183.186 9.16895C183.078 8.66451 182.633 8.7297 182.28 8.63955C181.436 8.13214 180.594 7.62268 179.748 7.11857C179.481 6.95935 179.206 6.81415 178.934 6.66256C178.906 6.63646 178.877 6.61036 178.848 6.58426C178.684 6.48853 178.519 6.39279 178.354 6.29705C178.32 6.28075 178.285 6.26434 178.25 6.24804L178.248 6.24759C178.095 6.17066 177.943 6.09372 177.79 6.01668C177.673 5.94681 177.556 5.87706 177.439 5.80719C177.324 5.72753 177.208 5.64786 177.093 5.56819C176.675 5.36361 176.257 5.15903 175.839 4.95444C175.806 4.92755 175.774 4.90065 175.742 4.87375L175.73 4.86805C175.498 4.76023 175.266 4.65241 175.034 4.5446C174.534 4.32303 174.034 4.10135 173.533 3.87979C173.404 3.80331 173.274 3.72684 173.144 3.65036C173.011 3.60067 172.877 3.55086 172.743 3.50117C172.665 3.47017 172.587 3.43917 172.509 3.40828C172.317 3.3342 172.125 3.26023 171.932 3.18614C171.744 3.10021 171.556 3.01416 171.368 2.92822C171.289 2.89927 171.21 2.87044 171.13 2.84149C171.056 2.79852 170.981 2.75544 170.906 2.71247C170.754 2.66802 170.602 2.62357 170.45 2.57912C170.343 2.52852 170.236 2.47791 170.129 2.42731C170.006 2.40132 169.883 2.37534 169.76 2.34924C169.718 2.32086 169.676 2.29248 169.634 2.26421C169.217 2.14591 168.8 2.0276 168.384 1.90941C167.835 1.68796 167.288 1.4591 166.733 1.25338C166.655 1.22443 166.535 1.30843 166.434 1.34012C165.873 1.19457 165.317 1.02088 164.749 0.910208C163.978 0.759991 163.197 0.657985 162.42 0.53535C161.692 0.462293 160.963 0.392655 160.235 0.315381C159.43 0.229901 158.626 0.137354 157.821 0.047999C157.67 0.0375135 157.519 0.0270279 157.368 0.0166563C157.14 0.0111856 156.912 0.00571487 156.685 0.000244141C155.804 0.005145 154.922 0.0100459 154.041 0.0150607C153.813 0.026458 153.584 0.0378554 153.356 0.0492527C153.011 0.0856103 152.666 0.122082 152.32 0.158439C152.243 0.174396 152.166 0.190466 152.089 0.206422C150.334 0.365529 148.579 0.52475 146.824 0.683857C146.449 0.431406 146.148 0.533184 145.898 0.875333C145.784 0.882627 145.671 0.889921 145.557 0.897215C145.403 0.928786 145.249 0.960471 145.095 0.992041C144.488 1.07479 143.881 1.15764 143.275 1.24039C143.042 1.31789 142.809 1.39539 142.577 1.47278C142.384 1.50732 142.192 1.54185 141.999 1.57638C141.731 1.6475 141.463 1.71862 141.194 1.78974C141.159 1.80718 141.121 1.81276 141.082 1.80627C140.967 1.83772 140.851 1.86907 140.735 1.90052C139.936 2.02795 139.137 2.15537 138.337 2.28279C137.623 2.51484 136.917 2.77527 136.193 2.97301C134.807 3.35186 133.411 3.69504 132.019 4.05314C131.943 4.06591 131.868 4.07867 131.792 4.09144C131.129 4.29499 130.47 4.51325 129.802 4.69926C128.249 5.13167 126.704 5.5976 125.134 5.96037C122.755 6.51041 120.363 7.00768 117.966 7.47588C117.268 7.61231 116.533 7.55634 115.818 7.61846C114.565 7.7273 113.313 7.8594 112.061 7.98169C111.785 7.9891 111.509 7.99662 111.233 8.00403C110.598 8.00814 109.962 8.01212 109.327 8.01623C109.128 7.95753 108.93 7.89895 108.731 7.84025C108.707 7.87251 108.706 7.90544 108.728 7.93895C108.66 7.92607 108.592 7.91308 108.524 7.9002C108.472 7.89314 108.419 7.88618 108.367 7.87912C107.724 7.8243 107.082 7.76959 106.44 7.71477C105.859 7.36453 105.247 7.2762 104.6 7.51076C104.526 7.49674 104.452 7.48272 104.378 7.4687C104.003 7.53674 103.628 7.60478 103.252 7.67294C103.239 7.76913 103.226 7.86521 103.213 7.96141C103.256 8.03594 103.3 8.1106 103.344 8.18514C103.814 8.60467 104.298 9.01076 104.747 9.45195C104.884 9.58678 104.926 9.81781 105.011 10.0047C104.949 10.1149 104.886 10.2251 104.824 10.3354L104.817 10.345C104.709 10.4654 104.601 10.5856 104.493 10.706C104.224 10.9664 103.954 11.2269 103.684 11.4873C103.571 11.6053 103.457 11.7231 103.344 11.8411C102.999 12.4084 102.655 12.9758 102.31 13.5433C102.283 13.5474 102.258 13.5548 102.233 13.5653C101.648 13.5419 101.189 13.7841 101.083 14.3553C101.001 14.8039 100.808 15.4068 101.572 15.5711C101.601 15.5772 101.61 15.6723 101.628 15.7258C101.615 15.9479 101.603 16.1699 101.591 16.392C101.557 16.5824 101.524 16.7726 101.491 16.9629C101.492 17.5664 101.505 18.1701 101.491 18.7733C101.439 21.0864 101.45 23.3918 102.199 25.6227C102.226 25.6998 102.252 25.7769 102.279 25.854C102.33 26.0687 102.343 26.3018 102.439 26.4947C102.687 26.9953 102.849 27.6837 103.265 27.9275C104.294 28.531 105.447 28.928 106.55 29.4079C106.664 29.4446 106.779 29.4812 106.893 29.5179C106.968 29.536 107.044 29.5541 107.119 29.5723C107.275 29.6222 107.431 29.6722 107.587 29.7221C107.663 29.7341 107.738 29.746 107.814 29.7579C107.852 29.786 107.891 29.8139 107.93 29.8419C108.785 29.9183 109.639 30.0173 110.496 30.063C111.088 30.0946 111.239 29.8378 110.998 29.329C110.733 28.7682 110.375 28.2277 110.234 27.6368C110.032 26.7867 109.945 25.9016 109.894 25.0267C109.855 24.3461 109.946 23.6581 109.98 22.9733C109.989 22.8696 109.997 22.766 110.006 22.6623C110.031 22.5827 110.056 22.5031 110.081 22.4235C110.173 22.0853 110.266 21.7471 110.358 21.4089C110.434 21.219 110.51 21.0291 110.586 20.8393C110.586 20.8007 110.586 20.7621 110.585 20.7236C110.616 20.6811 110.646 20.6384 110.677 20.5959C110.72 20.5249 110.764 20.4539 110.807 20.383C110.879 20.2288 110.952 20.0746 111.024 19.9204C111.174 19.6851 111.324 19.4497 111.474 19.2143C111.474 19.2143 111.493 19.1808 111.493 19.1807C111.538 19.087 111.583 18.9934 111.628 18.8997C111.658 18.8681 111.689 18.8365 111.72 18.805L111.752 18.7952C111.78 18.766 111.808 18.7368 111.836 18.7076C111.908 18.619 111.98 18.5303 112.052 18.4416C112.134 18.3417 112.217 18.2418 112.299 18.1419C112.377 18.0539 112.456 17.966 112.534 17.878C112.565 17.8368 112.597 17.7955 112.628 17.7542C112.628 17.7542 112.627 17.7569 112.627 17.7569L112.867 17.4339C112.879 17.3535 112.891 17.2732 112.903 17.1928C112.952 17.1517 113.001 17.1106 113.05 17.0695C112.995 17.0335 112.941 16.9976 112.886 16.9616C112.854 16.9337 112.844 16.8995 112.858 16.8591C112.782 16.78 112.707 16.7009 112.632 16.6217C112.561 16.6034 112.488 16.5893 112.418 16.5664C111.076 16.1269 109.75 15.6299 108.388 15.2627C107.129 14.9232 105.836 14.7067 104.551 14.4715C104.201 14.4074 104.089 14.2042 104.148 13.9462C104.234 13.5705 104.331 13.1515 104.565 12.8636C105.34 11.9065 106.293 11.1494 107.398 10.5739C109.049 9.71409 110.878 9.81051 112.642 9.57037C113.654 9.43269 114.68 9.39679 115.701 9.32282C117.201 9.21409 118.701 9.11231 120.202 9.00757C120.241 9.01133 120.281 9.01509 120.32 9.01897C120.678 8.98386 121.037 8.91206 121.393 8.92049C122.606 8.94933 123.818 9.00643 125.03 9.05282C125.107 9.06433 125.184 9.07573 125.261 9.08724C126.83 9.16599 128.399 9.24532 129.968 9.3235C131.556 9.4026 133.143 9.47816 134.731 9.56C136.108 9.631 137.485 9.72549 138.864 9.77894C140.458 9.84083 142.053 9.86864 143.648 9.91275C143.858 9.91856 144.067 9.93337 144.276 9.94397C144.435 9.96666 144.594 9.98934 144.752 10.0119C145.246 10.0296 145.74 10.0472 146.235 10.0649C146.279 10.0823 146.323 10.0998 146.367 10.1171C147.775 10.1685 149.183 10.2199 150.591 10.2713C151.015 10.3053 151.44 10.3392 151.864 10.3733C152.051 10.3837 152.239 10.3941 152.426 10.4044C152.509 10.4225 152.592 10.4407 152.675 10.4588C152.875 10.5003 153.073 10.5655 153.274 10.5793C154.446 10.6595 155.618 10.7885 156.79 10.7865C158.78 10.7828 160.754 10.9293 162.732 11.1282C164.03 11.2587 165.346 11.2062 166.653 11.2358C166.697 11.2236 166.741 11.2112 166.785 11.1991C167.957 11.1991 169.13 11.1991 170.302 11.1991C170.143 10.9857 169.951 10.8569 169.742 10.8204C169.151 10.7169 168.554 10.6502 167.959 10.5707C165.417 10.2312 162.88 9.85394 160.332 9.56592C158.438 9.35177 156.531 9.25501 154.63 9.10342C153.184 8.98808 151.737 8.87616 150.291 8.74862C149.19 8.6514 148.95 8.41764 148.761 7.33809C148.706 7.02454 148.636 6.71351 148.58 6.39997C148.405 5.41205 148.224 4.42492 148.066 3.43438C147.996 2.99752 148.244 2.77276 148.662 2.71931C150.492 2.48601 152.321 2.25532 154.151 2.02373C154.345 1.98145 154.539 1.93927 154.733 1.89699C154.877 1.88821 155.021 1.87932 155.165 1.87055C155.219 1.8661 155.272 1.86166 155.326 1.85733C156.077 1.85391 156.829 1.85049 157.58 1.84707C157.818 1.86873 158.055 1.89049 158.293 1.91215C159.813 2.10545 161.329 2.35061 162.855 2.48042C165.526 2.70757 168.021 3.58767 170.477 4.53548C172.204 5.20177 173.819 6.1531 175.477 6.99229C175.592 7.05042 175.727 7.26047 175.699 7.35461C175.666 7.46596 175.469 7.59361 175.337 7.60034C174.785 7.62849 174.231 7.60957 173.678 7.61607C172.83 7.62598 172.1 7.93246 171.55 8.56729C171.409 8.73027 171.309 9.14434 171.408 9.26139C171.942 9.89303 172.369 10.6334 173.246 10.9297C175.169 11.5798 177.122 11.9722 179.162 11.8351C179.203 11.8497 179.244 11.8642 179.285 11.8788C179.512 11.8934 179.739 11.9159 179.967 11.9212C182.567 11.9806 185.167 12.0373 187.767 12.0947C187.809 12.1198 187.852 12.145 187.895 12.1702C189.264 12.2075 190.633 12.2373 192.002 12.2836C194.075 12.3536 196.094 12.7869 198.102 13.2534C200.179 13.7362 202.261 14.2208 204.304 14.8265C205.992 15.3267 207.634 15.9853 209.282 16.6112C210.222 16.9683 211.137 17.3923 212.055 17.8034C212.406 17.9603 212.735 18.1655 213.073 18.3486C213.066 18.4418 213.058 18.5352 213.051 18.6285C212.702 18.7582 212.36 18.9181 212.001 19.0075C211.749 19.0701 211.469 19.0124 211.208 19.0495C209.921 19.2329 208.615 19.2686 207.387 18.876C205.893 18.3983 204.463 17.724 202.996 17.1597C202.659 17.03 202.283 17.0019 201.924 16.9269L201.801 17.1039C201.919 17.2602 202.017 17.4368 202.157 17.5696C203.261 18.6151 204.178 19.7791 204.527 21.2928C204.768 22.3398 205.055 23.3862 205.169 24.4492C205.243 25.1297 205.041 25.8395 204.962 26.5362C204.783 26.6374 204.605 26.7388 204.296 26.9136C204.603 26.9684 204.742 26.9934 204.881 27.0183C204.868 27.1238 204.856 27.2293 204.843 27.3346C204.607 27.9811 204.372 28.6274 204.136 29.2738C204.113 29.3148 204.089 29.3558 204.066 29.397C204.066 29.397 204.068 29.3924 204.068 29.3924C203.987 29.5289 203.905 29.6655 203.824 29.8021C203.674 30.0437 203.523 30.2853 203.349 30.5635C203.461 30.6638 203.579 30.7697 203.697 30.8754C203.74 30.8936 203.783 30.9116 203.826 30.9297C204.936 30.9336 206.045 30.9373 207.155 30.9412C207.193 30.9458 207.232 30.9503 207.27 30.9549C208.118 30.8506 208.967 30.7582 209.812 30.6388C210.838 30.4941 211.876 30.391 212.88 30.1518C214.007 29.8833 215.102 29.4828 216.211 29.1396C216.29 29.114 216.369 29.0882 216.448 29.0626C216.558 29.0166 216.668 28.9707 216.777 28.9249C216.819 28.9015 216.861 28.878 216.903 28.8547C216.941 28.8416 216.98 28.8285 217.018 28.8154C217.057 28.7858 217.095 28.7563 217.134 28.7268C217.635 28.415 218.135 28.103 218.636 27.7912C219.116 27.3679 219.122 26.5793 218.647 26.1932ZM107.525 20.1562C108.023 20.4254 108.171 20.9571 107.987 21.5224C107.806 22.0771 107.713 22.6601 107.582 23.2307C107.577 23.3449 107.572 23.4591 107.567 23.5733C107.56 23.6815 107.553 23.7899 107.545 23.8982C107.537 23.9887 107.529 24.0793 107.521 24.1698C107.519 24.5321 107.518 24.8944 107.516 25.2567C107.522 25.3474 107.528 25.4381 107.534 25.5288C107.545 25.6746 107.557 25.8204 107.569 25.966C107.583 26.0538 107.597 26.1415 107.612 26.2293C107.679 26.6552 107.772 27.0792 107.808 27.5079C107.839 27.8875 107.567 28.0598 107.202 27.919C106.417 27.6161 105.632 27.3124 104.855 26.9896C104.701 26.9253 104.582 26.7748 104.406 26.6298C104.962 26.4337 105.429 26.2661 105.898 26.1039C106.293 25.9673 106.447 25.6695 106.428 25.283C106.404 24.7799 106.581 24.223 106.01 23.8588C105.813 23.7334 105.685 23.5018 105.525 23.3188C105.728 23.2112 105.937 23.115 106.131 22.9926C106.298 22.8866 106.555 22.7711 106.582 22.6244C106.678 22.1186 106.772 21.5857 106.699 21.0873C106.666 20.8583 106.268 20.6313 105.99 20.4986C105.326 20.1823 104.526 20.1323 104.036 19.4858C103.975 19.4054 103.937 19.3075 103.871 19.1855C105.2 19.2363 106.402 19.5478 107.525 20.1562ZM146.495 8.41662C146.067 8.44659 145.639 8.53709 145.215 8.51942C143.839 8.46209 142.464 8.36715 141.089 8.2868C140.971 8.2648 140.853 8.24269 140.734 8.2207C140.438 8.19254 140.141 8.16451 139.844 8.13636C139.492 8.109 139.14 8.08176 138.787 8.05441C138.677 8.04803 138.567 8.04153 138.457 8.03515L138.314 8.02956C138.248 8.02717 138.182 8.02489 138.115 8.02261C138.067 8.01885 138.018 8.01497 137.969 8.01121C137.903 8.00643 137.836 8.00175 137.77 7.99697C137.61 8.01862 137.45 8.04039 137.291 8.06205C135.945 7.94112 134.597 7.8341 133.254 7.68399C133.059 7.66211 132.887 7.43405 132.704 7.3015C132.853 7.13282 132.968 6.89632 133.155 6.8064C134.569 6.12484 136.023 5.56272 137.592 5.31449C138.321 5.19926 139.025 4.93393 139.745 4.75567C140.386 4.59702 141.035 4.4704 141.679 4.31938C142.494 4.12814 143.302 3.90589 144.121 3.73664C144.667 3.6238 145.227 3.54254 145.782 3.52898C145.94 3.5251 146.104 3.80867 146.265 3.96037C146.299 4.5332 146.333 5.10603 146.366 5.67897C146.388 5.82942 146.411 5.97986 146.433 6.13042C146.454 6.28337 146.474 6.43633 146.494 6.58928C146.598 7.02261 146.711 7.454 146.801 7.89017C146.853 8.13989 146.868 8.3904 146.495 8.41662ZM211.817 28.3551C210.526 28.6665 209.211 28.8848 207.901 29.114C207.627 29.162 207.22 29.1824 207.074 29.0286C206.931 28.8776 206.971 28.4669 207.052 28.2078C207.551 26.6127 207.672 25.0091 207.281 23.3752C207.183 22.9672 207.491 22.4045 207.951 22.2811C208.633 22.098 209.335 21.9819 210.033 21.8647C210.177 21.8406 210.341 21.9372 210.579 22.0003C210.095 22.5735 209.696 23.0517 209.291 23.5247C208.832 24.0614 208.982 24.9147 209.432 25.3866C210.421 26.4231 211.637 26.9212 213.044 26.9932C213.635 27.0232 214.228 26.9843 214.82 26.9969C215.047 27.0017 215.273 27.0628 215.5 27.0982C215.509 27.1593 215.518 27.2204 215.527 27.2815C214.291 27.6439 213.067 28.0537 211.817 28.3551Z" fill="#1D1D1B"/>
<path d="M104.378 7.4687C104.003 7.53674 103.628 7.60478 103.252 7.67294C103.395 7.19824 103.924 7.10239 104.378 7.4687Z" fill="#1D1D1B"/>
<path d="M203.714 27.5622C203.829 27.562 203.943 27.5619 204.058 27.5616C204.092 27.1913 203.905 27.2593 203.728 27.308C204.27 25.4592 204.117 23.5583 203.421 21.6219C203.045 20.5782 202.458 19.6903 201.72 18.8962C200.39 17.2295 198.61 16.1966 196.379 15.8095C196.333 15.7806 196.287 15.7517 196.241 15.7229C196.214 15.7068 196.184 15.695 196.153 15.6873C195.92 15.6497 195.687 15.6121 195.454 15.5744C195.268 15.5639 195.082 15.5534 194.895 15.543C194.771 15.5404 194.647 15.5378 194.523 15.5351C194.26 15.5483 193.997 15.5612 193.734 15.5744L193.361 15.6385C193.299 15.6484 193.237 15.6584 193.174 15.6684C193.128 15.6753 193.082 15.6823 193.036 15.6892C192.752 15.772 192.47 15.863 192.184 15.9362C189.381 16.6521 187.495 18.4341 186.283 20.9789C185.627 22.3552 185.462 23.8046 185.565 25.3288C185.679 27.0207 186.263 28.5106 187.22 29.8673C187.256 29.9175 187.294 29.9643 187.33 30.0135C187.574 30.3778 187.821 30.7382 188.119 31.0517C188.793 31.7612 189.551 32.3433 190.384 32.8004C190.353 32.8404 190.323 32.8805 190.292 32.9205C190.432 32.9381 190.572 32.9556 190.712 32.9732C191.298 33.265 191.919 33.4976 192.572 33.6709C195.235 34.3774 197.702 33.9474 199.961 32.3705C200.014 32.3587 200.067 32.3467 200.12 32.3348C200.151 32.3267 200.18 32.3145 200.207 32.2981C200.399 32.161 200.59 32.024 200.782 31.8869C200.921 31.7634 201.06 31.6399 201.199 31.5164C201.289 31.431 201.379 31.3458 201.468 31.2604C201.645 31.0664 201.822 30.8723 201.998 30.6783C202.071 30.5759 202.144 30.4734 202.216 30.371C202.253 30.3202 202.29 30.2694 202.327 30.2187C202.355 30.1814 202.382 30.1442 202.41 30.1069C202.552 29.8488 202.686 29.5865 202.837 29.3336C203.166 28.7806 203.424 28.2222 203.617 27.6588C203.649 27.6266 203.682 27.5945 203.714 27.5622ZM188.749 23.5304C189.09 23.6441 189.441 23.7369 189.764 23.8884C189.998 23.998 190.223 24.1264 190.447 24.2572C189.905 24.2925 189.363 24.3177 188.821 24.3345C188.776 24.3358 188.729 24.2843 188.669 24.2139C188.675 24.0339 188.68 23.8538 188.685 23.6739C188.706 23.6261 188.727 23.5784 188.749 23.5304ZM192.041 19.5545C192.087 19.4835 192.133 19.4124 192.18 19.3413C192.564 19.3169 192.947 19.2894 193.331 19.2665C193.289 19.92 193.256 20.515 193.205 21.0896C192.817 20.5779 192.429 20.0662 192.041 19.5545ZM191.113 29.1651C191.043 29.0988 191.033 28.8283 191.089 28.7904C191.3 28.648 191.514 28.5093 191.728 28.3716C191.642 28.6961 191.552 29.0198 191.469 29.3442C191.461 29.3735 191.436 29.3984 191.399 29.4277C191.304 29.3408 191.208 29.2538 191.113 29.1651ZM198.393 20.0706C198.355 20.2151 198.282 20.3598 198.193 20.4688C197.871 20.865 197.523 21.2426 197.159 21.6021C197.234 21.0047 197.324 20.4091 197.421 19.8151C197.435 19.7296 197.596 19.6677 197.688 19.5948C197.772 19.6272 197.857 19.6597 197.941 19.6922C197.994 19.7373 198.048 19.7824 198.102 19.8275C198.199 19.9085 198.296 19.9897 198.393 20.0706ZM196.206 30.6346C196.251 29.8764 196.285 29.2133 196.331 28.5759C196.799 28.9838 197.26 29.4149 197.766 29.8747C197.627 29.9808 197.491 30.0866 197.357 30.1913C197.001 30.3283 196.625 30.4732 196.206 30.6346ZM198.349 25.4005C199.047 25.3266 199.746 25.2636 200.447 25.223C200.448 25.223 200.45 25.2235 200.452 25.2235C200.43 25.5387 200.406 25.8502 200.372 26.1599C200.347 26.3876 200.224 26.6158 199.869 26.4448C199.401 26.2197 198.891 26.0793 198.427 25.8477C198.274 25.7711 198.117 25.6405 198.072 25.4948C198.146 25.4446 198.245 25.4114 198.349 25.4005Z" fill="#1D1D1B"/>
<path d="M201.081 32.1211L201.256 32.0317C201.197 31.9854 201.137 31.9391 201.078 31.893C201.079 31.969 201.08 32.0451 201.081 32.1211Z" fill="#1D1D1B"/>
<path d="M152.108 0.127184C152.105 0.154082 152.098 0.180664 152.089 0.206422C152.166 0.190466 152.243 0.174396 152.32 0.158439C152.25 0.148068 152.179 0.137555 152.108 0.127184Z" fill="#1D1D1B"/>
<path d="M184.672 27.8661C183.978 26.2066 183.791 24.4815 184.246 22.7281C184.85 20.4072 186.051 18.45 187.889 16.8693C189.404 15.5658 191.216 14.9431 193.102 14.4453C193.255 14.4048 193.369 14.2156 193.501 14.0954C193.395 13.9892 193.298 13.8012 193.183 13.7896C192.149 13.6868 191.112 13.6149 190.076 13.534C189.872 13.4894 189.669 13.4449 189.466 13.4003C188.139 13.3877 186.811 13.375 185.484 13.3622C185.445 13.352 185.405 13.3417 185.365 13.3315C185.108 13.1517 184.861 13.0621 184.671 13.4175C183.685 13.4989 182.695 13.5471 181.715 13.6724C180.938 13.7715 180.175 13.9652 179.405 14.1169C179.441 14.341 179.477 14.5653 179.512 14.7895C179.798 14.8652 180.084 14.9377 180.368 15.0173C181.226 15.2573 182.123 15.4154 182.811 16.0413C182.945 16.1633 183.072 16.3925 183.051 16.5533C183.032 16.7023 182.82 16.9313 182.678 16.9424C182.127 16.9857 181.569 16.9565 181.014 16.9542C180.969 16.9362 180.924 16.9183 180.88 16.9003C180.806 16.8786 180.733 16.8568 180.659 16.835C180.434 16.8558 180.209 16.8766 179.985 16.8974C179.709 16.8864 179.434 16.8755 179.159 16.8645C178.817 16.7825 178.475 16.7005 178.133 16.6185C177.256 16.5774 176.379 16.5364 175.502 16.4953C175.269 16.4655 175.037 16.4358 174.805 16.406C174.66 16.385 174.516 16.3641 174.372 16.3431C173.981 16.3118 173.591 16.2804 173.201 16.2491C173.053 16.2426 172.904 16.2362 172.756 16.2298C172.596 16.2099 172.437 16.1899 172.278 16.17C171.44 16.1284 170.601 16.0868 169.763 16.0453C169.719 16.0387 169.675 16.032 169.63 16.0253C169.492 16.0159 169.355 16.0063 169.217 15.9967C168.9 15.9684 168.583 15.94 168.267 15.9116C168.121 15.9021 167.975 15.8927 167.829 15.8832C167.776 15.8789 167.722 15.8746 167.669 15.8703C166.615 15.7822 165.562 15.6913 164.508 15.6067C163.039 15.489 161.571 15.354 160.101 15.2664C157.832 15.1312 155.561 15.0356 153.291 14.9114C152.29 14.8565 151.292 14.7672 150.291 14.7037C149.42 14.6484 148.548 14.6076 147.676 14.5604C147.726 14.7095 147.794 14.769 147.874 14.7944C149.338 15.2591 150.801 15.7267 152.27 16.1788C153.265 16.4851 154.269 16.7608 155.266 17.0638C157.009 17.594 158.742 18.1606 160.493 18.6641C162.651 19.2844 164.826 19.8476 166.989 20.4509C168.494 20.8709 169.99 21.3259 171.495 21.7481C172.537 22.0404 173.587 22.306 174.634 22.579C175.338 22.7625 176.036 22.9811 176.751 23.1083C178.301 23.384 179.647 24.0264 180.68 25.215C181.603 26.2778 181.305 27.9418 180.025 28.5753C178.641 29.2609 177.166 29.2144 175.704 29.1169C174.245 29.0197 172.799 28.7246 171.34 28.6162C169.09 28.449 166.835 28.3568 164.58 28.2526C163.213 28.1895 161.844 28.1639 160.475 28.1214C160.358 28.1019 160.241 28.0825 160.124 28.063C159.6 28.0266 159.076 27.9902 158.552 27.9538L157.14 27.8809C156.841 27.8716 156.542 27.8625 156.244 27.8533C155.967 27.8347 155.691 27.816 155.415 27.7974C153.086 27.7528 150.758 27.7082 148.429 27.6635C147.638 27.3167 146.826 27.4336 146.013 27.5587C145.481 27.538 144.949 27.5174 144.418 27.4967C144.143 27.5085 143.869 27.5204 143.595 27.5321C140.312 27.4244 137.028 27.3167 133.745 27.209C133.705 27.1742 133.665 27.1396 133.625 27.1048C133.576 27.0405 133.527 26.9763 133.478 26.912C133.475 26.1653 133.471 25.4187 133.467 24.6722C133.467 24.5087 133.468 24.3453 133.468 24.1819C133.41 23.8627 133.351 23.5435 133.293 23.2244C133.277 22.9613 133.296 22.6902 133.239 22.4364C132.646 19.827 131.582 17.447 129.681 15.5055C128.591 14.3919 127.354 13.4686 125.896 12.859C125.724 12.787 125.615 12.5658 125.476 12.4138C125.647 12.3331 125.823 12.1757 125.989 12.1841C127.047 12.2372 128.108 12.2861 129.159 12.4141C130.736 12.6063 132.307 12.8502 133.877 13.0942C135.948 13.4159 137.903 14.029 139.541 15.4049C139.626 15.4784 139.711 15.5519 139.796 15.6254C140.068 15.9589 140.341 16.2925 140.613 16.626C140.758 16.7899 140.902 16.9539 141.047 17.1178C141.257 17.3775 141.468 17.6374 141.678 17.897C142.818 19.302 143.965 20.7007 145.094 22.1144C145.64 22.7989 146.245 23.3271 147.206 23.2351C147.469 23.2099 147.74 23.2246 148.004 23.2545C149.213 23.3914 150.42 23.5493 151.63 23.6813C152.267 23.7509 152.911 23.7649 153.549 23.8358C155.078 24.006 156.603 24.214 158.133 24.3705C159.482 24.5084 160.837 24.5794 162.187 24.7122C163.961 24.8868 165.73 25.1088 167.505 25.2809C169.083 25.4341 170.666 25.5469 172.246 25.6776C172.412 25.7018 172.578 25.726 172.744 25.7501C172.888 25.7611 173.032 25.772 173.176 25.7831C173.229 25.7895 173.283 25.7958 173.336 25.8021C173.482 25.8105 173.628 25.819 173.774 25.8275C174.013 25.8178 174.252 25.8083 174.492 25.7986C174.544 25.7472 174.597 25.6958 174.65 25.6444C174.62 25.6077 174.59 25.571 174.56 25.5343C173.284 25.2594 172.01 24.9772 170.732 24.7113C168.242 24.1933 165.75 23.6872 163.26 23.1707C161.725 22.8522 160.193 22.5141 158.657 22.202C156.678 21.8003 154.695 21.4204 152.716 21.0225C151.11 20.6995 149.502 20.3814 147.903 20.0242C147.372 19.9056 146.76 19.798 146.369 19.4693C144.923 18.2541 143.554 16.9486 142.156 15.6772C142.032 15.5656 141.909 15.454 141.785 15.3424C141.592 15.1539 141.398 14.9655 141.205 14.7771C141.184 14.2681 140.88 14.0058 140.294 13.9902C140.248 13.9963 140.202 14.0023 140.156 14.0082L140.173 13.9734C140.134 13.9427 140.096 13.9119 140.057 13.8813C139.769 13.6622 139.487 13.4351 139.191 13.2258C138.19 12.5161 137.2 11.7723 135.946 11.5596C134.983 11.3962 134.014 11.2561 133.044 11.1418C130.986 10.8995 128.925 10.6809 126.866 10.4526C126.595 10.4125 126.324 10.3724 126.053 10.3321C124.945 10.3285 123.836 10.3248 122.728 10.3213C122.381 10.3652 122.034 10.4092 121.687 10.4531C120.797 10.5299 119.897 10.5489 119.019 10.6948C116.882 11.0498 114.75 11.4368 112.627 11.8685C111.888 12.0189 111.176 12.3215 110.467 12.5943C110.314 12.6532 110.227 12.8829 110.11 13.0339C110.28 13.1623 110.441 13.3846 110.623 13.4044C112.194 13.5751 113.525 14.3351 114.902 15.011C115.3 15.2068 115.84 15.2324 116.294 15.1738C116.788 15.11 117.245 14.8045 117.739 14.6962C119.686 14.2694 121.631 14.3014 123.541 14.8986C126.531 15.8333 128.758 17.6645 129.933 20.5854C131.121 23.5367 131.113 26.4937 129.664 29.3861C129.417 29.8797 129.169 30.3732 128.922 30.8669C128.893 30.8928 128.863 30.9188 128.834 30.9448C128.863 30.958 128.891 30.9714 128.92 30.9846C128.931 31.019 128.938 31.0539 128.943 31.0895C128.975 31.1279 129.007 31.1662 129.039 31.2046L129.042 31.2049C129.079 31.2164 129.117 31.2279 129.154 31.2394C129.377 31.279 129.599 31.3543 129.821 31.352C130.965 31.3406 132.108 31.3094 133.251 31.285C133.495 31.2805 133.739 31.2759 133.983 31.2712C139.521 31.1356 145.059 31 150.597 30.8644L150.718 30.797C150.832 30.7972 150.946 30.7976 151.061 30.7978C151.1 30.7964 151.139 30.7951 151.178 30.7937C152.284 30.7752 153.391 30.7566 154.498 30.7382C154.884 30.7204 155.271 30.7026 155.658 30.685C156.456 30.679 157.254 30.6731 158.053 30.6672C159.585 30.6603 161.118 30.6534 162.65 30.6465C164.024 30.6558 165.397 30.6649 166.77 30.6741C167.195 30.696 167.619 30.7179 168.043 30.7398C169.067 30.7823 170.091 30.8271 171.115 30.8666C172.157 30.907 173.199 30.9316 174.241 30.9817C176.471 31.0891 178.701 31.2368 180.932 31.313C182.479 31.3656 184.028 31.3298 185.576 31.3258C186.038 31.3247 186.185 31.0311 185.981 30.6184C185.531 29.7072 185.064 28.802 184.672 27.8661Z" fill="#1D1D1B"/>
</svg>
