<?xml version="1.0" encoding="UTF-8"?><svg id="Layer_1" xmlns="http://www.w3.org/2000/svg" viewBox="0 0 245.558 196.1"><path d="m118.941,138.166c-2.442,0-4.903.192-7.323-.038-5.747-.546-11.486-1.211-17.208-1.974-8.498-1.133-16.641-3.585-24.529-6.918-6.645-2.809-12.829-6.306-18.295-11.121-4.126-3.635-7.46-7.779-9.147-12.961-2.79-8.568-.482-16.127,5.296-22.808,8.359-9.664,19.527-14.517,31.32-18.274,6.978-2.223,14.136-3.566,21.404-4.524,8.163-1.076,16.355-1.514,24.534-1.083,6.882.363,13.741,1.393,20.574,2.379,10.895,1.573,21.243,4.976,30.939,10.188,7.275,3.911,13.737,8.817,18.024,16.128,4.436,7.565,3.723,17.56-1.576,24.677-6.28,8.436-14.964,13.348-24.328,17.451-8.048,3.526-16.515,5.537-25.072,7.178-3.902.748-7.915.975-11.89,1.269-4.23.312-8.475.423-12.713.622-.003-.064-.005-.128-.008-.192Zm-24.767-69.972c-.152-.183-.305-.367-.457-.55-1.87.115-3.833-.096-5.594.405-5.91,1.68-11.918,3.205-17.571,5.552-7.229,3.002-14.064,6.857-18.912,13.375-3.484,4.684-5.354,9.877-3.591,15.596,2.311,7.497,7.811,12.444,14.446,16.211,1.331.756,2.574.436,3.246-1.147,1.38-3.249,2.67-6.542,4.189-9.726,6.162-12.914,13.36-25.207,22.13-36.547.775-1.002,1.412-2.11,2.114-3.168Zm97.084,29.596c-.19-1.069-.327-2.595-.74-4.043-2.115-7.419-7.652-11.923-13.789-15.844-1.68-1.074-3.081-.42-3.822,1.475-5.009,12.814-11.65,24.77-19.233,36.211-2.634,3.974-5.566,7.751-8.331,11.639-.28.393-.599,1.061-.444,1.377.167.339.859.504,1.347.579.52.08,1.095.058,1.602-.08,6.7-1.821,13.454-3.4,19.865-6.233,7.055-3.119,13.587-6.903,18.708-12.753,2.948-3.367,4.581-7.362,4.837-12.33Zm-75.239,34.821c.024-.184.048-.368.072-.551.678,0,1.357-.015,2.034.002,4.984.13,8.864-1.743,11.973-5.774,3.323-4.308,4.817-9.309,6.061-14.372,1.139-4.636-.808-8.047-5.084-8.549-3.433-.404-7.193-.201-10.488.793-10.039,3.028-19.988,6.449-29.216,11.53-4.071,2.241-7.853,5.013-11.707,7.632-.579.394-1.317,1.591-1.14,1.859.46.694,1.326,1.344,2.143,1.54,4.394,1.056,8.79,2.178,13.248,2.883,7.343,1.161,14.734,2.02,22.104,3.007Zm45.239-61.611c-1.219-.659-1.703-1.086-2.249-1.191-7.224-1.393-14.416-3.04-21.698-4.011-6.287-.839-12.676-1.079-19.027-1.191-1.938-.034-4.292.759-5.782,1.989-6.507,5.37-9.229,12.671-9.631,20.92-.129,2.642,1.494,4.482,3.973,5.522,2.956,1.24,5.898.93,8.726.017,5.467-1.764,10.844-3.807,16.256-5.741,8.665-3.096,16.89-7.081,24.489-12.289,1.631-1.118,3.082-2.498,4.943-4.024Z"/></svg>