<?xml version="1.0" encoding="UTF-8"?><svg id="Layer_1" xmlns="http://www.w3.org/2000/svg" viewBox="0 0 245.558 196.1"><g id="FljmyA"><path d="m119.891,121.998c10.431.072,20.863.142,31.294.216,8.09.058,16.179.126,24.269.173.567.003.895.164,1.205.684,2.583,4.339,5.209,8.652,7.822,12.973,2.792,4.617,5.59,9.231,8.375,13.852,2.609,4.328,5.201,8.667,7.811,12.995,1.691,2.804,3.405,5.595,5.099,8.397.152.251.235.544.423.991-1.008,0-1.835,0-2.663,0-16.509,0-33.017-.005-49.526.003-1.34,0-2.681.074-4.021.131-1.011.043-1.706-.295-2.247-1.247-2.302-4.053-4.694-8.055-7.036-12.086-2.388-4.11-4.73-8.247-7.14-12.345-2.708-4.603-5.46-9.179-8.21-13.757-1.818-3.025-3.669-6.03-5.498-9.048-.449-.741-.703-.756-1.137-.017-3.338,5.678-6.668,11.361-10.012,17.035-2.81,4.769-5.653,9.519-8.447,14.297-2.827,4.834-5.612,9.694-8.419,14.54-.346.597-.647,1.243-1.102,1.746-.326.361-.858.684-1.328.735-.981.105-1.983.012-2.976.012-15.707-.002-31.415-.002-47.122-.002-1.788,0-3.575,0-5.478,0,.553-1.088,1.084-2.223,1.694-3.315,2.127-3.803,4.279-7.592,6.425-11.384,1.876-3.315,3.763-6.624,5.635-9.94,1.726-3.057,3.43-6.126,5.16-9.18,1.804-3.184,3.63-6.356,5.444-9.534,1.132-1.983,2.3-3.947,3.37-5.963.337-.635.725-.865,1.401-.864,13.88.023,27.76.035,41.639.047,4.071.003,8.142.003,12.213-.011.755-.003,1.511-.081,2.266-.125.271-.003.543-.006.814-.009Z" fill="#1d1d1b"/><path d="m119.891,121.998c-.271.003-.543.006-.814.009-3.277-5.434-6.56-10.866-9.83-16.304-2.412-4.01-4.81-8.028-7.212-12.044-1.892-3.163-3.8-6.317-5.665-9.497-2.034-3.467-4.027-6.958-6.037-10.439-.316-.547-.343-.988.038-1.62,3.49-5.791,6.927-11.613,10.356-17.44,2.866-4.87,5.677-9.772,8.554-14.636,2.707-4.575,5.472-9.116,8.2-13.678.562-.94,1.048-1.927,1.621-2.86.491-.799.841-.749,1.334.089,2.168,3.688,4.367,7.357,6.508,11.06,2.361,4.084,4.642,8.214,7.012,12.293,2.915,5.017,5.925,9.98,8.819,15.009,2.034,3.535,3.965,7.131,5.876,10.734.217.409.199,1.145-.028,1.552-1.127,2.022-2.366,3.981-3.556,5.968-2.487,4.153-4.955,8.318-7.457,12.463-1.615,2.676-3.296,5.312-4.912,7.987-2.409,3.989-4.783,8-7.179,11.997-1.691,2.821-3.395,5.635-5.092,8.452-.181.3-.358.603-.537.904Z" fill="#1d1d1b"/></g></svg>