<?xml version="1.0" encoding="UTF-8"?><svg id="Layer_1" xmlns="http://www.w3.org/2000/svg" viewBox="0 0 245.558 196.1"><path d="m231.579,118.429c-.17.423-.358.84-.507,1.27-.275.792-.529,1.592-.791,2.388-.32.854-.64,1.707-.959,2.561l-.662,1.126c-.602,1.047-1.204,2.094-1.805,3.141-.164.286-.326.573-.488.859-.205.269-.41.538-.614.807-.7.902-1.401,1.804-2.101,2.706-.59.645-1.181,1.291-1.771,1.936-.564.496-1.136.985-1.689,1.493-.188.172-.331.393-.494.592-.457.371-.914.742-1.371,1.112-.052-.013-.094.002-.125.046-.677.483-1.355.966-2.032,1.45-.505.362-1.01.726-1.514,1.088,0,0,.002-.019.002-.019-.167.109-.335.218-.502.327-.412.217-.823.435-1.235.651-.812.425-1.625.848-2.438,1.273-1.015.427-2.03.853-3.045,1.28-.164.052-.328.105-.492.157-.376.109-.752.217-1.128.326-.829.24-1.659.481-2.488.721-.158,0-.32-.025-.473.003-1.145.207-2.287.425-3.43.639-.998.164-2.002.26-3.015.263-.236,0-.472.035-.708.053-1.279-.025-2.558-.05-3.837-.074-.389-.049-.779-.102-1.169-.148-.846-.099-1.692-.194-2.538-.29l-3.906-.915c-.673-.191-1.346-.381-2.019-.572-.589-.24-1.179-.481-1.768-.721-.327-.144-.657-.282-.981-.433-.902-.42-1.802-.845-2.703-1.268-.848-.48-1.696-.96-2.544-1.44-.331-.213-.662-.425-.993-.638-.864-.645-1.728-1.289-2.652-1.979-.541.461-1.051.894-1.56,1.328-.105.059-.211.118-.316.177-.539.376-1.078.752-1.617,1.128-.73.217-1.325.665-1.912,1.126-.216.085-.438.158-.647.258-.964.458-1.925.923-2.887,1.385-.116.047-.232.094-.349.14-.843.33-1.686.66-2.528.99-.06,0-.12.002-.18.002-.055.04-.11.081-.165.121-.162.056-.323.112-.485.168-1.33.328-2.659.656-3.989.984-.698.105-1.395.214-2.094.312-.54.076-1.081.137-1.622.204-1.276.055-2.552.11-3.828.164-.986-.027-1.972-.048-2.958-.086-.254-.01-.506-.074-.758-.114l-3.741-.593c-1.248-.323-2.496-.647-3.744-.97-.394-.128-.789-.256-1.183-.384-.844-.342-1.687-.684-2.531-1.026-1.351-.682-2.701-1.364-4.052-2.045-.287-.161-.574-.322-.861-.483-.941-.664-1.882-1.328-2.823-1.992-.301-.253-.603-.505-.943-.791-.889.684-1.747,1.345-2.605,2.005-.438.264-.876.527-1.314.791-.847.486-1.694.972-2.541,1.457-1.195.512-2.4,1.001-3.576,1.552-.313.147-.761.098-.927.519-1.183.128-2.29.531-3.402.921-1.203.251-2.405.502-3.608.753-1.074.087-2.149.169-3.222.268-.178.016-.349.108-.524.165-1.285.003-2.569.006-3.854.009-.103-.164-.211-.213-.328-.013l-3.365-.303c-.692-.123-1.385-.247-2.077-.369-.593-.104-1.187-.205-1.78-.308-.244-.063-.495-.109-.732-.193-1.44-.506-2.883-1.005-4.312-1.539-.795-.297-1.567-.66-2.349-.993-2.6-1.345-5.076-2.888-7.431-4.68-.162.128-.304.241-.446.354-1.076.741-2.152,1.481-3.228,2.222-.159.113-.317.225-.476.338-1.288.687-2.575,1.375-3.863,2.062-1.065.435-2.13.87-3.196,1.304-.16.056-.321.112-.481.168-.37.108-.739.218-1.109.324-.811.232-1.623.462-2.435.693-.951.145-1.904.28-2.853.441-.393.067-.775.192-1.162.291-1.232.078-2.464.156-3.696.234-1.226-.023-2.453-.045-3.679-.068-1.287-.153-2.574-.307-3.861-.46-.751-.162-1.503-.321-2.253-.486-.48-.105-.958-.217-1.437-.326-.694-.219-1.388-.437-2.082-.656-.537-.214-1.074-.428-1.611-.642-1.213-.565-2.426-1.132-3.641-1.694-.066-.031-.15-.023-.226-.033-.531-.325-1.052-.666-1.596-.967-.287-.159-.614-.246-.923-.366-.125-.527-.677-.512-1.002-.786-.863-.668-1.713-1.353-2.592-1.999-.477-.351-.877-.841-1.516-.935,0,0,.023-.061.022-.06-.147-.211-.268-.449-.445-.63-.652-.668-1.32-1.321-1.989-1.972-.416-.405-.847-.795-1.271-1.192,0,0-.018-.041-.018-.04-.083-.162-.144-.341-.252-.486-.887-1.193-1.782-2.38-2.674-3.568-.225-.326-.449-.653-.674-.979-.435-.8-.87-1.6-1.304-2.401-.072-.194-.133-.392-.217-.58-.467-1.042-.94-2.082-1.411-3.122-.091-.262-.18-.525-.273-.787-.213-.594-.427-1.187-.641-1.781-.12-.428-.24-.856-.36-1.283-.022-.154-.034-.31-.068-.462-.241-1.092-.487-2.183-.731-3.275-.046-.173-.118-.344-.132-.52-.063-.758-.104-1.518-.164-2.276-.027-.34-.081-.679-.123-1.018-.016-1.277-.032-2.554-.048-3.83.04-.98.14-1.954.285-2.924.046-.305.023-.621.031-.932.054-.118.136-.231.159-.355.203-1.072.395-2.146.59-3.22.189-.782.379-1.564.568-2.346.162-.537.324-1.073.486-1.61.173-.414.339-.831.522-1.24.343-.769.696-1.534,1.044-2.3.178-.295.385-.577.528-.888,1.052-2.279,2.467-4.327,3.997-6.303.119-.146.238-.291.357-.437.15-.2.301-.401.451-.601.909-.991,1.818-1.982,2.727-2.973.157-.114.314-.228.471-.342.222-.154.5-.262.489-.604.12-.043.26-.06.355-.134.923-.721,1.802-1.505,2.764-2.169,1.446-.998,2.947-1.914,4.425-2.865.062-.042.125-.084.187-.127,0,0,.002.002.002.002.59-.263,1.185-.514,1.768-.792.435-.207.853-.45,1.279-.676.204-.065.408-.129.613-.194,1.289-.427,2.577-.855,3.866-1.282.103-.016.207-.026.308-.049,1.126-.251,2.251-.504,3.376-.756,1.237-.166,2.474-.333,3.71-.499,1.279-.029,2.559-.059,3.838-.088l3.688.309c.113.045.225.124.341.131,1.099.062,2.175.244,3.227.573.137.043.298.007.448.007,1.23.354,2.461.709,3.691,1.063.158.067.314.143.476.2.863.305,1.728.606,2.593.908.101.06.203.119.304.179.222.13.44.268.667.388,1.173.62,2.349,1.235,3.524,1.851.581.379,1.162.759,1.744,1.138.504.399.997.815,1.518,1.19.221.159.501.235.755.348.078.003.181.039.23.003.691-.514,1.374-1.038,2.059-1.559.452-.282.974-.468,1.274-.952.128-.021.274-.008.38-.067,1.105-.609,2.203-1.23,3.303-1.848l2.174-.995,1.51-.652c1.283-.384,2.565-.768,3.848-1.151.746-.117,1.494-.217,2.236-.357.604-.114,1.198-.276,1.797-.416,1.222-.087,2.444-.174,3.665-.261l3.725.056c.46.066.921.131,1.381.199.331.049.661.11.994.149.487.057.976.1,1.464.149.258.034.518.056.773.105.925.177,1.848.364,2.772.547.114.059.222.135.342.173,1.221.384,2.444.763,3.666,1.142.352.135.704.27,1.056.406.873.399,1.746.798,2.619,1.196,1.286.755,2.572,1.509,3.858,2.264.157.102.313.205.47.307.765.585,1.531,1.171,2.313,1.769.347-.298.643-.552.939-.806.43-.323.861-.646,1.291-.97.851-.534,1.703-1.068,2.554-1.602.219-.092.444-.174.658-.279,1.347-.66,2.674-1.367,4.044-1.975.917-.407,1.894-.677,2.844-1.009.542-.162,1.08-.336,1.626-.484.671-.182,1.348-.342,2.022-.511,1.357-.186,2.676-.626,4.064-.605.737-.06,1.474-.127,2.211-.177.502-.035,1.006-.046,1.51-.068.289.017.577.031.866.051.935.066,1.869.134,2.804.201,1.218.154,2.436.308,3.654.462,1.299.326,2.597.652,3.896.979,1.232.441,2.464.882,3.696,1.323.16.039.319.078.479.116,1.121.557,2.242,1.114,3.362,1.672.091.091.169.204.276.268.983.592,1.971,1.176,2.958,1.763.688.556,1.376,1.111,2.042,1.65.311-.219.554-.37.775-.549.623-.504,1.237-1.02,1.855-1.531.095-.026.202-.033.285-.081,1.078-.631,2.153-1.269,3.228-1.904.968-.465,1.937-.929,2.905-1.394.316-.126.633-.251.949-.377,1.236-.41,2.472-.819,3.709-1.229,1.228-.282,2.456-.564,3.684-.846,1.29-.159,2.579-.318,3.869-.477,1.281-.034,2.561-.068,3.842-.102.098.029.194.076.294.084,1.128.083,2.257.16,3.385.238.274.042.548.08.821.126,1.017.17,2.034.343,3.051.515.364.121.725.253,1.093.362.864.255,1.731.498,2.596.747.989.459,1.999.858,3.066,1.1.208.119.417.237.625.356.344.183.689.362,1.031.548,1,.546,1.998,1.094,2.996,1.641.534.335,1.068.67,1.601,1.004.696.505,1.391,1.009,2.087,1.514.835.722,1.67,1.445,2.504,2.167.398.389.796.777,1.193,1.166.729.842,1.457,1.683,2.186,2.525.493.647.986,1.293,1.479,1.94.434.644.867,1.287,1.301,1.931.101.207.196.418.305.621.752,1.406,1.544,2.792,2.248,4.221.419.851.702,1.768,1.046,2.656.095.314.186.63.285.943.291.923.586,1.846.879,2.769.136.895.262,1.791.413,2.683.067.395.183.782.277,1.173l.324,2.557c.012.373.024.745.037,1.118-.008,1.282-.015,2.564-.023,3.846-.092.46-.21.916-.268,1.38-.085.672-.132,1.35-.179,2.026-.006.089.081.184.125.276-.101.167-.245.321-.295.502-.122.445-.215.899-.293,1.354-.117.679-.211,1.362-.315,2.044ZM61.749,80.309c-.703-.242-1.405-.485-2.108-.727-.494-.14-.981-.326-1.484-.411-.837-.141-1.639-.527-2.52-.386-1.203-.254-2.413-.458-3.649-.427-1.249.028-2.498.055-3.747.083-1.235.197-2.47.395-3.705.592-.866.195-1.741.359-2.595.597-.54.151-1.049.411-1.573.623-.743.267-1.503.497-2.224.813-.524.229-.999.572-1.495.864-1.269.62-2.463,1.357-3.553,2.259l-.284.176c-.112.071-.23.133-.335.214-1.69,1.297-3.242,2.746-4.609,4.376-.731.871-1.339,1.844-2.003,2.772-.206.329-.413.659-.619.988-.532.962-1.065,1.923-1.597,2.885-.314.662-.659,1.312-.932,1.991-.242.601-.403,1.234-.6,1.852-.194.694-.388,1.388-.582,2.082-.131.651-.262,1.301-.394,1.952-.111,1.177-.223,2.354-.334,3.531.003,1.331.006,2.662.008,3.993-.012.129-.047.26-.031.385.105.783.221,1.565.333,2.347.096.271.193.541.289.812.009.157.018.314.027.471.031.17.063.339.094.509l.821,2.869c.449,1.402.996,2.761,1.777,4.016.377.639.754,1.278,1.131,1.917l1.122,1.77c.815,1.153,1.661,2.28,2.738,3.209.207.217.415.435.622.652,1.027.897,2.054,1.794,3.081,2.69.104.064.208.128.313.191.478.321.957.641,1.435.962l2.088,1.296c.875.457,1.74.933,2.63,1.36.387.185.823.268,1.236.397l-.015-.009.174.127c.54.161,1.08.321,1.619.482.282.104.556.234.846.306.512.126,1.034.216,1.551.321.639.119,1.275.262,1.918.349.541.073,1.091.082,1.637.12,1.229.023,2.459.047,3.688.07.707-.006,1.417.03,2.119-.031.584-.051,1.158-.215,1.736-.328,1.083-.23,2.166-.459,3.25-.689.2-.083.401-.165.601-.248,1.295-.252,2.499-.758,3.686-1.313.077-.006.167.012.229-.022,1.303-.703,2.615-1.389,3.896-2.13.61-.353,1.157-.815,1.802-1.277-.661-.821-1.266-1.574-1.872-2.327-.109-.164-.218-.328-.326-.492-.739-1.282-1.477-2.564-2.216-3.846-.344-.737-.677-1.478-1.036-2.208-.122-.248-.307-.464-.464-.695-.078-.269.013-.605-.307-.78,0-.107.026-.222-.005-.319-.38-1.176-.769-2.349-1.156-3.523-.018-.156-.022-.315-.056-.468-.246-1.132-.497-2.262-.747-3.393-.101-.79-.208-1.58-.302-2.371-.058-.493-.096-.989-.144-1.483-.004-1.226-.009-2.453-.013-3.679.096-1.228.192-2.457.288-3.685.058-.171.139-.338.168-.514.129-.781.242-1.565.362-2.348.051-.329.105-.657.158-.985.041-.031.106-.055.118-.094.366-1.197.727-2.397,1.088-3.595.229-.594.457-1.188.686-1.782.308-.706.616-1.412.924-2.118.33-.6.662-1.199.989-1.8.287-.526.569-1.055.853-1.583.374-.569.749-1.139,1.123-1.708.566-.74,1.133-1.479,1.695-2.223.019-.025-.018-.092-.028-.14-.434-.675-1.173-.948-1.806-1.361-.652-.399-1.288-.829-1.961-1.189-.622-.332-1.284-.588-1.928-.878-.43-.159-.86-.317-1.29-.476-.103-.071-.206-.142-.309-.213Zm12.495,10.772c-.165.22-.329.44-.494.659-1.041,1.183-1.68,2.597-2.306,4.018-.246.587-.491,1.174-.737,1.761-.422.634-.57,1.36-.712,2.089-.457,1.189-.716,2.427-.904,3.682-.378,1.26-.434,2.554-.4,3.857.019,1.24.038,2.48.057,3.72-.087.356-.114.682.016,1.066.161.478.115,1.021.208,1.528.076.417.223.822.339,1.232.27,1.127.54,2.254.81,3.381.114.572.305,1.112.638,1.596.338.905.632,1.829,1.217,2.62.69,1.62,1.679,3.056,2.729,4.45.575.016.649-.466.858-.806.066-.041.155-.065.194-.124.755-1.146,1.603-2.24,2.027-3.573.328-.693.656-1.387.983-2.08.342-.542.639-1.101.629-1.768.588-1.217.867-2.523,1.107-3.84.071-.458.153-.915.212-1.375.099-.775.184-1.553.275-2.329.057-1.065.124-2.13.163-3.196.008-.215-.089-.433-.138-.65.004-.593.17-1.198-.147-1.768-.045-.081-.004-.207-.016-.311-.061-.539-.126-1.078-.19-1.617-.146-1.321-.534-2.583-.947-3.839-.316-.857-.631-1.714-.947-2.571-.175-.424-.35-.848-.526-1.272-.705-1.283-1.409-2.567-2.123-3.845-.025-.045-.146-.035-.223-.051-.196-.63-.521-1.153-1.165-1.509-.19.338-.339.603-.488.868Zm6.734-6.882c-.396.02-.388.236-.204.479.427.563.875,1.111,1.314,1.665.436.64.872,1.28,1.309,1.92.471.905.933,1.814,1.415,2.712.218.406.476.791.716,1.186.353.897.703,1.795,1.063,2.689.124.308.274.605.412.906.373,1.239.746,2.478,1.12,3.717.1.585.197,1.17.301,1.754.134.759.274,1.516.411,2.274.081.633.163,1.265.244,1.898.033.482.065.964.098,1.445-.025,1.438-.05,2.875-.075,4.313-.072.223-.188.441-.208.668-.078.898-.127,1.799-.186,2.699,0,0,.009.003.009.003-.037.058-.074.116-.111.174-.092.517-.178,1.035-.276,1.55-.136.715-.28,1.429-.42,2.143-.311.869-.629,1.736-.93,2.609-.122.355-.208.723-.31,1.085-.326.8-.651,1.6-.977,2.401-.226.424-.452.848-.678,1.272-.779,1.335-1.558,2.67-2.337,4.005-.182.271-.364.542-.546.813-.537.658-1.109,1.291-1.55,2.095.534.346,1.007.661,1.488.963,1.263.795,2.51,1.62,3.912,2.165,1.19.614,2.402,1.176,3.713,1.492.425.12.85.239,1.275.359.86.198,1.721.396,2.581.594.193.064.383.173.579.186,1.088.069,2.178.114,3.268.167,1.235-.011,2.47-.022,3.705-.033,1.294-.043,2.57-.226,3.835-.494.486-.142.972-.285,1.459-.427.802-.22,1.603-.44,2.405-.661,1.321-.34,2.532-.94,3.729-1.571.614-.33,1.242-.638,1.839-.997.457-.275.876-.613,1.312-.923l.523-.307c.286-.199.572-.398.911-.634-.339-.379-.611-.683-.882-.986-.489-.713-.978-1.427-1.467-2.14-1.215-1.97-2.361-3.976-3.239-6.125-.174-.425-.436-.813-.657-1.219-.374-1.234-.748-2.469-1.122-3.703-.045-.17-.099-.338-.133-.51-.217-1.1-.434-2.2-.644-3.301-.116-.612-.236-1.225-.321-1.841-.086-.622-.13-1.249-.193-1.874.017-1.283.034-2.566.05-3.849.038-.314.089-.626.111-.941.065-.918.119-1.837.178-2.756.009-.104.018-.209.027-.313.042-.062.109-.119.122-.187.218-1.115.43-2.231.643-3.347.06-.173.127-.345.178-.521.309-1.062.615-2.125.922-3.188.512-1.208,1.024-2.417,1.536-3.625.154-.333.307-.667.461-1,.549-.942,1.099-1.884,1.648-2.826.434-.634.87-1.266,1.3-1.902.206-.305.401-.618.6-.927.242-.273.517-.523.715-.824.19-.289-.018-.429-.299-.477-.103-.072-.216-.132-.307-.216-1.176-1.078-2.581-1.783-4.005-2.458-.735-.484-1.541-.798-2.394-.998-.374-.155-.749-.311-1.123-.466-.26-.108-.513-.247-.783-.317-1.029-.266-2.064-.51-3.097-.762-.485-.086-.968-.189-1.456-.253-.796-.104-1.595-.181-2.392-.269l-3.709-.067c-1.286.058-2.569.142-3.829.428-.223.04-.449.066-.667.121-1.015.258-2.028.525-3.041.788-.851.133-1.657.398-2.418.802-.48.227-.96.454-1.44.681-1.479.491-2.754,1.346-4.006,2.242-.334.256-.668.511-1.002.767Zm121.959,53.254c.111-.001.221-.003.331-.004.212-.083.425-.165.637-.25,1.01-.406,2.104-.596,3.048-1.176,1.338-.437,2.53-1.154,3.695-1.923.32-.211.64-.421.96-.632.946-.717,1.894-1.432,2.836-2.155.05-.038.048-.144.071-.218.663-.24,1.01-.829,1.455-1.311.811-.902,1.622-1.805,2.433-2.707.257-.324.515-.648.772-.973.691-1.085,1.388-2.166,2.067-3.257.107-.172.137-.392.203-.589.34-.697.68-1.394,1.02-2.091.228-.525.537-1.023.534-1.623.626-1.208.933-2.511,1.142-3.842.109-.603.232-1.203.322-1.808.102-.684.175-1.372.261-2.058.014-1.277.028-2.553.042-3.83-.046-.517-.074-1.036-.143-1.55-.098-.72-.227-1.436-.342-2.154-.036-.359-.026-.729-.117-1.073-.248-.931-.539-1.85-.813-2.774-.21-.897-.476-1.773-.97-2.563-.165-.426-.33-.853-.495-1.279-.467-1.344-1.223-2.528-2.04-3.678-.49-.675-.981-1.35-1.471-2.025-.533-.615-1.066-1.231-1.599-1.846-.687-.706-1.375-1.411-2.062-2.117-.619-.476-1.239-.953-1.859-1.429-.658-.493-1.316-.987-1.975-1.48-1.175-.657-2.349-1.317-3.528-1.966-.109-.06-.256-.054-.385-.078-.535-.211-1.071-.422-1.606-.632-.608-.512-1.41-.496-2.104-.773-1.332-.311-2.665-.621-3.997-.932-.497-.022-.996-.028-1.491-.071-.723-.064-1.443-.155-2.165-.234-1.248.033-2.497.065-3.745.098-1.213.181-2.426.362-3.64.543-.106.003-.217-.014-.317.011-1.861.47-3.682,1.053-5.454,1.799-.762.321-1.519.629-2.166,1.156-1.284.591-2.472,1.332-3.552,2.244-.422.07-.366.282-.165.543.334.434.673.865.996,1.307.531.727,1.05,1.463,1.574,2.195.363.587.725,1.174,1.088,1.761.335.696.669,1.391,1.004,2.087.295.734.582,1.471.888,2.199.218.517.462,1.023.695,1.534.251.895.514,1.788.75,2.687.21.8.408,1.603.579,2.412.168.8.295,1.609.44,2.413l.366,3.657c-.026,1.28-.052,2.56-.079,3.84-.144,1.28-.289,2.561-.433,3.841-.18.961-.36,1.922-.54,2.884-.073.107-.179.205-.215.323-.17.566-.314,1.14-.479,1.708-.255.88-.52,1.758-.78,2.637-.19.426-.367.859-.574,1.278-.324.656-.674,1.3-.997,1.956-.066.135-.064.304-.093.457-.164.311-.328.622-.493.932-.581.921-1.162,1.843-1.743,2.764,0,0,.006.011.006.011-.044.05-.088.101-.132.151-.666.92-1.332,1.84-2.015,2.782.541.435.97.929,1.631,1.089.763.465,1.526.93,2.289,1.395.819.438,1.624.905,2.463,1.303.485.23,1.024.349,1.538.518.522.406,1.161.467,1.776.598.691.399,1.458.488,2.232.552,1.145.435,2.364.407,3.554.566,1.283.008,2.567.016,3.85.024.6,0,1.205.043,1.799-.015.586-.058,1.162-.221,1.742-.337.433-.047.875-.052,1.295-.15.802-.189,1.592-.431,2.387-.651Zm-79.003-45.644c-.026-.025-.056-.038-.092-.038-.183-.645-.642-1.105-1.094-1.741-.412.624-.766,1.158-1.12,1.693-.636.878-1.251,1.768-1.609,2.806-.35.34-.595.735-.645,1.232-.414.9-.848,1.792-1.232,2.705-.128.303-.129.659-.188.99-.053.104-.106.208-.16.312-.038.057-.077.114-.115.171-.056.259-.096.523-.172.776-.239.796-.503,1.586-.505,2.431-.089.375-.227.746-.258,1.126-.073.912-.382,1.81-.176,2.74-.01,1.277-.019,2.554-.029,3.831.161,1.181.323,2.361.484,3.542l.116.19-.009-.025c.154,1.351.479,2.653,1.103,3.871.259,1.207.777,2.306,1.417,3.352.123.216.247.432.37.648.016.103.006.22.052.307.588,1.107,1.202,2.199,2.003,3.172.151.276.302.551.458.838.561,0,.745-.43.982-.796.141-.21.282-.419.422-.629.597-1.002,1.194-2.003,1.79-3.005l1.669-3.927c.162-.582.325-1.164.487-1.746.158-.595.316-1.19.474-1.785.083-.616.163-1.232.25-1.847.101-.715.209-1.429.314-2.143.024-1.29.049-2.58.073-3.87-.011-.313.003-.63-.038-.939-.122-.914-.267-1.826-.402-2.738-.047-.219-.098-.436-.139-.656-.119-.636-.222-1.275-.359-1.907-.027-.125-.176-.224-.268-.335-.072-.316-.143-.632-.215-.947.007-.103.048-.218.015-.306-.42-1.128-.847-2.253-1.287-3.372-.037-.094-.188-.143-.287-.213-.016-.156.017-.34-.055-.463-.612-1.048-1.243-2.084-1.868-3.124-.053-.06-.107-.12-.16-.179Zm7.196-9.196c-.799.503-1.601,1.001-2.393,1.515-.153.099-.293.26-.067.445.604.862,1.203,1.726,1.813,2.583.194.272.416.524.625.785.054.101.107.201.161.302.695,1.29,1.391,2.581,2.086,3.871.119.318.215.647.361.953.997,2.099,1.668,4.309,2.271,6.544.213,1.183.426,2.365.64,3.548.051.69.101,1.381.152,2.071.04.11.08.221.12.331l.183,1.598c-.048,1.233-.096,2.465-.145,3.698-.04.549-.07,1.099-.124,1.647-.067.67-.154,1.338-.233,2.007-.039.045-.078.091-.116.136.042.021.084.042.125.062,0,0-.007.002-.007.002-.099.396-.199.791-.296,1.187-.204.834-.407,1.669-.61,2.503-.048.203-.088.408-.144.608-.242.861-.488,1.722-.733,2.582-.054.104-.108.209-.162.313-.587,1.34-1.174,2.681-1.76,4.021-.533.908-1.066,1.815-1.6,2.723l-.682,1.119c-.693.927-1.385,1.853-2.115,2.83.533.367,1.027.707,1.522,1.048.482.295.964.59,1.446.885,1.103.704,2.25,1.322,3.497,1.738.244.137.477.304.735.407,1.869.744,3.808,1.232,5.78,1.616.416.081.813.138,1.228.1,1.18.076,2.36.152,3.54.228,1.346.081,2.689.102,4.016-.206,1.266-.04,2.501-.255,3.708-.637.481.116.867-.145,1.276-.317.859-.311,1.717-.623,2.576-.934,1.362-.429,2.672-.968,3.846-1.797l1.454-.935c.677-.283,1.254-.712,1.855-1.161-.311-.457-.556-.856-.839-1.226-.47-.615-.964-1.211-1.448-1.815-.271-.474-.543-.948-.814-1.422-.427-.754-.854-1.508-1.281-2.262-.594-1.277-1.189-2.554-1.783-3.831-.272-.857-.544-1.713-.816-2.57-.122-.374-.244-.748-.366-1.122.003-.131.035-.269.006-.393-.261-1.095-.533-2.188-.802-3.282.014-.077.051-.159.039-.232-.101-.602-.296-1.202-.296-1.803,0-.616-.01-1.225-.091-1.835-.01-1.274-.02-2.547-.03-3.821.018-.131.049-.262.052-.393.014-.641.005-1.283.033-1.923.02-.467.085-.932.131-1.398.062-.275.126-.55.186-.826.049-.224.094-.45.14-.674.16-.778.319-1.557.478-2.335l.531-2.08c.215-.59.431-1.18.646-1.771.479-1.175.958-2.35,1.437-3.525.098-.154.205-.304.292-.464.532-.983,1.001-2.006,1.601-2.945.868-1.359,1.704-2.746,2.801-3.948.249-.273.116-.483-.201-.6-.962-.625-1.924-1.25-2.886-1.875-.663-.36-1.303-.773-1.993-1.069-1.125-.482-2.272-.916-3.429-1.314-.752-.258-1.539-.416-2.31-.619-.082-.054-.159-.137-.248-.156-.61-.127-1.22-.265-1.836-.351-.534-.075-1.076-.087-1.615-.127-.115-.059-.229-.165-.346-.17-1.163-.047-2.326-.078-3.489-.113-1.239.098-2.479.197-3.718.295-1.324.061-2.606.337-3.863.743-.909.295-1.818.589-2.727.884-.376.134-.751.267-1.127.401-1.228.604-2.456,1.209-3.684,1.813-.053.045-.106.091-.159.136Zm33.618,21.014c-.069.696-.135,1.392-.208,2.087-.016.155-.072.307-.079.461-.012.281,0,.562,0,.844-.02,1.248-.041,2.497-.056,3.745,0,.037.067.075.103.112-.011,1.133.232,2.236.395,3.349.087.378.174.755.26,1.133.281,1.082.465,2.194.998,3.197.001.106-.032.228.009.316.517,1.131,1.044,2.257,1.568,3.384.375.639.751,1.278,1.126,1.917.44.693.88,1.386,1.32,2.079.129.206.259.413.423.675.175-.239.336-.458.496-.677.896-.996,1.566-2.136,2.129-3.344.093-.169.187-.337.28-.506.068-.111.15-.216.201-.334.497-1.153.988-2.308,1.481-3.462.252-.793.521-1.581.749-2.381.142-.498.22-1.014.327-1.522.106-.581.243-1.158.311-1.743.081-.696.104-1.399.151-2.099.051-.09.144-.178.148-.269.046-1.198.328-2.397.007-3.596-.156-1.226-.312-2.451-.469-3.677-.044-.361-.047-.733-.139-1.081-.247-.934-.532-1.858-.802-2.786-.35-1.331-.761-2.639-1.466-3.834-.311-.599-.622-1.197-.933-1.796-.37-.639-.74-1.279-1.111-1.918-.404-.6-.808-1.2-1.294-1.922-.448.677-.81,1.222-1.171,1.767-.24.376-.48.752-.72,1.127-.469.896-.939,1.792-1.408,2.688-.351.737-.737,1.46-1.04,2.216-.217.542-.539,1.064-.506,1.686-.25.75-.5,1.5-.751,2.25-.039.199-.082.397-.116.596-.074.439-.143.88-.213,1.32Z" fill="#010101"/></svg>