<svg width="120" height="120" viewBox="0 0 120 120" fill="none" xmlns="http://www.w3.org/2000/svg">
<g clip-path="url(#clip0)">
<path d="M16.3351 105.5C16.8777 104.62 31.4832 75 31.4832 75M41.1775 105.5C41.7201 104.62 56.3255 75 56.3255 75M65.7081 105.5C66.2507 104.62 80.8561 75 80.8561 75" stroke="#51C2F0" stroke-width="8" stroke-linecap="round" stroke-linejoin="round"/>
<mask id="path-3-outside-1" maskUnits="userSpaceOnUse" x="-1" y="3" width="112" height="68" fill="black">
<rect fill="white" x="-1" y="3" width="112" height="68"/>
<path d="M31.6001 31C34.3797 17.3066 46.4863 7 61 7C75.533 7 87.6524 17.3339 90.4109 31.0545C99.6926 31.7741 107 39.5337 107 49C107 58.9411 98.9411 67 89 67H21C11.0589 67 3 58.9411 3 49C3 39.0589 11.0589 31 21 31H31.6001Z"/>
</mask>
<path d="M31.6001 31C34.3797 17.3066 46.4863 7 61 7C75.533 7 87.6524 17.3339 90.4109 31.0545C99.6926 31.7741 107 39.5337 107 49C107 58.9411 98.9411 67 89 67H21C11.0589 67 3 58.9411 3 49C3 39.0589 11.0589 31 21 31H31.6001Z" fill="#AAAAAA"/>
<path d="M31.6001 31C34.3797 17.3066 46.4863 7 61 7C75.533 7 87.6524 17.3339 90.4109 31.0545C99.6926 31.7741 107 39.5337 107 49C107 58.9411 98.9411 67 89 67H21C11.0589 67 3 58.9411 3 49C3 39.0589 11.0589 31 21 31H31.6001Z" stroke="white" stroke-width="8" mask="url(#path-3-outside-1)"/>
</g>
<defs>
<clipPath id="clip0">
<rect width="120" height="120" fill="white"/>
</clipPath>
</defs>
</svg>
