<svg width="120" height="120" viewBox="0 0 120 120" fill="none" xmlns="http://www.w3.org/2000/svg">
<path d="M27.7191 94.393C27.8863 94.1222 32.3843 85 32.3843 85M77.5592 94.8585C77.7264 94.5876 82.2244 85.4655 82.2244 85.4655M52.6392 94.6258C52.8063 94.3549 57.3043 85.2327 57.3043 85.2327" stroke="#51C2F0" stroke-width="8" stroke-linecap="round" stroke-linejoin="round"/>
<mask id="path-3-outside-1" maskUnits="userSpaceOnUse" x="10" y="9" width="95" height="66" fill="black">
<rect fill="white" x="10" y="9" width="95" height="66"/>
<path d="M72.2098 70.9981C88.1413 70.8171 101 57.9035 101 42C101 25.9837 87.9583 13 71.8705 13C57.7779 13 46.0227 22.963 43.3238 36.2H31.4C21.7902 36.2 14 43.9902 14 53.6C14 63.2098 21.7902 71 31.4 71H71.9482C72.0356 71 72.1228 70.9994 72.2098 70.9981Z"/>
</mask>
<path d="M72.2098 70.9981C88.1413 70.8171 101 57.9035 101 42C101 25.9837 87.9583 13 71.8705 13C57.7779 13 46.0227 22.963 43.3238 36.2H31.4C21.7902 36.2 14 43.9902 14 53.6C14 63.2098 21.7902 71 31.4 71H71.9482C72.0356 71 72.1228 70.9994 72.2098 70.9981Z" fill="#AAAAAA"/>
<path d="M72.2098 70.9981C88.1413 70.8171 101 57.9035 101 42C101 25.9837 87.9583 13 71.8705 13C57.7779 13 46.0227 22.963 43.3238 36.2H31.4C21.7902 36.2 14 43.9902 14 53.6C14 63.2098 21.7902 71 31.4 71H71.9482C72.0356 71 72.1228 70.9994 72.2098 70.9981Z" stroke="white" stroke-width="8" mask="url(#path-3-outside-1)"/>
</svg>
