<svg width="120" height="120" viewBox="0 0 120 120" fill="none" xmlns="http://www.w3.org/2000/svg">
<g clip-path="url(#clip0)">
<mask id="path-2-outside-1" maskUnits="userSpaceOnUse" x="-1" y="0" width="112" height="68" fill="black">
<rect fill="white" x="-1" width="112" height="68"/>
<path d="M31.6001 28C34.3797 14.3066 46.4863 4 61 4C75.533 4 87.6524 14.3339 90.4109 28.0545C99.6926 28.7741 107 36.5337 107 46C107 55.9411 98.9411 64 89 64H21C11.0589 64 3 55.9411 3 46C3 36.0589 11.0589 28 21 28H31.6001Z"/>
</mask>
<path d="M31.6001 28C34.3797 14.3066 46.4863 4 61 4C75.533 4 87.6524 14.3339 90.4109 28.0545C99.6926 28.7741 107 36.5337 107 46C107 55.9411 98.9411 64 89 64H21C11.0589 64 3 55.9411 3 46C3 36.0589 11.0589 28 21 28H31.6001Z" fill="#AAAAAA"/>
<path d="M31.6001 28C34.3797 14.3066 46.4863 4 61 4C75.533 4 87.6524 14.3339 90.4109 28.0545C99.6926 28.7741 107 36.5337 107 46C107 55.9411 98.9411 64 89 64H21C11.0589 64 3 55.9411 3 46C3 36.0589 11.0589 28 21 28H31.6001Z" stroke="white" stroke-width="8" mask="url(#path-2-outside-1)"/>
<mask id="path-3-outside-2" maskUnits="userSpaceOnUse" x="27" y="30" width="75" height="89" fill="black">
<rect fill="white" x="27" y="30" width="75" height="89"/>
<path fill-rule="evenodd" clip-rule="evenodd" d="M62.4459 35.2893C64.6514 37.1948 64.8864 40.518 62.9707 42.7118L47.8899 59.9828L80.9561 59.9828C82.9375 59.9828 84.7527 61.0843 85.6593 62.8368C86.566 64.5892 86.412 66.6987 85.2603 68.3025L77.0547 79.7297H92.7105C94.7479 79.7297 96.6043 80.8937 97.4829 82.7223C98.3615 84.5509 98.1061 86.7189 96.8264 88.2959L78.072 112.781C76.2372 115.042 72.907 115.396 70.6338 113.571C68.3607 111.746 68.0054 108.433 69.8402 106.172L81.6433 90.2527H69.4983L60.9006 101.796C59.2026 104.161 55.8991 104.709 53.522 103.02C51.1448 101.331 50.5942 98.0445 52.2922 95.6799L70.6777 70.5058L61.053 70.5058L47.5923 88.4186C45.6893 90.6233 42.3499 90.8761 40.1334 88.9832C37.9169 87.0904 37.6628 83.7686 39.5657 81.5638L48.1101 70.5058L36.2895 70.5058C34.2176 70.5058 32.3364 69.3025 31.4768 67.4272C30.6172 65.5519 30.9374 63.3501 32.2961 61.7941L54.9839 35.8113C56.8995 33.6175 60.2404 33.3838 62.4459 35.2893Z"/>
</mask>
<path fill-rule="evenodd" clip-rule="evenodd" d="M62.4459 35.2893C64.6514 37.1948 64.8864 40.518 62.9707 42.7118L47.8899 59.9828L80.9561 59.9828C82.9375 59.9828 84.7527 61.0843 85.6593 62.8368C86.566 64.5892 86.412 66.6987 85.2603 68.3025L77.0547 79.7297H92.7105C94.7479 79.7297 96.6043 80.8937 97.4829 82.7223C98.3615 84.5509 98.1061 86.7189 96.8264 88.2959L78.072 112.781C76.2372 115.042 72.907 115.396 70.6338 113.571C68.3607 111.746 68.0054 108.433 69.8402 106.172L81.6433 90.2527H69.4983L60.9006 101.796C59.2026 104.161 55.8991 104.709 53.522 103.02C51.1448 101.331 50.5942 98.0445 52.2922 95.6799L70.6777 70.5058L61.053 70.5058L47.5923 88.4186C45.6893 90.6233 42.3499 90.8761 40.1334 88.9832C37.9169 87.0904 37.6628 83.7686 39.5657 81.5638L48.1101 70.5058L36.2895 70.5058C34.2176 70.5058 32.3364 69.3025 31.4768 67.4272C30.6172 65.5519 30.9374 63.3501 32.2961 61.7941L54.9839 35.8113C56.8995 33.6175 60.2404 33.3838 62.4459 35.2893Z" fill="#F7DB53"/>
<path fill-rule="evenodd" clip-rule="evenodd" d="M62.4459 35.2893C64.6514 37.1948 64.8864 40.518 62.9707 42.7118L47.8899 59.9828L80.9561 59.9828C82.9375 59.9828 84.7527 61.0843 85.6593 62.8368C86.566 64.5892 86.412 66.6987 85.2603 68.3025L77.0547 79.7297H92.7105C94.7479 79.7297 96.6043 80.8937 97.4829 82.7223C98.3615 84.5509 98.1061 86.7189 96.8264 88.2959L78.072 112.781C76.2372 115.042 72.907 115.396 70.6338 113.571C68.3607 111.746 68.0054 108.433 69.8402 106.172L81.6433 90.2527H69.4983L60.9006 101.796C59.2026 104.161 55.8991 104.709 53.522 103.02C51.1448 101.331 50.5942 98.0445 52.2922 95.6799L70.6777 70.5058L61.053 70.5058L47.5923 88.4186C45.6893 90.6233 42.3499 90.8761 40.1334 88.9832C37.9169 87.0904 37.6628 83.7686 39.5657 81.5638L48.1101 70.5058L36.2895 70.5058C34.2176 70.5058 32.3364 69.3025 31.4768 67.4272C30.6172 65.5519 30.9374 63.3501 32.2961 61.7941L54.9839 35.8113C56.8995 33.6175 60.2404 33.3838 62.4459 35.2893Z" stroke="white" stroke-width="8" stroke-linecap="round" stroke-linejoin="round" mask="url(#path-3-outside-2)"/>
</g>
<defs>
<clipPath id="clip0">
<rect width="120" height="120" fill="white"/>
</clipPath>
</defs>
</svg>
