<svg width="120" height="120" viewBox="0 0 120 120" fill="none" xmlns="http://www.w3.org/2000/svg">
<path d="M16.3351 105.5C16.8777 104.62 31.4832 75 31.4832 75M43.1775 105.5C43.7201 104.621 58.3255 75.0001 58.3255 75.0001M69.7081 105.5C70.2507 104.621 84.8561 75.0001 84.8561 75.0001" stroke="#51C2F0" stroke-width="8" stroke-linecap="round" stroke-linejoin="round"/>
<mask id="path-3-outside-1" maskUnits="userSpaceOnUse" x="2" y="84" width="88" height="32" fill="black">
<rect fill="white" x="2" y="84" width="88" height="32"/>
<path fill-rule="evenodd" clip-rule="evenodd" d="M25.9658 95.9624L21.8441 96.3817L22.2634 92.0365C22.2634 89.8086 20.4525 88 18.2269 88C15.9944 88 14.1882 89.8086 14.1882 92.0365L14.6052 96.3817L10.0388 95.9624C7.80858 95.9624 6 97.7686 6 100.001C6 102.229 7.80858 104.038 10.0388 104.038L14.6052 103.618L14.1882 107.964C14.1882 110.194 15.9944 112 18.2269 112C20.4525 112 22.2634 110.194 22.2634 107.964L21.8441 103.618L25.9658 104.038C28.1937 104.038 30 102.229 30 100.001C30 97.7686 28.1937 95.9624 25.9658 95.9624Z"/>
<path fill-rule="evenodd" clip-rule="evenodd" d="M53.9658 95.9624L49.8441 96.3817L50.2634 92.0365C50.2634 89.8086 48.4525 88 46.2269 88C43.9944 88 42.1882 89.8086 42.1882 92.0365L42.6052 96.3817L38.0388 95.9624C35.8086 95.9624 34 97.7686 34 100.001C34 102.229 35.8086 104.038 38.0388 104.038L42.6052 103.618L42.1882 107.964C42.1882 110.194 43.9944 112 46.2269 112C48.4525 112 50.2634 110.194 50.2634 107.964L49.8441 103.618L53.9658 104.038C56.1937 104.038 58 102.229 58 100.001C58 97.7686 56.1937 95.9624 53.9658 95.9624Z"/>
<path fill-rule="evenodd" clip-rule="evenodd" d="M81.9658 95.9624L77.8441 96.3817L78.2634 92.0365C78.2634 89.8086 76.4525 88 74.2269 88C71.9944 88 70.1882 89.8086 70.1882 92.0365L70.6052 96.3817L66.0388 95.9624C63.8086 95.9624 62 97.7686 62 100.001C62 102.229 63.8086 104.038 66.0388 104.038L70.6052 103.618L70.1882 107.964C70.1882 110.194 71.9944 112 74.2269 112C76.4525 112 78.2634 110.194 78.2634 107.964L77.8441 103.618L81.9658 104.038C84.1937 104.038 86 102.229 86 100.001C86 97.7686 84.1937 95.9624 81.9658 95.9624Z"/>
</mask>
<path fill-rule="evenodd" clip-rule="evenodd" d="M25.9658 95.9624L21.8441 96.3817L22.2634 92.0365C22.2634 89.8086 20.4525 88 18.2269 88C15.9944 88 14.1882 89.8086 14.1882 92.0365L14.6052 96.3817L10.0388 95.9624C7.80858 95.9624 6 97.7686 6 100.001C6 102.229 7.80858 104.038 10.0388 104.038L14.6052 103.618L14.1882 107.964C14.1882 110.194 15.9944 112 18.2269 112C20.4525 112 22.2634 110.194 22.2634 107.964L21.8441 103.618L25.9658 104.038C28.1937 104.038 30 102.229 30 100.001C30 97.7686 28.1937 95.9624 25.9658 95.9624Z" fill="#51C2F0"/>
<path fill-rule="evenodd" clip-rule="evenodd" d="M53.9658 95.9624L49.8441 96.3817L50.2634 92.0365C50.2634 89.8086 48.4525 88 46.2269 88C43.9944 88 42.1882 89.8086 42.1882 92.0365L42.6052 96.3817L38.0388 95.9624C35.8086 95.9624 34 97.7686 34 100.001C34 102.229 35.8086 104.038 38.0388 104.038L42.6052 103.618L42.1882 107.964C42.1882 110.194 43.9944 112 46.2269 112C48.4525 112 50.2634 110.194 50.2634 107.964L49.8441 103.618L53.9658 104.038C56.1937 104.038 58 102.229 58 100.001C58 97.7686 56.1937 95.9624 53.9658 95.9624Z" fill="#51C2F0"/>
<path fill-rule="evenodd" clip-rule="evenodd" d="M81.9658 95.9624L77.8441 96.3817L78.2634 92.0365C78.2634 89.8086 76.4525 88 74.2269 88C71.9944 88 70.1882 89.8086 70.1882 92.0365L70.6052 96.3817L66.0388 95.9624C63.8086 95.9624 62 97.7686 62 100.001C62 102.229 63.8086 104.038 66.0388 104.038L70.6052 103.618L70.1882 107.964C70.1882 110.194 71.9944 112 74.2269 112C76.4525 112 78.2634 110.194 78.2634 107.964L77.8441 103.618L81.9658 104.038C84.1937 104.038 86 102.229 86 100.001C86 97.7686 84.1937 95.9624 81.9658 95.9624Z" fill="#51C2F0"/>
<path fill-rule="evenodd" clip-rule="evenodd" d="M25.9658 95.9624L21.8441 96.3817L22.2634 92.0365C22.2634 89.8086 20.4525 88 18.2269 88C15.9944 88 14.1882 89.8086 14.1882 92.0365L14.6052 96.3817L10.0388 95.9624C7.80858 95.9624 6 97.7686 6 100.001C6 102.229 7.80858 104.038 10.0388 104.038L14.6052 103.618L14.1882 107.964C14.1882 110.194 15.9944 112 18.2269 112C20.4525 112 22.2634 110.194 22.2634 107.964L21.8441 103.618L25.9658 104.038C28.1937 104.038 30 102.229 30 100.001C30 97.7686 28.1937 95.9624 25.9658 95.9624Z" stroke="white" stroke-width="8" mask="url(#path-3-outside-1)"/>
<path fill-rule="evenodd" clip-rule="evenodd" d="M53.9658 95.9624L49.8441 96.3817L50.2634 92.0365C50.2634 89.8086 48.4525 88 46.2269 88C43.9944 88 42.1882 89.8086 42.1882 92.0365L42.6052 96.3817L38.0388 95.9624C35.8086 95.9624 34 97.7686 34 100.001C34 102.229 35.8086 104.038 38.0388 104.038L42.6052 103.618L42.1882 107.964C42.1882 110.194 43.9944 112 46.2269 112C48.4525 112 50.2634 110.194 50.2634 107.964L49.8441 103.618L53.9658 104.038C56.1937 104.038 58 102.229 58 100.001C58 97.7686 56.1937 95.9624 53.9658 95.9624Z" stroke="white" stroke-width="8" mask="url(#path-3-outside-1)"/>
<path fill-rule="evenodd" clip-rule="evenodd" d="M81.9658 95.9624L77.8441 96.3817L78.2634 92.0365C78.2634 89.8086 76.4525 88 74.2269 88C71.9944 88 70.1882 89.8086 70.1882 92.0365L70.6052 96.3817L66.0388 95.9624C63.8086 95.9624 62 97.7686 62 100.001C62 102.229 63.8086 104.038 66.0388 104.038L70.6052 103.618L70.1882 107.964C70.1882 110.194 71.9944 112 74.2269 112C76.4525 112 78.2634 110.194 78.2634 107.964L77.8441 103.618L81.9658 104.038C84.1937 104.038 86 102.229 86 100.001C86 97.7686 84.1937 95.9624 81.9658 95.9624Z" stroke="white" stroke-width="8" mask="url(#path-3-outside-1)"/>
<mask id="path-4-outside-2" maskUnits="userSpaceOnUse" x="2" y="0" width="112" height="68" fill="black">
<rect fill="white" x="2" width="112" height="68"/>
<path d="M34.6001 28C37.3797 14.3066 49.4863 4 64 4C78.533 4 90.6524 14.3339 93.4109 28.0545C102.693 28.7741 110 36.5337 110 46C110 55.9411 101.941 64 92 64H24C14.0589 64 6 55.9411 6 46C6 36.0589 14.0589 28 24 28H34.6001Z"/>
</mask>
<path d="M34.6001 28C37.3797 14.3066 49.4863 4 64 4C78.533 4 90.6524 14.3339 93.4109 28.0545C102.693 28.7741 110 36.5337 110 46C110 55.9411 101.941 64 92 64H24C14.0589 64 6 55.9411 6 46C6 36.0589 14.0589 28 24 28H34.6001Z" fill="#AAAAAA"/>
<path d="M34.6001 28C37.3797 14.3066 49.4863 4 64 4C78.533 4 90.6524 14.3339 93.4109 28.0545C102.693 28.7741 110 36.5337 110 46C110 55.9411 101.941 64 92 64H24C14.0589 64 6 55.9411 6 46C6 36.0589 14.0589 28 24 28H34.6001Z" stroke="white" stroke-width="8" mask="url(#path-4-outside-2)"/>
</svg>
