<svg width="120" height="120" viewBox="0 0 120 120" fill="none" xmlns="http://www.w3.org/2000/svg">
<g clip-path="url(#clip0)">
<path d="M32.1143 88.2032C32.3995 87.741 40.076 72.1728 40.076 72.1728M16.2273 88.2032C16.5125 87.7409 24.189 72.1727 24.189 72.1727M48.0013 88.9977C48.2865 88.5354 55.963 72.9672 55.963 72.9672M63.9241 88.6005C64.2092 88.1383 71.8857 72.5701 71.8857 72.5701M79.811 88.6005C80.0962 88.1383 87.7727 72.5701 87.7727 72.5701" stroke="#51C2F0" stroke-width="8" stroke-linecap="round" stroke-linejoin="round"/>
<path d="M32.1143 111.031C32.3995 110.568 40.076 95.0001 40.076 95.0001M16.2273 111.03C16.5125 110.568 24.189 95 24.189 95M48.0013 111.825C48.2865 111.363 55.963 95.7945 55.963 95.7945M63.9241 111.428C64.2092 110.966 71.8857 95.3974 71.8857 95.3974M79.811 111.428C80.0962 110.966 87.7727 95.3974 87.7727 95.3974" stroke="#51C2F0" stroke-width="8" stroke-linecap="round" stroke-linejoin="round"/>
<mask id="path-4-outside-1" maskUnits="userSpaceOnUse" x="-1" y="0" width="112" height="68" fill="black">
<rect fill="white" x="-1" width="112" height="68"/>
<path d="M31.6001 28C34.3797 14.3066 46.4863 4 61 4C75.533 4 87.6524 14.3339 90.4109 28.0545C99.6926 28.7741 107 36.5337 107 46C107 55.9411 98.9411 64 89 64H21C11.0589 64 3 55.9411 3 46C3 36.0589 11.0589 28 21 28H31.6001Z"/>
</mask>
<path d="M31.6001 28C34.3797 14.3066 46.4863 4 61 4C75.533 4 87.6524 14.3339 90.4109 28.0545C99.6926 28.7741 107 36.5337 107 46C107 55.9411 98.9411 64 89 64H21C11.0589 64 3 55.9411 3 46C3 36.0589 11.0589 28 21 28H31.6001Z" fill="#AAAAAA"/>
<path d="M31.6001 28C34.3797 14.3066 46.4863 4 61 4C75.533 4 87.6524 14.3339 90.4109 28.0545C99.6926 28.7741 107 36.5337 107 46C107 55.9411 98.9411 64 89 64H21C11.0589 64 3 55.9411 3 46C3 36.0589 11.0589 28 21 28H31.6001Z" stroke="white" stroke-width="8" mask="url(#path-4-outside-1)"/>
</g>
<defs>
<clipPath id="clip0">
<rect width="120" height="120" fill="white"/>
</clipPath>
</defs>
</svg>
