<svg width="120" height="120" viewBox="0 0 120 120" fill="none" xmlns="http://www.w3.org/2000/svg">
<path d="M95.5864 35.6358C92.6983 37.0032 89.4805 37.7733 86.0801 37.7733C82.0669 37.7733 78.3022 36.71 75.0486 34.8506L73.5601 34L72.0716 34.8506C68.818 36.7099 65.0533 37.7733 61.0391 37.7733C57.0262 37.7733 53.2633 36.7101 50.0083 34.8505L48.5201 34.0002L47.0319 34.8505C43.7769 36.7101 40.014 37.7733 36.0001 37.7733C31.9986 37.7733 28.2491 36.7172 25 34.868M95.5864 83.6358C92.6983 85.0032 89.4805 85.7733 86.0801 85.7733C82.0669 85.7733 78.3022 84.71 75.0486 82.8506L73.5601 82L72.0716 82.8506C68.818 84.7099 65.0533 85.7733 61.0391 85.7733C57.0262 85.7733 53.2633 84.7101 50.0083 82.8505L48.5201 82.0002L47.0319 82.8505C43.7769 84.7101 40.014 85.7733 36.0001 85.7733C31.9986 85.7733 28.2491 84.7172 25 82.868M95.5864 59.6358C92.6983 61.0032 89.4805 61.7733 86.0801 61.7733C82.0669 61.7733 78.3022 60.71 75.0486 58.8506L73.5601 58L72.0716 58.8506C68.818 60.7099 65.0533 61.7733 61.0391 61.7733C57.0262 61.7733 53.2633 60.7101 50.0083 58.8505L48.5201 58.0002L47.0319 58.8505C43.7769 60.7101 40.014 61.7733 36.0001 61.7733C31.9986 61.7733 28.2491 60.7172 25 58.868" stroke="#51C2F0" stroke-width="9" stroke-linecap="round" stroke-linejoin="round"/>
</svg>
