<?xml version="1.0" encoding="UTF-8"?><svg id="OBJECTS" xmlns="http://www.w3.org/2000/svg" xmlns:xlink="http://www.w3.org/1999/xlink" viewBox="0 0 74.712 74.712"><defs><clipPath id="clippath"><rect x="-919.471" y="-467.588" width="800" height="800" fill="none"/></clipPath></defs><path d="m55.639,40.622l-7.037,1.796c-.089.021-.17.054-.248.09l-5.224-3.1,5.251-3.021c.076.041.157.072.244.094l7.012,1.894c.68.183,1.38-.22,1.562-.898.184-.678-.22-1.377-.897-1.56l-4.835-1.304,3.309-1.901c.609-.351.819-1.128.469-1.737-.35-.611-1.129-.822-1.738-.471l-3.307,1.901,1.303-4.832c.183-.68-.219-1.379-.896-1.561-.68-.184-1.379.218-1.56.898l-1.893,7.013c-.024.087-.038.175-.042.26l-5.231,3.009v-6.034c.073-.047.141-.103.204-.165l5.137-5.137c.498-.498.498-1.304,0-1.8-.497-.498-1.303-.498-1.801,0l-3.54,3.54v-3.817c0-.702-.57-1.271-1.273-1.271s-1.271.569-1.271,1.271v3.817l-3.541-3.54c-.496-.498-1.302-.498-1.801,0-.495.496-.495,1.302,0,1.8l5.136,5.137c.064.062.133.118.206.165v5.999l-5.158-3.062c-.006-.085-.017-.173-.041-.26l-1.794-7.039c-.174-.68-.868-1.091-1.548-.918-.682.175-1.095.868-.919,1.548l1.237,4.851-3.282-1.947c-.605-.359-1.387-.158-1.745.446-.357.604-.159,1.386.446,1.744l3.28,1.948-4.85,1.237c-.682.174-1.093.866-.918,1.548.173.68.864,1.093,1.547.918l7.039-1.794c.086-.023.169-.052.247-.092l5.207,3.093-5.267,3.027c-.077-.039-.159-.072-.245-.095l-7.013-1.892c-.678-.184-1.378.217-1.562.896-.183.678.219,1.378.896,1.562l4.834,1.302-3.291,1.892c-.607.353-.819,1.131-.47,1.738.353.612,1.129.82,1.739.471l3.291-1.894-1.304,4.834c-.184.678.219,1.379.898,1.561.678.183,1.377-.219,1.561-.898l1.892-7.012c.023-.088.037-.176.042-.261l5.248-3.019v6.054c-.073.047-.142.104-.206.167l-5.136,5.135c-.495.498-.495,1.304,0,1.802.499.496,1.305.496,1.801,0l3.541-3.539v3.796c0,.701.569,1.273,1.271,1.273s1.273-.572,1.273-1.273v-3.796l3.54,3.539c.498.496,1.304.496,1.801,0,.498-.498.498-1.304,0-1.802l-5.137-5.135c-.063-.064-.131-.12-.204-.167v-6.017l5.176,3.072c.003.085.016.173.038.26l1.796,7.036c.174.684.866,1.096,1.547.921.682-.173,1.093-.866.918-1.548l-1.236-4.852,3.267,1.939c.603.359,1.386.158,1.744-.444.358-.606.159-1.388-.445-1.745l-3.267-1.938,4.851-1.238c.683-.173,1.092-.866.919-1.548-.173-.68-.868-1.092-1.548-.919Z" fill="#97f2f2"/></svg>