<?xml version="1.0" encoding="utf-8"?>
<!-- Generator: Adobe Illustrator 16.0.0, SVG Export Plug-In . SVG Version: 6.00 Build 0)  -->
<!DOCTYPE svg PUBLIC "-//W3C//DTD SVG 1.1//EN" "http://www.w3.org/Graphics/SVG/1.1/DTD/svg11.dtd">
<svg version="1.1" id="Layer_1" xmlns="http://www.w3.org/2000/svg" xmlns:xlink="http://www.w3.org/1999/xlink" x="0px" y="0px"
	 width="128px" height="128px" viewBox="0 0 128 128" enable-background="new 0 0 128 128" xml:space="preserve">
<g>
	<g>
		<g>
			
				<rect x="88.341" y="17.68" transform="matrix(0.9775 0.2107 -0.2107 0.9775 7.0891 -18.4997)" fill="#282D33" width="4.018" height="12.669"/>
		</g>
		<g>
			
				<rect x="63.605" y="23.354" transform="matrix(0.3043 0.9526 -0.9526 0.3043 72.8156 -48.9765)" fill="#282D33" width="12.666" height="4.018"/>
		</g>
		<g>
			
				<rect x="46.612" y="34.771" transform="matrix(0.7392 0.6735 -0.6735 0.7392 38.5748 -26.0571)" fill="#282D33" width="12.641" height="4.019"/>
		</g>
		<g>
			<path fill="none" stroke="#282D33" stroke-width="4" d="M37.72,53.869"/>
		</g>
		<g>
			
				<rect x="106.045" y="87.1" transform="matrix(0.7391 0.6736 -0.6736 0.7391 89.3312 -52.4389)" fill="#282D33" width="12.641" height="4.018"/>
		</g>
		<g>
			
				<rect x="115.1" y="68.673" transform="matrix(0.9772 0.2125 -0.2125 0.9772 17.7962 -24.1888)" fill="#282D33" width="12.617" height="4.017"/>
		</g>
		<g>
			
				<rect x="118.059" y="43.868" transform="matrix(0.3065 0.9519 -0.9519 0.3065 131.0296 -79.4892)" fill="#282D33" width="4.018" height="12.623"/>
		</g>
		<g>
			
				<rect x="106.69" y="26.775" transform="matrix(0.7422 0.6702 -0.6702 0.7422 50.2113 -64.319)" fill="#282D33" width="4.019" height="12.648"/>
		</g>
	</g>
	<g>
		<path fill="#282D33" d="M94.467,89.071l-1.672-3.652c8.753-4.003,14.407-12.824,14.407-22.477
			c0-13.604-11.016-24.671-24.556-24.671c-9.563,0-18.328,5.646-22.325,14.385l-3.653-1.672c4.649-10.163,14.848-16.73,25.979-16.73
			c15.755,0,28.573,12.87,28.573,28.688C111.22,74.162,104.644,84.418,94.467,89.071z"/>
	</g>
	<g>
		<path fill="#282D33" d="M93.46,110.602H18.509C8.303,110.602,0,102.265,0,92.017c0-8.853,6.185-16.376,14.649-18.175
			c0.795-15.373,13.506-27.634,29.017-27.634c13.715,0,25.558,9.756,28.396,23.024c1.126-0.193,2.252-0.29,3.366-0.29
			c11.27,0,20.439,9.207,20.439,20.523c0,0.148-0.002,0.298-0.006,0.449c4.648,1.077,8.046,5.219,8.044,10.202
			C103.906,105.898,99.22,110.602,93.46,110.602z M43.666,50.226c-13.806,0-25.039,11.281-25.039,25.147l0.005,1.971l-1.779,0.205
			c-7.317,0.84-12.835,7.061-12.835,14.468c0,8.032,6.501,14.567,14.491,14.567H93.46c3.544,0,6.428-2.901,6.428-6.468
			c0.002-3.515-2.732-6.349-6.227-6.452l-2.185-0.065l0.249-2.172c0.084-0.73,0.124-1.372,0.124-1.961
			c0-9.102-7.367-16.506-16.421-16.506c-1.46,0-2.953,0.211-4.438,0.628l-2.221,0.623l-0.312-2.286
			C66.771,59.555,56.112,50.226,43.666,50.226z"/>
	</g>
	<g>
		<path fill="#282D33" d="M27.925,76.648l-4.018-0.016c0.043-11.628,9.502-21.089,21.085-21.089v4.018
			C35.616,59.562,27.96,67.228,27.925,76.648z"/>
	</g>
</g>
</svg>
