<svg width="120" height="120" viewBox="0 0 120 120" fill="none" xmlns="http://www.w3.org/2000/svg">
<path d="M31.3922 71C49.6176 71 64.3923 56.2254 64.3923 38C64.3923 31.363 62.4329 25.1836 59.0612 20.0087C59.3421 20.0029 59.6237 20 59.906 20C81.9974 20 99.906 37.9086 99.906 60C99.906 82.0914 81.9974 100 59.906 100C41.0272 100 25.2032 86.9214 21 69.3304C24.2674 70.4136 27.7614 71 31.3922 71Z" fill="#B8CEFF"/>
<path fill-rule="evenodd" clip-rule="evenodd" d="M29.498 20L33.6699 28.5589L43 29.9321L36.249 36.5938L37.8438 46L29.498 41.5589L21.1562 46L22.751 36.5938L16 29.9321L25.3281 28.5589L29.498 20Z" fill="#FFC318"/>
</svg>
