<svg width="120" height="120" viewBox="0 0 120 120" fill="none" xmlns="http://www.w3.org/2000/svg">
<path d="M19.7942 52.25C33.4632 52.25 44.5442 41.169 44.5442 27.5C44.5442 22.5223 43.0747 17.8877 40.5459 14.0066C40.7565 14.0022 40.9678 14 41.1795 14C57.748 14 71.1795 27.4315 71.1795 44C71.1795 60.5685 57.748 74 41.1795 74C27.0204 74 15.1524 64.191 12 50.9978C14.4506 51.8102 17.071 52.25 19.7942 52.25Z" fill="#B8CEFF"/>
<mask id="path-3-outside-1" maskUnits="userSpaceOnUse" x="15" y="41" width="95" height="66" fill="black">
<rect fill="white" x="15" y="41" width="95" height="66"/>
<path d="M77.2098 102.998C93.1413 102.817 106 89.9035 106 74C106 57.9837 92.9583 45 76.8705 45C62.7779 45 51.0227 54.963 48.3238 68.2H36.4C26.7902 68.2 19 75.9902 19 85.6C19 95.2098 26.7902 103 36.4 103H76.9482C77.0356 103 77.1228 102.999 77.2098 102.998Z"/>
</mask>
<path d="M77.2098 102.998C93.1413 102.817 106 89.9035 106 74C106 57.9837 92.9583 45 76.8705 45C62.7779 45 51.0227 54.963 48.3238 68.2H36.4C26.7902 68.2 19 75.9902 19 85.6C19 95.2098 26.7902 103 36.4 103H76.9482C77.0356 103 77.1228 102.999 77.2098 102.998Z" fill="#CCCCCC"/>
<path d="M77.2098 102.998C93.1413 102.817 106 89.9035 106 74C106 57.9837 92.9583 45 76.8705 45C62.7779 45 51.0227 54.963 48.3238 68.2H36.4C26.7902 68.2 19 75.9902 19 85.6C19 95.2098 26.7902 103 36.4 103H76.9482C77.0356 103 77.1228 102.999 77.2098 102.998Z" stroke="white" stroke-width="8" mask="url(#path-3-outside-1)"/>
</svg>
