<svg width="120" height="120" viewBox="0 0 120 120" fill="none" xmlns="http://www.w3.org/2000/svg">
<mask id="path-2-outside-1" maskUnits="userSpaceOnUse" x="4" y="0" width="112" height="68" fill="black">
<rect fill="white" x="4" width="112" height="68"/>
<path d="M36.6001 28C39.3797 14.3066 51.4863 4 66 4C80.533 4 92.6524 14.3339 95.4109 28.0545C104.693 28.7741 112 36.5337 112 46C112 55.9411 103.941 64 94 64H26C16.0589 64 8 55.9411 8 46C8 36.0589 16.0589 28 26 28H36.6001Z"/>
</mask>
<path d="M36.6001 28C39.3797 14.3066 51.4863 4 66 4C80.533 4 92.6524 14.3339 95.4109 28.0545C104.693 28.7741 112 36.5337 112 46C112 55.9411 103.941 64 94 64H26C16.0589 64 8 55.9411 8 46C8 36.0589 16.0589 28 26 28H36.6001Z" fill="#AAAAAA"/>
<path d="M36.6001 28C39.3797 14.3066 51.4863 4 66 4C80.533 4 92.6524 14.3339 95.4109 28.0545C104.693 28.7741 112 36.5337 112 46C112 55.9411 103.941 64 94 64H26C16.0589 64 8 55.9411 8 46C8 36.0589 16.0589 28 26 28H36.6001Z" stroke="white" stroke-width="8" mask="url(#path-2-outside-1)"/>
<mask id="path-3-outside-2" maskUnits="userSpaceOnUse" x="11" y="64" width="88" height="50" fill="black">
<rect fill="white" x="11" y="64" width="88" height="50"/>
<path fill-rule="evenodd" clip-rule="evenodd" d="M39.6382 74.6353L36.2034 74.9847L36.5528 71.3637C36.5528 69.5072 35.0438 68 33.1891 68C31.3287 68 29.8235 69.5072 29.8235 71.3637L30.171 74.9847L26.3657 74.6353C24.5072 74.6353 23 76.1405 23 78.001C23 79.8575 24.5072 81.3647 26.3657 81.3647L30.171 81.0153L29.8235 84.6363C29.8235 86.4948 31.3287 88 33.1891 88C35.0438 88 36.5528 86.4948 36.5528 84.6363L36.2034 81.0153L39.6382 81.3647C41.4948 81.3647 43 79.8575 43 78.001C43 76.1405 41.4948 74.6353 39.6382 74.6353Z"/>
<path fill-rule="evenodd" clip-rule="evenodd" d="M65.6382 74.6353L62.2034 74.9847L62.5528 71.3637C62.5528 69.5072 61.0438 68 59.1891 68C57.3287 68 55.8235 69.5072 55.8235 71.3637L56.171 74.9847L52.3657 74.6353C50.5072 74.6353 49 76.1405 49 78.001C49 79.8575 50.5072 81.3647 52.3657 81.3647L56.171 81.0153L55.8235 84.6363C55.8235 86.4948 57.3287 88 59.1891 88C61.0438 88 62.5528 86.4948 62.5528 84.6363L62.2034 81.0153L65.6382 81.3647C67.4948 81.3647 69 79.8575 69 78.001C69 76.1405 67.4948 74.6353 65.6382 74.6353Z"/>
<path fill-rule="evenodd" clip-rule="evenodd" d="M91.6382 74.6353L88.2034 74.9847L88.5528 71.3637C88.5528 69.5072 87.0438 68 85.1891 68C83.3287 68 81.8235 69.5072 81.8235 71.3637L82.171 74.9847L78.3657 74.6353C76.5072 74.6353 75 76.1405 75 78.001C75 79.8575 76.5072 81.3647 78.3657 81.3647L82.171 81.0153L81.8235 84.6363C81.8235 86.4948 83.3287 88 85.1891 88C87.0438 88 88.5528 86.4948 88.5528 84.6363L88.2034 81.0153L91.6382 81.3647C93.4948 81.3647 95 79.8575 95 78.001C95 76.1405 93.4948 74.6353 91.6382 74.6353Z"/>
<path fill-rule="evenodd" clip-rule="evenodd" d="M83.6382 96.6353L80.2034 96.9847L80.5528 93.3637C80.5528 91.5072 79.0438 90 77.1891 90C75.3287 90 73.8235 91.5072 73.8235 93.3637L74.171 96.9847L70.3657 96.6353C68.5072 96.6353 67 98.1405 67 100.001C67 101.858 68.5072 103.365 70.3657 103.365L74.171 103.015L73.8235 106.636C73.8235 108.495 75.3287 110 77.1891 110C79.0438 110 80.5528 108.495 80.5528 106.636L80.2034 103.015L83.6382 103.365C85.4948 103.365 87 101.858 87 100.001C87 98.1405 85.4948 96.6353 83.6382 96.6353Z"/>
<path fill-rule="evenodd" clip-rule="evenodd" d="M57.6382 96.6353L54.2034 96.9847L54.5528 93.3637C54.5528 91.5072 53.0438 90 51.1891 90C49.3287 90 47.8235 91.5072 47.8235 93.3637L48.171 96.9847L44.3657 96.6353C42.5072 96.6353 41 98.1405 41 100.001C41 101.858 42.5072 103.365 44.3657 103.365L48.171 103.015L47.8235 106.636C47.8235 108.495 49.3287 110 51.1891 110C53.0438 110 54.5528 108.495 54.5528 106.636L54.2034 103.015L57.6382 103.365C59.4948 103.365 61 101.858 61 100.001C61 98.1405 59.4948 96.6353 57.6382 96.6353Z"/>
<path fill-rule="evenodd" clip-rule="evenodd" d="M31.6382 96.6353L28.2034 96.9847L28.5528 93.3637C28.5528 91.5072 27.0438 90 25.1891 90C23.3287 90 21.8235 91.5072 21.8235 93.3637L22.171 96.9847L18.3657 96.6353C16.5072 96.6353 15 98.1405 15 100.001C15 101.858 16.5072 103.365 18.3657 103.365L22.171 103.015L21.8235 106.636C21.8235 108.495 23.3287 110 25.1891 110C27.0438 110 28.5528 108.495 28.5528 106.636L28.2034 103.015L31.6382 103.365C33.4948 103.365 35 101.858 35 100.001C35 98.1405 33.4948 96.6353 31.6382 96.6353Z"/>
</mask>
<path fill-rule="evenodd" clip-rule="evenodd" d="M39.6382 74.6353L36.2034 74.9847L36.5528 71.3637C36.5528 69.5072 35.0438 68 33.1891 68C31.3287 68 29.8235 69.5072 29.8235 71.3637L30.171 74.9847L26.3657 74.6353C24.5072 74.6353 23 76.1405 23 78.001C23 79.8575 24.5072 81.3647 26.3657 81.3647L30.171 81.0153L29.8235 84.6363C29.8235 86.4948 31.3287 88 33.1891 88C35.0438 88 36.5528 86.4948 36.5528 84.6363L36.2034 81.0153L39.6382 81.3647C41.4948 81.3647 43 79.8575 43 78.001C43 76.1405 41.4948 74.6353 39.6382 74.6353Z" fill="#51C2F0"/>
<path fill-rule="evenodd" clip-rule="evenodd" d="M65.6382 74.6353L62.2034 74.9847L62.5528 71.3637C62.5528 69.5072 61.0438 68 59.1891 68C57.3287 68 55.8235 69.5072 55.8235 71.3637L56.171 74.9847L52.3657 74.6353C50.5072 74.6353 49 76.1405 49 78.001C49 79.8575 50.5072 81.3647 52.3657 81.3647L56.171 81.0153L55.8235 84.6363C55.8235 86.4948 57.3287 88 59.1891 88C61.0438 88 62.5528 86.4948 62.5528 84.6363L62.2034 81.0153L65.6382 81.3647C67.4948 81.3647 69 79.8575 69 78.001C69 76.1405 67.4948 74.6353 65.6382 74.6353Z" fill="#51C2F0"/>
<path fill-rule="evenodd" clip-rule="evenodd" d="M91.6382 74.6353L88.2034 74.9847L88.5528 71.3637C88.5528 69.5072 87.0438 68 85.1891 68C83.3287 68 81.8235 69.5072 81.8235 71.3637L82.171 74.9847L78.3657 74.6353C76.5072 74.6353 75 76.1405 75 78.001C75 79.8575 76.5072 81.3647 78.3657 81.3647L82.171 81.0153L81.8235 84.6363C81.8235 86.4948 83.3287 88 85.1891 88C87.0438 88 88.5528 86.4948 88.5528 84.6363L88.2034 81.0153L91.6382 81.3647C93.4948 81.3647 95 79.8575 95 78.001C95 76.1405 93.4948 74.6353 91.6382 74.6353Z" fill="#51C2F0"/>
<path fill-rule="evenodd" clip-rule="evenodd" d="M83.6382 96.6353L80.2034 96.9847L80.5528 93.3637C80.5528 91.5072 79.0438 90 77.1891 90C75.3287 90 73.8235 91.5072 73.8235 93.3637L74.171 96.9847L70.3657 96.6353C68.5072 96.6353 67 98.1405 67 100.001C67 101.858 68.5072 103.365 70.3657 103.365L74.171 103.015L73.8235 106.636C73.8235 108.495 75.3287 110 77.1891 110C79.0438 110 80.5528 108.495 80.5528 106.636L80.2034 103.015L83.6382 103.365C85.4948 103.365 87 101.858 87 100.001C87 98.1405 85.4948 96.6353 83.6382 96.6353Z" fill="#51C2F0"/>
<path fill-rule="evenodd" clip-rule="evenodd" d="M57.6382 96.6353L54.2034 96.9847L54.5528 93.3637C54.5528 91.5072 53.0438 90 51.1891 90C49.3287 90 47.8235 91.5072 47.8235 93.3637L48.171 96.9847L44.3657 96.6353C42.5072 96.6353 41 98.1405 41 100.001C41 101.858 42.5072 103.365 44.3657 103.365L48.171 103.015L47.8235 106.636C47.8235 108.495 49.3287 110 51.1891 110C53.0438 110 54.5528 108.495 54.5528 106.636L54.2034 103.015L57.6382 103.365C59.4948 103.365 61 101.858 61 100.001C61 98.1405 59.4948 96.6353 57.6382 96.6353Z" fill="#51C2F0"/>
<path fill-rule="evenodd" clip-rule="evenodd" d="M31.6382 96.6353L28.2034 96.9847L28.5528 93.3637C28.5528 91.5072 27.0438 90 25.1891 90C23.3287 90 21.8235 91.5072 21.8235 93.3637L22.171 96.9847L18.3657 96.6353C16.5072 96.6353 15 98.1405 15 100.001C15 101.858 16.5072 103.365 18.3657 103.365L22.171 103.015L21.8235 106.636C21.8235 108.495 23.3287 110 25.1891 110C27.0438 110 28.5528 108.495 28.5528 106.636L28.2034 103.015L31.6382 103.365C33.4948 103.365 35 101.858 35 100.001C35 98.1405 33.4948 96.6353 31.6382 96.6353Z" fill="#51C2F0"/>
<path fill-rule="evenodd" clip-rule="evenodd" d="M39.6382 74.6353L36.2034 74.9847L36.5528 71.3637C36.5528 69.5072 35.0438 68 33.1891 68C31.3287 68 29.8235 69.5072 29.8235 71.3637L30.171 74.9847L26.3657 74.6353C24.5072 74.6353 23 76.1405 23 78.001C23 79.8575 24.5072 81.3647 26.3657 81.3647L30.171 81.0153L29.8235 84.6363C29.8235 86.4948 31.3287 88 33.1891 88C35.0438 88 36.5528 86.4948 36.5528 84.6363L36.2034 81.0153L39.6382 81.3647C41.4948 81.3647 43 79.8575 43 78.001C43 76.1405 41.4948 74.6353 39.6382 74.6353Z" stroke="white" stroke-width="8" mask="url(#path-3-outside-2)"/>
<path fill-rule="evenodd" clip-rule="evenodd" d="M65.6382 74.6353L62.2034 74.9847L62.5528 71.3637C62.5528 69.5072 61.0438 68 59.1891 68C57.3287 68 55.8235 69.5072 55.8235 71.3637L56.171 74.9847L52.3657 74.6353C50.5072 74.6353 49 76.1405 49 78.001C49 79.8575 50.5072 81.3647 52.3657 81.3647L56.171 81.0153L55.8235 84.6363C55.8235 86.4948 57.3287 88 59.1891 88C61.0438 88 62.5528 86.4948 62.5528 84.6363L62.2034 81.0153L65.6382 81.3647C67.4948 81.3647 69 79.8575 69 78.001C69 76.1405 67.4948 74.6353 65.6382 74.6353Z" stroke="white" stroke-width="8" mask="url(#path-3-outside-2)"/>
<path fill-rule="evenodd" clip-rule="evenodd" d="M91.6382 74.6353L88.2034 74.9847L88.5528 71.3637C88.5528 69.5072 87.0438 68 85.1891 68C83.3287 68 81.8235 69.5072 81.8235 71.3637L82.171 74.9847L78.3657 74.6353C76.5072 74.6353 75 76.1405 75 78.001C75 79.8575 76.5072 81.3647 78.3657 81.3647L82.171 81.0153L81.8235 84.6363C81.8235 86.4948 83.3287 88 85.1891 88C87.0438 88 88.5528 86.4948 88.5528 84.6363L88.2034 81.0153L91.6382 81.3647C93.4948 81.3647 95 79.8575 95 78.001C95 76.1405 93.4948 74.6353 91.6382 74.6353Z" stroke="white" stroke-width="8" mask="url(#path-3-outside-2)"/>
<path fill-rule="evenodd" clip-rule="evenodd" d="M83.6382 96.6353L80.2034 96.9847L80.5528 93.3637C80.5528 91.5072 79.0438 90 77.1891 90C75.3287 90 73.8235 91.5072 73.8235 93.3637L74.171 96.9847L70.3657 96.6353C68.5072 96.6353 67 98.1405 67 100.001C67 101.858 68.5072 103.365 70.3657 103.365L74.171 103.015L73.8235 106.636C73.8235 108.495 75.3287 110 77.1891 110C79.0438 110 80.5528 108.495 80.5528 106.636L80.2034 103.015L83.6382 103.365C85.4948 103.365 87 101.858 87 100.001C87 98.1405 85.4948 96.6353 83.6382 96.6353Z" stroke="white" stroke-width="8" mask="url(#path-3-outside-2)"/>
<path fill-rule="evenodd" clip-rule="evenodd" d="M57.6382 96.6353L54.2034 96.9847L54.5528 93.3637C54.5528 91.5072 53.0438 90 51.1891 90C49.3287 90 47.8235 91.5072 47.8235 93.3637L48.171 96.9847L44.3657 96.6353C42.5072 96.6353 41 98.1405 41 100.001C41 101.858 42.5072 103.365 44.3657 103.365L48.171 103.015L47.8235 106.636C47.8235 108.495 49.3287 110 51.1891 110C53.0438 110 54.5528 108.495 54.5528 106.636L54.2034 103.015L57.6382 103.365C59.4948 103.365 61 101.858 61 100.001C61 98.1405 59.4948 96.6353 57.6382 96.6353Z" stroke="white" stroke-width="8" mask="url(#path-3-outside-2)"/>
<path fill-rule="evenodd" clip-rule="evenodd" d="M31.6382 96.6353L28.2034 96.9847L28.5528 93.3637C28.5528 91.5072 27.0438 90 25.1891 90C23.3287 90 21.8235 91.5072 21.8235 93.3637L22.171 96.9847L18.3657 96.6353C16.5072 96.6353 15 98.1405 15 100.001C15 101.858 16.5072 103.365 18.3657 103.365L22.171 103.015L21.8235 106.636C21.8235 108.495 23.3287 110 25.1891 110C27.0438 110 28.5528 108.495 28.5528 106.636L28.2034 103.015L31.6382 103.365C33.4948 103.365 35 101.858 35 100.001C35 98.1405 33.4948 96.6353 31.6382 96.6353Z" stroke="white" stroke-width="8" mask="url(#path-3-outside-2)"/>
</svg>
