<svg width="120" height="120" viewBox="0 0 120 120" fill="none" xmlns="http://www.w3.org/2000/svg">
<path fill-rule="evenodd" clip-rule="evenodd" d="M68.2823 46.5075C71.8685 62.679 61.6649 78.6974 45.4935 82.2823C29.3208 85.8685 13.3026 75.6649 9.71765 59.4921C6.13141 43.3206 16.3364 27.3036 32.5064 23.7173C48.6791 20.1324 64.6974 30.3347 68.2823 46.5075Z" fill="#FFC318"/>
<mask id="path-3-outside-1" maskUnits="userSpaceOnUse" x="20" y="36" width="95" height="66" fill="black">
<rect fill="white" x="20" y="36" width="95" height="66"/>
<path d="M82.2098 97.9981C98.1413 97.8171 111 84.9035 111 69C111 52.9837 97.9583 40 81.8705 40C67.7779 40 56.0227 49.963 53.3238 63.2H41.4C31.7902 63.2 24 70.9902 24 80.6C24 90.2098 31.7902 98 41.4 98H81.9482C82.0356 98 82.1228 97.9994 82.2098 97.9981Z"/>
</mask>
<path d="M82.2098 97.9981C98.1413 97.8171 111 84.9035 111 69C111 52.9837 97.9583 40 81.8705 40C67.7779 40 56.0227 49.963 53.3238 63.2H41.4C31.7902 63.2 24 70.9902 24 80.6C24 90.2098 31.7902 98 41.4 98H81.9482C82.0356 98 82.1228 97.9994 82.2098 97.9981Z" fill="#CCCCCC"/>
<path d="M82.2098 97.9981C98.1413 97.8171 111 84.9035 111 69C111 52.9837 97.9583 40 81.8705 40C67.7779 40 56.0227 49.963 53.3238 63.2H41.4C31.7902 63.2 24 70.9902 24 80.6C24 90.2098 31.7902 98 41.4 98H81.9482C82.0356 98 82.1228 97.9994 82.2098 97.9981Z" stroke="white" stroke-width="8" mask="url(#path-3-outside-1)"/>
</svg>
