<svg width="120" height="120" viewBox="0 0 120 120" fill="none" xmlns="http://www.w3.org/2000/svg">
<path fill-rule="evenodd" clip-rule="evenodd" d="M57.5215 35.6717C59.9124 46.4527 53.1099 57.1316 42.329 59.5215C31.5472 61.9124 20.8684 55.1099 18.4784 44.3281C16.0876 33.5471 22.8909 22.869 33.6709 20.4782C44.4527 18.0883 55.1316 24.8898 57.5215 35.6717Z" fill="#FFC318"/>
<mask id="path-3-outside-1" maskUnits="userSpaceOnUse" x="0" y="19" width="120" height="83" fill="black">
<rect fill="white" y="19" width="120" height="83"/>
<path d="M78.5 98C99.2107 98 116 81.2107 116 60.5C116 39.7893 99.2107 23 78.5 23C60.3578 23 45.2247 35.8832 41.7501 53H26.5C14.0736 53 4 63.0736 4 75.5C4 87.9264 14.0736 98 26.5 98H78.5Z"/>
</mask>
<path d="M78.5 98C99.2107 98 116 81.2107 116 60.5C116 39.7893 99.2107 23 78.5 23C60.3578 23 45.2247 35.8832 41.7501 53H26.5C14.0736 53 4 63.0736 4 75.5C4 87.9264 14.0736 98 26.5 98H78.5Z" fill="#CCCCCC"/>
<path d="M78.5 98C99.2107 98 116 81.2107 116 60.5C116 39.7893 99.2107 23 78.5 23C60.3578 23 45.2247 35.8832 41.7501 53H26.5C14.0736 53 4 63.0736 4 75.5C4 87.9264 14.0736 98 26.5 98H78.5Z" stroke="white" stroke-width="8" mask="url(#path-3-outside-1)"/>
</svg>
