<?xml version="1.0" encoding="UTF-8"?><svg id="Layer_1" xmlns="http://www.w3.org/2000/svg" viewBox="0 0 245.558 196.1"><g id="sgwCNR"><path d="m130.88,9.158c.247.008.495.016.742.024.466.044.931.089,1.396.133.347.006.695.013,1.043.019.423.044.845.088,1.268.132.917.107,1.839.189,2.751.328,1.378.211,2.751.456,4.124.698.88.155,1.758.323,2.634.501,2.518.512,4.993,1.182,7.453,1.925,2.76.834,5.459,1.823,8.125,2.917,2.315.95,4.602,1.958,6.815,3.124,3.3,1.739,6.535,3.594,9.575,5.762,2.06,1.47,4.092,2.987,6.058,4.58,1.588,1.287,3.064,2.712,4.577,4.09.808.736,1.633,1.46,2.374,2.26,1.771,1.912,3.549,3.822,5.23,5.813,2.348,2.782,4.466,5.743,6.42,8.815,2.079,3.268,3.979,6.64,5.584,10.168,1.343,2.952,2.597,5.942,3.551,9.049.635,2.067,1.352,4.111,1.92,6.197.461,1.693.757,3.431,1.121,5.149.2.946.4,1.893.581,2.843.084.441.134.888.181,1.335.108,1.021.175,2.048.316,3.064.155,1.121.194,2.253.323,3.37.563,4.909.356,9.809-.029,14.711-.108,1.374-.269,2.747-.471,4.111-.203,1.372-.485,2.733-.737,4.098-.261,1.416-.478,2.842-.805,4.243-.323,1.384-.742,2.746-1.149,4.108-.509,1.7-.999,3.409-1.589,5.081-.656,1.859-1.375,3.698-2.144,5.513-.704,1.664-1.471,3.304-2.279,4.92-1.833,3.666-3.914,7.192-6.285,10.534-1.5,2.115-3.05,4.203-4.708,6.196-1.617,1.944-3.387,3.763-5.115,5.614-.834.893-1.699,1.76-2.593,2.592-2.491,2.317-5.066,4.535-7.851,6.496-1.888,1.329-3.751,2.7-5.7,3.934-2.908,1.842-5.914,3.523-9.038,4.981-2.131.994-4.31,1.871-6.499,2.731-1.721.676-3.458,1.297-5.228,1.819-2.157.636-4.327,1.234-6.502,1.806-1.128.297-2.275.53-3.422.743-1.08.2-2.172.341-3.26.498-1.083.156-2.168.3-3.253.449-.466.05-.933.099-1.399.149-.909.059-1.819.118-2.728.177-.465.043-.929.086-1.394.129,0,0,.015.021.015.021-.709.008-1.417.016-2.126.024-1.593-.002-3.185-.005-4.778-.007-.412,0-.823,0-1.235.001-.347-.018-.694-.036-1.041-.054-.316-.035-.633-.07-.949-.105-.407-.004-.813-.008-1.22-.013-.089-.008-.178-.017-.267-.025-.472-.045-.943-.089-1.415-.134-1.007.002-1.996-.143-2.988-.305-.887-.145-1.788-.195-2.679-.316-.639-.087-1.273-.209-1.905-.339-.872-.18-1.741-.377-2.61-.575-1.323-.301-2.648-.591-3.965-.918-2.689-.669-5.323-1.522-7.929-2.455-1.202-.43-2.375-.941-3.553-1.435-.981-.411-1.958-.832-2.923-1.28-1.168-.542-2.324-1.113-3.481-1.678-3.631-1.77-7.061-3.888-10.374-6.183-2.12-1.469-4.124-3.111-6.14-4.725-2.939-2.353-5.607-4.999-8.192-7.73-2.721-2.875-5.195-5.951-7.493-9.171-1.734-2.43-3.364-4.926-4.795-7.546-1.027-1.879-2.077-3.751-2.992-5.685-1.267-2.68-2.5-5.381-3.435-8.204-.4-1.208-.902-2.384-1.259-3.603-.527-1.801-.983-3.623-1.435-5.444-.431-1.735-.847-3.475-1.215-5.225-.169-.8-.192-1.63-.31-2.443-.122-.837-.28-1.669-.419-2.505-.029-.173-.038-.35-.058-.525-.099-.877-.212-1.753-.291-2.632-.034-.376.031-.76.005-1.138-.226-3.284-.269-6.572-.165-9.861.044-1.4.167-2.798.253-4.197.02-.331.025-.663.057-.992.102-1.07.202-2.14.326-3.207.069-.594.186-1.183.284-1.774.214-1.301.392-2.61.652-3.902.314-1.56.677-3.111,1.057-4.657.247-1.006.544-2.001.851-2.991.562-1.815,1.119-3.632,1.736-5.429.408-1.187.901-2.345,1.386-3.503.638-1.521,1.293-3.036,1.966-4.542.257-.574.599-1.11.88-1.674,1.382-2.78,2.937-5.46,4.612-8.075,1.89-2.951,3.955-5.772,6.195-8.464,1.001-1.204,2.022-2.394,3.086-3.542,1.4-1.509,2.806-3.018,4.295-4.436,1.463-1.393,3.01-2.701,4.564-3.993,1.466-1.219,2.943-2.435,4.499-3.531,2.075-1.461,4.217-2.829,6.36-4.191,1.294-.823,2.619-1.606,3.976-2.319,1.619-.85,3.278-1.627,4.938-2.397,1.356-.629,2.726-1.231,4.112-1.792,2.005-.811,4.037-1.549,6.123-2.138,1.251-.353,2.467-.845,3.731-1.135,1.963-.451,3.887-1.075,5.902-1.314.882-.105,1.734-.457,2.616-.56.749-.088,1.489-.197,2.233-.32,1.088-.179,2.195-.234,3.295-.341.471-.046.942-.093,1.412-.139.806-.059,1.611-.118,2.417-.177.403-.002.806-.004,1.21-.006.459,0,.917.001,1.376.002.783.008,1.566.025,2.349.021,1.085-.005,2.171-.026,3.256-.04.542.01,1.083.02,1.625.031Zm-10.098,7.985c-.367.04-.733.081-1.1.121-.088.009-.177.018-.265.027-.472.046-.944.093-1.416.139-.921.105-1.846.183-2.762.32-1.55.232-3.105.45-4.639.769-2.25.469-4.505.943-6.717,1.562-1.934.542-3.809,1.295-5.715,1.941-2.258.765-4.431,1.728-6.581,2.752-2.915,1.388-5.733,2.945-8.478,4.646-2.637,1.634-5.154,3.439-7.569,5.372-1.89,1.513-3.654,3.187-5.438,4.829-1.105,1.017-2.176,2.076-3.2,3.174-1.017,1.09-1.988,2.227-2.92,3.391-1.433,1.788-2.896,3.56-4.2,5.44-1.857,2.675-3.612,5.422-5.091,8.332-.919,1.808-1.897,3.591-2.712,5.445-.865,1.967-1.596,3.995-2.332,6.016-.547,1.503-1.068,3.02-1.493,4.561-.447,1.618-.757,3.274-1.145,4.909-.447,1.883-.849,3.773-1.048,5.702-.049.471-.108.941-.172,1.411-.091.663-.212,1.323-.279,1.988-.057.555-.052,1.115-.08,1.673-.076,1.502-.193,3.002-.224,4.505-.086,4.166.074,8.322.623,12.458.151,1.134.259,2.276.459,3.401.275,1.548.551,3.101.949,4.619.633,2.411,1.253,4.828,2.06,7.192.775,2.269,1.596,4.517,2.623,6.682,1.072,2.26,2.165,4.511,3.322,6.728,1.4,2.684,3.056,5.216,4.799,7.691,2.003,2.844,4.234,5.501,6.542,8.104,1.675,1.889,3.519,3.597,5.354,5.316,1.192,1.117,2.481,2.133,3.767,3.145,1.485,1.168,2.993,2.31,4.529,3.409,1.031.738,2.117,1.403,3.199,2.067,1.384.849,2.757,1.726,4.194,2.477,1.966,1.027,3.972,1.985,5.993,2.901,1.628.738,3.29,1.406,4.962,2.038,2.632.996,5.328,1.797,8.064,2.456,1.322.319,2.646.633,3.978.91,1.119.233,2.245.436,3.376.6,1.017.148,2.049.195,3.066.339,1.123.159,2.243.319,3.38.299.475.042.949.083,1.424.125.196-.003.393-.006.589-.008.247.014.494.028.741.043.348.042.696.117,1.044.12,1.438.014,2.877.005,4.315.005.616-.033,1.232-.066,1.848-.099l1.713-.185c.702-.056,1.403-.112,2.105-.167l1.402-.148c.769-.099,1.54-.182,2.305-.302,1.378-.216,2.757-.432,4.128-.689,1.074-.201,2.147-.423,3.202-.705,1.9-.509,3.801-1.025,5.675-1.62,3.016-.957,5.99-2.041,8.844-3.417,2.081-1.003,4.168-2.003,6.196-3.108,2.811-1.531,5.483-3.298,8.072-5.179,2.464-1.791,4.833-3.708,7.057-5.791,1.541-1.444,3.052-2.927,4.495-4.469,1.276-1.363,2.472-2.806,3.644-4.261,1.279-1.588,2.544-3.192,3.717-4.859,1.942-2.761,3.672-5.658,5.248-8.646,1.648-3.123,3.018-6.369,4.242-9.675.703-1.901,1.32-3.837,1.881-5.785.472-1.638.847-3.306,1.192-4.977.407-1.973.766-3.957,1.084-5.946.213-1.332.332-2.68.466-4.024.089-.887.15-1.778.188-2.669.198-4.553.259-9.101-.494-13.622-.156-.937-.199-1.892-.323-2.834-.139-1.058-.269-2.12-.477-3.165-.258-1.295-.628-2.567-.885-3.861-.374-1.888-.929-3.722-1.533-5.544-.487-1.468-.919-2.96-1.502-4.39-.926-2.272-1.919-4.518-2.952-6.743-1.38-2.973-3.039-5.796-4.831-8.537-1.893-2.897-3.917-5.699-6.241-8.274-1.186-1.315-2.324-2.675-3.542-3.96-.944-.995-1.956-1.929-2.977-2.845-1.633-1.465-3.237-2.971-4.966-4.315-2.013-1.566-4.102-3.047-6.242-4.436-2.114-1.372-4.298-2.645-6.513-3.848-2.841-1.543-5.801-2.84-8.858-3.905-1.531-.534-3.041-1.129-4.585-1.62-2.588-.821-5.228-1.456-7.885-2.015-1.019-.214-2.044-.407-3.07-.586-.739-.129-1.483-.225-2.227-.323-.864-.114-1.73-.214-2.595-.32-.421-.043-.843-.087-1.264-.13-.14-.007-.279-.015-.419-.022-.316-.13-.631-.266-.95-.008-.398-.046-.797-.093-1.196-.139-.623-.039-1.246-.078-1.869-.117-1.723,0-3.446,0-5.169,0-.622.034-1.244.068-1.866.102-.35.014-.7.028-1.049.041Z" fill="#1d1d1b"/><path d="m129.255,9.127c-1.085.014-2.171.035-3.256.04-.783.004-1.566-.013-2.349-.021.014-.035.026-.07.038-.105.762-.019,1.524-.039,2.287-.058h.613c.863.017,1.726.034,2.589.051.023.033.048.064.077.092Z" fill="#1d1d1b"/><path d="m123.974,187.126c1.593.002,3.185.005,4.778.007-.008.036-.02.071-.035.105-1.573-.003-3.147-.006-4.72-.008-.008-.034-.016-.069-.023-.103Z" fill="#1d1d1b"/><path d="m128.717,187.238c.015-.034.027-.069.035-.105.709-.008,1.417-.016,2.126-.024-.72.043-1.44.086-2.16.129Z" fill="#1d1d1b"/><path d="m129.255,9.127c-.029-.028-.055-.059-.077-.092.568.041,1.135.082,1.703.123-.542-.01-1.083-.02-1.625-.031Z" fill="#1d1d1b"/><path d="m118.647,9.327c-.471.046-.941.093-1.412.139.471-.046.942-.093,1.412-.139Z" fill="#1d1d1b"/><path d="m133.018,9.315c-.465-.044-.931-.089-1.396-.133.465.044.931.089,1.396.133Z" fill="#1d1d1b"/><path d="m123.688,9.041c-.012.036-.024.071-.038.105-.459,0-.918-.001-1.376-.002.015-.036.032-.071.05-.105l1.365.002Z" fill="#1d1d1b"/><path d="m134.984,186.782c.466-.05.933-.099,1.399-.149-.466.05-.933.099-1.399.149Z" fill="#1d1d1b"/><path d="m117.847,186.798c.472.045.943.089,1.415.134-.472-.045-.943-.089-1.415-.134Z" fill="#1d1d1b"/><path d="m130.862,187.088c.465-.043.929-.086,1.394-.129-.465.043-.929.086-1.394.129Z" fill="#1d1d1b"/><path d="m121.698,187.073c.347.018.694.036,1.042.054.011.04.025.079.043.116-.468-.039-.935-.077-1.403-.116.106-.018.212-.036.318-.054Z" fill="#1d1d1b"/><path d="m135.329,9.466c-.422-.044-.845-.088-1.268-.132.422.044.845.088,1.268.132Z" fill="#1d1d1b"/><path d="m122.323,9.039c-.018.034-.034.07-.05.105-.403.002-.806.004-1.21.006.42-.037.839-.074,1.259-.112Z" fill="#1d1d1b"/><path d="m119.529,186.956c.407.004.813.008,1.22.013.017.035.033.071.048.107-.423-.04-.845-.08-1.268-.12Z" fill="#1d1d1b"/><path d="m122.782,187.243c-.018-.037-.032-.076-.043-.116.412,0,.823,0,1.235-.001.007.034.015.069.023.103-.405.005-.81.01-1.215.014Z" fill="#1d1d1b"/><path d="m120.797,187.076c-.016-.036-.032-.072-.048-.107.316.035.633.07.949.105-.106.018-.212.036-.318.054-.194-.017-.388-.035-.583-.052Z" fill="#1d1d1b"/><path d="m126.588,8.983h-.613c.204-.169.409-.169.613,0Z" fill="#1d1d1b"/><path d="m123.198,179.158c1.797.005,3.594.009,5.391.014-.007.038-.017.075-.032.111-1.438,0-2.877.008-4.315-.005-.348-.003-.696-.078-1.044-.12Z" fill="#1d1d1b"/><path d="m129.946,179.131c.724-.044,1.448-.088,2.172-.131-.571.062-1.142.123-1.712.185-.153-.018-.306-.036-.46-.053Z" fill="#1d1d1b"/><path d="m129.946,179.131c.153.018.306.036.46.053-.616.033-1.232.066-1.848.099.014-.036.025-.073.032-.111.452-.014.905-.028,1.357-.041Z" fill="#1d1d1b"/><path d="m128.905,17.103c-.013-.034-.026-.069-.039-.103.623.039,1.246.078,1.87.117-.61-.004-1.22-.009-1.83-.013Z" fill="#1d1d1b"/><path d="m119.417,17.29c-.472.046-.944.093-1.416.139.472-.046.944-.093,1.416-.139Z" fill="#1d1d1b"/><path d="m134.223,178.832c.467-.049.934-.099,1.402-.148-.467.049-.934.099-1.402.148Z" fill="#1d1d1b"/><path d="m120.445,178.999c.462.006.925.012,1.387.018.01.036.022.072.036.107-.475-.042-.949-.083-1.424-.125Z" fill="#1d1d1b"/><path d="m134.564,17.416c-.421-.043-.842-.087-1.264-.13.421.043.842.087,1.264.13Z" fill="#1d1d1b"/><path d="m121.831,17.101c.057.019.114.038.171.057-.422.028-.843.056-1.265.084.014-.033.029-.067.044-.099.35-.014.7-.028,1.049-.041Z" fill="#1d1d1b"/><path d="m132.881,17.263c-.317-.003-.633-.005-.95-.008.319-.259.634-.123.95.008Z" fill="#1d1d1b"/><path d="m121.868,179.124c-.014-.035-.026-.07-.036-.107.209.033.417.065.625.098-.196.003-.393.006-.589.008Z" fill="#1d1d1b"/><path d="m115.559,100.504c-.859,1.888-1.715,3.777-2.576,5.665-1.008,2.21-2.027,4.415-3.027,6.629-.835,1.85-1.642,3.712-2.473,5.563-.542,1.209-1.115,2.404-1.655,3.615-.389.872-.742,1.76-1.12,2.637-.078.181-.195.345-.353.618-9.697-21.509-19.348-42.918-29.039-64.413.447-.581.914-1.226,1.421-1.837,1.145-1.378,2.265-2.781,3.48-4.095,1.049-1.135,2.2-2.177,3.334-3.231.832-.774,1.7-1.511,2.568-2.245,1.711-1.445,3.507-2.776,5.387-3.994.903-.585.89-.587,1.327.4.678,1.531,1.376,3.052,2.055,4.583.985,2.22,1.952,4.447,2.944,6.664.623,1.392,1.289,2.765,1.916,4.155.546,1.21,1.057,2.436,1.601,3.647.607,1.353,1.241,2.694,1.85,4.047.565,1.254,1.099,2.523,1.67,3.775.654,1.434,1.348,2.849,1.997,4.284.526,1.163,1.002,2.349,1.521,3.516.366.824.778,1.627,1.148,2.449.544,1.211,1.062,2.434,1.605,3.645.345.771.721,1.528,1.073,2.296.773,1.688,1.542,3.378,2.309,5.069.361.797.712,1.599,1.068,2.399.204.063.407.179.611.18,6.745.009,13.489.009,20.234.001.186,0,.371-.096.557-.147.659-1.454,1.326-2.904,1.974-4.363.529-1.191,1.019-2.4,1.551-3.589.623-1.392,1.285-2.766,1.909-4.157.75-1.671,1.471-3.354,2.218-5.026.572-1.278,1.176-2.542,1.747-3.821,1.01-2.262,1.991-4.538,3.011-6.795.874-1.936,1.802-3.848,2.674-5.784.71-1.577,1.359-3.181,2.062-4.761.569-1.28,1.196-2.534,1.767-3.812,1.001-2.239,1.968-4.493,2.971-6.731.388-.865.835-1.704,1.252-2.547.662.161,3.543,2.093,4.885,3.262,1.479,1.288,2.996,2.535,4.426,3.875,1.423,1.335,2.811,2.717,4.116,4.167,1.307,1.453,2.493,3.017,3.73,4.529-9.711,21.487-19.39,42.904-29.137,64.469-3.776-8.371-7.478-16.576-11.179-24.781.018-.042.018-.084.002-.126-.255-.061-.511-.176-.766-.176-6.588-.01-13.175-.009-19.763-.002-.242,0-.485.079-.727.121-.053.059-.105.117-.158.176Z" fill="#1d1d1b"/><path d="m65.142,81.943c.15.083.245.103.268.154,10.868,24.111,21.731,48.225,32.524,72.389-13.289-6.825-23.148-16.968-29.291-30.579-6.1-13.516-6.976-27.536-3.502-41.964Z" fill="#1d1d1b"/><path d="m187.331,82.172c.15.544.336,1.081.442,1.633.229,1.193.409,2.396.626,3.592.128.706.305,1.404.43,2.111.087.491.149.99.177,1.488.145,2.554.522,5.097.409,7.662-.092,2.087-.19,4.176-.394,6.254-.17,1.729-.446,3.452-.771,5.16-.273,1.437-.733,2.837-1.021,4.272-.358,1.777-1.003,3.459-1.597,5.157-.44,1.257-.96,2.488-1.495,3.708-.645,1.474-1.281,2.958-2.032,4.379-1.652,3.129-3.568,6.091-5.729,8.9-1.452,1.887-2.97,3.712-4.632,5.414-1.962,2.01-4.03,3.898-6.246,5.636-2.337,1.834-4.733,3.561-7.327,5.01-1.17.653-2.331,1.321-3.497,1.982-.046-.04-.092-.08-.137-.12,10.876-24.069,21.751-48.138,32.627-72.207.056-.011.111-.022.167-.033Z" fill="#1d1d1b"/><path d="m128.591,35.008c.041.011.081.02.123.028.526.038,1.052.076,1.577.114.3.002.6.005.9.007.546.057,1.093.103,1.637.173.645.083,1.287.186,1.931.281.739.109,1.482.198,2.217.331,1.171.212,2.341.43,3.502.689,1.13.252,2.247.559,3.331.832.04.074.055.094.062.117.007.024.015.054.006.075-.203.513-.39,1.034-.617,1.537-5.633,12.474-11.269,24.946-16.909,37.418-.018.039-.082.057-.134.092-5.891-13.039-11.782-26.076-17.707-39.19.448-.13.883-.27,1.326-.382,1.565-.396,3.124-.808,4.728-1.042,1.357-.198,2.698-.507,4.05-.741.347-.06.712-.02,1.068-.026.471-.046.942-.092,1.413-.138.299-.004.598-.008.897-.012.619-.045,1.238-.09,1.858-.135.041-.007.082-.017.122-.028,1.54,0,3.08,0,4.62,0Z" fill="#1d1d1b"/><path d="m126.728,161.222c-.349,0-.698,0-1.047,0-.628-.031-1.255-.062-1.883-.092-.557-.008-1.113-.016-1.67-.025-4.522-.176-8.917-1.066-13.339-2.286,5.825-12.918,11.609-25.744,17.392-38.57.056-.002.112-.005.168-.007,5.775,12.825,11.55,25.65,17.351,38.532-.532.158-1.047.343-1.577.46-1.062.236-2.13.442-3.199.647-1.366.261-2.732.533-4.105.755-1.152.186-2.315.31-3.474.453-.201.025-.407.005-.611.005-.656.011-1.312.022-1.967.034-.679.032-1.359.063-2.038.095Z" fill="#1d1d1b"/><path d="m136.994,96.376c-.186.051-.371.147-.557.147-6.745.008-13.489.008-20.234-.001-.204,0-.407-.117-.611-.18.254.012.508.033.762.034,6.88.001,13.759,0,20.639,0Z" fill="#1d1d1b"/><path d="m128.766,161.127c.656-.011,1.311-.022,1.967-.034-.673.045-1.346.09-2.019.135.018-.034.035-.068.051-.102Z" fill="#1d1d1b"/><path d="m128.766,161.127c-.016.034-.033.068-.051.102-.662-.002-1.325-.005-1.987-.007.679-.032,1.359-.063,2.038-.095Z" fill="#1d1d1b"/><path d="m123.849,35.036c-.619.045-1.239.09-1.858.135.619-.045,1.239-.09,1.858-.135Z" fill="#1d1d1b"/><path d="m123.798,161.129c.628.031,1.255.062,1.883.092-.611.003-1.222.005-1.833.008-.017-.033-.034-.067-.049-.1Z" fill="#1d1d1b"/><path d="m123.798,161.129c.016.034.032.067.049.1-.573-.042-1.146-.083-1.719-.125.556.008,1.113.016,1.67.025Z" fill="#1d1d1b"/><path d="m130.291,35.15c-.526-.038-1.052-.076-1.577-.114.51.003,1.019.005,1.529.008.019.034.035.07.048.106Z" fill="#1d1d1b"/><path d="m121.095,35.183c-.471.046-.942.092-1.413.138.471-.046.942-.092,1.413-.138Z" fill="#1d1d1b"/><path d="m130.291,35.15c-.014-.037-.03-.072-.048-.106.316.038.632.076.949.114-.3-.002-.6-.005-.9-.007Z" fill="#1d1d1b"/></g></svg>