<?xml version="1.0" encoding="UTF-8"?><svg id="Layer_1" xmlns="http://www.w3.org/2000/svg" viewBox="0 0 245.558 196.1"><g id="_3VeBEU"><path d="m209.581,101.518l-.034-.008-.032.014c0-1.065,0-2.129,0-3.194.021.02.043.021.066.005v3.183Z" fill="#7d7d7d"/><path d="m209.515,98.33c0,1.065,0,2.129,0,3.194-.122,1.178-.211,2.361-.377,3.533-.145,1.025-.319,2.052-.58,3.052-1.15,4.411-3.189,8.269-7.017,10.974-1.464,1.034-3.08,1.752-4.826,2.135-.957.21-1.943.292-2.919.406-.485.056-.978.086-1.465.072-1.631-.049-3.239-.28-4.807-.739-1.201-.352-2.349-.843-3.393-1.538-.447-.298-.828-.694-1.254-1.025-.3-.233-.603-.487-.948-.631-.429-.179-.759.075-.805.54-.016.155-.013.313-.013.47,0,4.593,0,9.187,0,13.78v.413h-13.293v-52.703h13.143c0,.601-.012,1.201.004,1.8.013.48.021.966.1,1.438.122.726.489.847,1.068.381.206-.165.403-.35.569-.554,1.385-1.7,3.188-2.761,5.241-3.437,1.219-.401,2.467-.652,3.758-.652.809,0,1.622-.053,2.426.013,1.344.11,2.651.422,3.924.877,4.249,1.517,7.259,4.389,9.213,8.41.746,1.536,1.283,3.149,1.593,4.829.199,1.08.352,2.169.502,3.257.078.566.105,1.138.156,1.708Zm-20.972,13.954c1.395.112,2.682-.181,3.834-.96,1.604-1.085,2.414-2.708,2.928-4.497.579-2.016.77-4.096.777-6.181.005-1.416-.127-2.836-.262-4.248-.111-1.164-.443-2.285-.965-3.336-.843-1.697-2.192-2.81-4.017-3.303-.965-.261-1.96-.347-2.967-.327-1.227.025-2.349.355-3.355,1.053-1.357.941-2.156,2.286-2.733,3.796-.462,1.21-.697,2.47-.857,3.744-.093.745-.103,1.501-.124,2.253-.025.908-.052,1.817-.021,2.723.022.661.138,1.319.21,1.979.134,1.223.412,2.404.916,3.535.74,1.662,1.958,2.804,3.669,3.396.959.331,1.96.461,2.966.374Z"/><path d="m35.987,93.865h13.752c0,.143,0,.272,0,.401.006,2.423-.07,4.85.047,7.267.083,1.714.8,3.252,1.964,4.548,1.103,1.228,2.505,1.95,4.091,2.289.715.153,1.474.186,2.208.151,1.808-.088,3.562-.425,5.08-1.504,1.137-.808,1.944-1.854,2.425-3.187.396-1.096.54-2.213.54-3.353.009-12.297.006-24.593.006-36.89v-.452h14.2c.005.094.012.175.012.257,0,12.405.009,24.81-.011,37.215-.003,1.941-.284,3.855-.779,5.746-.874,3.338-2.482,6.23-5.019,8.578-2.192,2.029-4.766,3.378-7.641,4.164-.733.2-1.463.422-2.208.566-.846.164-1.707.256-2.562.375-2.159.301-4.33.295-6.501.209-.806-.032-1.609-.14-2.413-.211-1.427-.127-2.825-.416-4.201-.8-5.513-1.537-9.621-4.686-11.675-10.188-.476-1.274-.837-2.579-1.001-3.928-.142-1.168-.279-2.344-.3-3.519-.045-2.567-.014-5.135-.014-7.736Z"/><path d="m164.775,102.721h-26.357c.053.751.055,1.471.167,2.173.131.826.293,1.657.553,2.449.625,1.907,1.875,3.235,3.818,3.866,1.139.37,2.293.406,3.48.305,1.683-.143,3.087-.815,4.225-2.034.382-.409.662-.913,1.003-1.362.073-.096.207-.207.313-.207,4.222-.01,8.444-.007,12.666-.006.023,0,.046.011.145.036-.062.429-.102.873-.193,1.305-.632,3.005-2.502,5.185-4.782,7.075-1.426,1.183-3.023,2.099-4.723,2.828-1.643.705-3.347,1.225-5.11,1.518-.934.155-1.882.249-2.828.3-1.21.065-2.427.122-3.636.063-1.02-.05-2.042-.223-3.045-.429-1.014-.208-2.034-.446-3.003-.805-1.923-.711-3.706-1.696-5.297-3.009-2.371-1.957-4.104-4.378-5.311-7.194-.655-1.528-1.09-3.114-1.386-4.747-.303-1.668-.336-3.346-.304-5.032.039-2.065.354-4.091.893-6.077.911-3.35,2.362-6.436,4.645-9.091,2.11-2.453,4.696-4.194,7.792-5.154,1.158-.359,2.343-.623,3.557-.687,1.031-.054,2.067-.101,3.098-.065,1.174.041,2.356.108,3.513.293,1.314.211,2.631.482,3.902.872,5.093,1.561,8.427,4.991,10.322,9.897.603,1.561,1.036,3.171,1.304,4.823.183,1.128.35,2.259.499,3.392.062.472.074.952.079,1.429.011,1.079.003,2.157.003,3.272Zm-12.459-7.96c.054-.979-.105-1.904-.38-2.793-.854-2.759-3.04-4.549-6-4.626-.507-.013-1.015-.023-1.521.004-.4.022-.812.053-1.192.167-1.869.564-3.138,1.78-3.762,3.628-.229.677-.388,1.383-.514,2.087-.089.496-.067,1.012-.095,1.533h13.464Z"/><path d="m122.615,102.715h-26.484c.033.691.008,1.365.11,2.02.135.864.301,1.735.576,2.562.642,1.927,1.896,3.302,3.874,3.931,1.111.353,2.243.386,3.406.29,1.278-.105,2.41-.523,3.427-1.27.767-.563,1.371-1.278,1.834-2.113.06-.108.225-.223.342-.224,4.198-.011,8.395-.009,12.593-.008.034,0,.068.013.127.025.045.732-.111,1.429-.317,2.121-.605,2.029-1.819,3.672-3.302,5.131-2.242,2.207-4.913,3.719-7.894,4.67-1.176.376-2.393.641-3.606.883-.764.152-1.554.2-2.336.237-1.138.054-2.282.11-3.418.063-.989-.041-1.981-.176-2.956-.355-1.025-.188-2.063-.391-3.04-.74-2.945-1.053-5.539-2.667-7.635-5.027-1.635-1.84-2.851-3.925-3.704-6.229-.507-1.368-.854-2.773-1.087-4.212-.253-1.554-.286-3.115-.245-4.684.06-2.255.403-4.469,1.052-6.623,1.401-4.646,3.737-8.679,7.815-11.515,1.931-1.343,4.071-2.189,6.384-2.632,1.623-.311,3.257-.352,4.893-.272,1.29.063,2.589.148,3.86.367,1.306.224,2.608.542,3.865.958,4.587,1.519,7.692,4.645,9.568,9.039.714,1.672,1.219,3.413,1.533,5.206.15.856.314,1.71.428,2.571.086.647.111,1.302.149,1.955.068,1.17.125,2.34.186,3.51.005.106,0,.212,0,.365Zm-26.018-7.963h13.457c0-.139.011-.26-.002-.377-.098-.883-.198-1.755-.491-2.614-.767-2.251-2.274-3.69-4.564-4.253-1.01-.249-2.06-.333-3.113-.171-.915.141-1.795.383-2.553.92-2.248,1.592-2.693,3.947-2.735,6.496Z"/></g></svg>