<?xml version="1.0" encoding="UTF-8"?><svg id="Layer_1" xmlns="http://www.w3.org/2000/svg" viewBox="0 0 245.558 196.1"><path d="m132.397,172.553c-.328.018-.656.036-.984.054-2.052.113-4.105.226-6.157.339-.12-.012-.239-.025-.359-.037-.732.005-1.464.009-2.196.014-.139-.014-.278-.029-.417-.043-1.981-.091-3.961-.182-5.942-.272-.994-.132-1.989-.265-2.983-.397l-2.968-.593c-.989-.152-1.979-.304-2.968-.456-.995-.247-1.99-.494-2.985-.741-.048-.04-.102-.052-.162-.037-.277-.126-.554-.252-.832-.377-.129-.01-.258-.021-.387-.031-.532-.183-1.064-.367-1.595-.55-.321-.076-.641-.153-.962-.229-.075-.054-.15-.109-.225-.163-.598-.199-1.196-.397-1.794-.596-.99-.396-1.98-.792-2.969-1.187-.123-.013-.246-.025-.37-.038l-2.602-1.208c-.802-.405-1.603-.809-2.405-1.214-.593-.334-1.187-.668-1.78-1.002-.403-.195-.806-.39-1.209-.585-1.145-.698-2.29-1.395-3.435-2.093-1.03-.721-2.061-1.442-3.091-2.163-.341-.236-.682-.472-1.022-.709-.582-.444-1.164-.888-1.747-1.333-1.859-1.637-3.77-3.219-5.563-4.925-1.897-1.805-3.682-3.729-5.515-5.6-.338-.404-.676-.808-1.014-1.212-.421-.581-.842-1.162-1.263-1.742-.572-.741-1.143-1.481-1.715-2.222-.191-.258-.382-.516-.572-.774-.081-.175-.144-.361-.245-.524-1.196-1.937-2.398-3.87-3.598-5.804-.259-.402-.519-.804-.778-1.206-.054-.075-.109-.15-.163-.225l-.237-.567c-.119-.265-.238-.53-.357-.795-.409-.86-.818-1.72-1.227-2.58-.053-.074-.107-.147-.16-.221,0,0,.008.008.008.008l-2.422-5.93c-.316-.992-.631-1.983-.947-2.975-.529-1.988-1.059-3.977-1.588-5.965-.156-.97-.312-1.94-.468-2.909-.191-1.01-.383-2.02-.574-3.03-.07-.744-.14-1.488-.21-2.232-.001-.073-.003-.146-.004-.219-.062-.177-.124-.355-.186-.532-.066-.99-.132-1.979-.198-2.969.003-.796.006-1.591.009-2.387.005-1.388.009-2.775.014-4.163-.008-.795-.015-1.59-.023-2.385.126-1.113.252-2.226.378-3.338.073-.871.147-1.742.22-2.613.141-.744.28-1.489.424-2.233.048-.247.109-.491.164-.736.156-.988.312-1.975.469-2.963.516-1.78,1.033-3.561,1.547-5.342.079-.273.142-.552.212-.828.27-.921.54-1.842.811-2.763.841-1.987,1.682-3.975,2.524-5.962.414-.923.827-1.846,1.241-2.768.066-.134.131-.268.197-.402.463-.845.926-1.69,1.389-2.535,1.329-2.063,2.658-4.127,3.987-6.19.121-.193.243-.385.364-.578.601-.805,1.202-1.61,1.803-2.414.392-.517.783-1.033,1.175-1.55.404-.47.808-.94,1.212-1.41.998-1.05,1.985-2.111,2.998-3.147,1.759-1.799,3.533-3.583,5.303-5.372.079-.08.169-.15.26-.217.709-.521,1.42-1.041,2.13-1.561.733-.537,1.467-1.073,2.2-1.61.207-.134.414-.268.621-.401,2.22-1.438,4.44-2.875,6.661-4.313.54-.281,1.08-.562,1.621-.843.459-.252.918-.505,1.377-.757.8-.402,1.599-.803,2.399-1.205,1.98-.811,3.961-1.622,5.941-2.434.796-.263,1.591-.526,2.387-.789,2.318-.646,4.636-1.292,6.954-1.938.66-.129,1.32-.257,1.98-.386,1.191-.201,2.383-.403,3.574-.604.196-.02.392-.04.587-.06.201-.048.401-.097.602-.145l.589-.053c1.386-.131,2.773-.261,4.159-.392.928,0,1.856-.002,2.784-.003,3.106.066,6.212.133,9.318.199.258.025.516.05.774.075.141.037.281.073.422.11.261.02.522.04.782.06,1.261.175,2.522.349,3.782.524.86.202,1.721.405,2.581.607,1.931.46,3.881.856,5.789,1.398,2.12.603,4.201,1.341,6.299,2.02.329.14.659.279.988.419.731.325,1.461.65,2.192.976.679.278,1.358.555,2.036.833.22.133.436.273.661.396,1.047.573,2.095,1.144,3.145,1.712,1.017.55,2.037,1.094,3.056,1.641,0,0-.006-.005-.006-.005.207.138.414.276.621.413.128.069.257.137.385.206.669.447,1.338.895,2.008,1.342.656.473,1.313.946,1.969,1.419.353.538.696.508,1.032-.016,0,0-.011.011-.011.011.963-.943,1.93-1.883,2.88-2.839.046-.047-.059-.244-.093-.372-.82-.609-1.64-1.217-2.46-1.826-.563-.387-1.127-.773-1.69-1.16-.47-.26-.939-.52-1.409-.78-1.06-.673-2.121-1.346-3.181-2.019-.128-.069-.256-.138-.384-.206-.862-.28-1.163-.873-1.027-1.753.049-.316-.013-.65-.024-.975.027-.214.055-.428.083-.65.465-.042.9-.082,1.335-.121.994,0,1.989,0,2.983,0,.99,0,1.979,0,2.969,0,.994,0,1.989,0,2.983,0,.99,0,1.979,0,2.969,0,.994,0,1.989,0,2.983,0,.99,0,1.979,0,2.969,0,.994,0,1.989,0,2.983,0,.99,0,1.979,0,2.969,0,.994,0,1.989,0,2.983,0,.99,0,1.979,0,2.969,0,.994,0,1.989,0,2.983,0,.488.038.976.075,1.498.116.032.22.063.439.094.658v2.974c.002.993.004,1.986.006,2.979-.002.991-.004,1.982-.006,2.973,0,.993,0,1.986,0,2.978s0,1.982,0,2.974c.002.993.004,1.986.006,2.979-.002.991-.004,1.982-.006,2.973,0,.993,0,1.986,0,2.978v2.974c0,.993,0,1.986,0,2.978s0,1.982,0,2.974c-.07.738-.14,1.476-.21,2.214-.69-.012-1.391.043-2.065-.064-.371-.059-.825-.31-1.023-.616-1.039-1.603-2.008-3.251-3.001-4.884-.275-.406-.55-.812-.825-1.218-.326-.467-.652-.934-.977-1.401-.414-.59-.828-1.179-1.243-1.769-.634-.97-.896-.063-1.275.253,0,0-.046.045-.046.045-.822.888-1.644,1.777-2.522,2.726.072.089.264.326.456.563.334.469.668.938,1.002,1.408.393.589.786,1.178,1.179,1.768.267.405.533.81.8,1.215,1.52,2.834,3.041,5.669,4.561,8.503.335.723.67,1.445,1.005,2.168.651,1.727,1.302,3.455,1.953,5.182.068.261.135.521.203.782.071.183.162.36.21.549.729,2.86,1.453,5.722,2.177,8.583.022.128.043.257.065.385-.006.198-.035.398-.014.593.385,3.636.886,7.264,1.125,10.91.151,2.315-.077,4.656-.154,6.985-.041,1.24-.093,2.481-.19,3.718-.068.871-.199,1.738-.336,2.601-.263,1.65-.551,3.296-.828,4.944-.027.126-.055.252-.082.377-.181.667-.37,1.333-.542,2.003-.484,1.887-.87,3.805-1.467,5.655-.598,1.855-1.404,3.644-2.119,5.462-.335.723-.669,1.445-1.004,2.168-.819,1.593-1.622,3.195-2.464,4.775-.677,1.271-1.402,2.517-2.106,3.773-.265.39-.53.78-.795,1.17-.401.603-.802,1.205-1.202,1.808-1.31,1.716-2.621,3.432-3.931,5.148-.607.725-1.215,1.449-1.822,2.174-.384.4-.769.799-1.153,1.199-1.325,1.314-2.651,2.628-3.976,3.942-.802.73-1.603,1.46-2.405,2.19-.256.198-.511.395-.767.593-.507.391-1.012.784-1.521,1.173-1.212.926-2.426,1.849-3.639,2.773-.157.089-.314.178-.471.268-.043.008-.076.031-.098.069-.666.43-1.333.86-1.999,1.289-.265.146-.529.292-.794.438-.328.19-.654.384-.985.57-1.969,1.11-3.938,2.218-5.907,3.326-.194.021-.409-.004-.579.072-1.477.66-2.946,1.339-4.418,2.012-1.136.425-2.273.851-3.409,1.276-.523.16-1.045.32-1.568.481-.079.05-.159.101-.238.151-.059-.019-.111-.007-.155.037-1.038.257-2.077.505-3.112.772-1.215.314-2.426.644-3.639.967-.924.155-1.849.311-2.773.466-.995.173-1.989.346-2.984.518-.328.022-.656.044-.984.066l-.801.138Zm-41.475-29.301s-.016-.012-.016-.012c.465.328.931.656,1.396.984.798.533,1.597,1.066,2.395,1.599.534.314,1.067.628,1.601.941.548.288,1.095.576,1.643.864,1.172.582,2.343,1.164,3.515,1.746,1.256.515,2.512,1.03,3.769,1.545l.968.28c1.463.438,2.926.877,4.388,1.315.125.025.25.051.375.076.8.187,1.601.375,2.401.562.863.18,1.726.361,2.589.541,2.259.21,4.515.521,6.779.601,2.021.071,4.053-.087,6.078-.197.878-.048,1.748-.229,2.622-.349.658-.089,1.315-.178,1.973-.267,2.248-.52,4.497-1.04,6.745-1.559.266-.066.533-.131.799-.197.273-.122.546-.245.819-.367.123-.008.247-.015.37-.023.274-.124.548-.248.822-.373.061.008.118-.004.171-.036.448-.12.919-.187,1.341-.369,1.615-.7,3.214-1.437,4.818-2.16,1.78-.992,3.56-1.985,5.34-2.977.164-.074.329-.149.493-.223.044-.019.071-.052.08-.098.675-.486,1.35-.972,2.024-1.458.262-.16.523-.321.785-.481,1.733-1.407,3.539-2.734,5.179-4.243,1.618-1.489,3.1-3.132,4.578-4.766.732-.81,1.32-1.749,1.974-2.63.062-.05.123-.099.185-.149.623-.89,1.245-1.781,1.868-2.671.04-.012.07-.036.089-.073.077-.164.153-.329.23-.493,1.039-1.786,2.078-3.573,3.116-5.359.372-.928.745-1.856,1.193-2.973.797-.718,1.002-1.999,1.417-3.169.073-.247.147-.494.22-.74.055-.083.11-.165.165-.248.077-.314.155-.629.232-.943.055-.083.11-.165.164-.248.067-.267.133-.534.2-.8.074-.197.149-.394.223-.591.197-.631.393-1.261.614-1.969h-.822c-.99.002-1.981.004-2.971.007-.994,0-1.987,0-2.981,0-.991-.004-1.981-.007-2.972-.011h-100.721c.273,1.058.519,2.008.765,2.958.328.862.656,1.725.984,2.587.911,2.118,1.822,4.235,2.733,6.353.202.395.403.789.605,1.184.388.666.777,1.333,1.165,1.999,1.187,1.777,2.375,3.554,3.562,5.332.537.67,1.074,1.339,1.611,2.009.294.364.587.727.881,1.091.631.692,1.263,1.384,1.894,2.077.332.338.665.675.997,1.013.731.709,1.463,1.418,2.194,2.127.329.279.657.558.986.838.585.464,1.17.928,1.755,1.392.339.268.678.535,1.016.803.196.134.392.267.589.401Zm8.722-39.701c.147.073.293.147.44.22.257.126.513.252.77.378.531.16,1.055.421,1.595.46,1.46.106,2.928.118,4.392.167.191-.024.382-.048.573-.073.99-.198,1.98-.397,2.97-.595.2-.067.401-.134.601-.201.208-.121.415-.242.623-.362.588-.39,1.176-.779,1.764-1.169.206-.206.411-.411.617-.617.819-.686,1.298-1.554,1.413-2.62.476-1.188.41-2.369-.042-3.546-.235-1.934-2.663-4.141-4.757-4.592-1.063-.244-2.125-.488-3.188-.732-.994,0-1.988,0-2.983,0-1.132.173-2.264.347-3.396.52-2.232.477-4.303,2.142-4.969,4.396-.069,1.27-.139,2.54-.208,3.81.088.258.177.516.265.773.119.284.239.567.358.851-.025.057-.013.104.036.142.092.074.185.148.277.222l-.065-.009-.016.064c.186.249.372.498.558.747,0,0-.011-.014-.011-.014.801.596,1.601,1.193,2.402,1.789l-.017-.01Zm-19.033-42.29c-.511.596-1.021,1.192-1.532,1.789-1.273,1.921-2.545,3.842-3.818,5.763-.201.385-.402.771-.603,1.156-.33.605-.66,1.211-.99,1.816-.491.999-1.02,1.981-1.462,3.001-.417.963-.74,1.966-1.105,2.951-.384.996-.767,1.992-1.151,2.988-.269.968-.538,1.935-.82,2.953h100.777l2.971-.01c.994,0,1.988,0,2.982,0,.99.002,1.98.004,2.97.005h.822c-.22-.705-.417-1.334-.613-1.963-.129-.333-.258-.665-.387-.998-.015-.131-.03-.262-.044-.393-.052-.083-.104-.166-.157-.248-.208-.71-.417-1.42-.625-2.129-.97-2.172-1.94-4.345-2.91-6.517-1.028-1.792-2.056-3.584-3.085-5.376-.639-.873-1.278-1.745-1.917-2.618-.082-.123-.165-.247-.247-.37-.858-1.024-1.715-2.047-2.573-3.071-.25-.337-.459-.716-.757-1.003-1.735-1.671-3.491-3.32-5.24-4.977-.954-.758-1.907-1.515-2.861-2.273-.29-.208-.581-.416-.871-.624-.723-.479-1.445-.958-2.168-1.437-.01-.047-.037-.08-.082-.098-.165-.079-.331-.159-.496-.238-1.733-.968-3.465-1.937-5.198-2.905-1.225-.598-2.429-1.245-3.682-1.776-.836-.355-1.741-.546-2.615-.81-.454-.144-.907-.288-1.361-.433-.075-.056-.15-.112-.224-.168l-1.396-.401c-1.983-.465-3.965-.929-5.948-1.394-.994-.125-1.988-.251-2.982-.376-1.452-.13-2.904-.26-4.356-.389-.532-.004-1.064-.007-1.596-.011-3.105.135-6.211.269-9.316.404-.465.127-.93.254-1.396.381-.196.011-.392.021-.588.032-.07-.004-.14-.008-.21-.012l-.231.147c-.06-.016-.113-.004-.161.035-.537.107-1.075.215-1.612.322-.45.104-.901.207-1.351.311-1.401.426-2.802.851-4.203,1.277-.387.139-.773.278-1.16.417-1.192.485-2.384.969-3.576,1.454-1.175.566-2.349,1.132-3.524,1.699-.416.203-.832.407-1.247.61-.524.292-1.048.585-1.572.877-1.934,1.365-3.869,2.73-5.803,4.094-.584.465-1.168.93-1.751,1.395-.267.253-.534.506-.8.76-.805.748-1.609,1.496-2.414,2.244-.321.324-.642.649-.963.973-.595.658-1.191,1.316-1.786,1.975-.329.398-.659.795-.988,1.193Zm48.801,29.375c-.058-.063-.117-.126-.175-.189h-12.302c-.064-.005-.163-.039-.188-.011-.393.461-.269,1.716.187,1.978h2.384c.2.136.399.271.599.407v8.929c-.2.2-.4.4-.6.6h-2.382c-.573.331-.569,1.647.006,2.007l2.375-.02c.994.007,1.988.013,2.982.02.99-.007,1.98-.013,2.97-.02.994.007,1.988.013,2.982.02.99-.007,1.98-.013,2.969-.02l2.982.02h1.574c.102-.073.204-.146.306-.219v-6.101h-2.276v1.135c-.539.789-1.078,1.577-1.617,2.366-.658.259-1.316.519-1.974.778-.658.018-1.316.037-1.973.055-.478-.009-.961-.063-1.433-.014-.514.053-.59-.205-.564-.605v-8.932c.144-.124.278-.339.433-.356.518-.055,1.043-.039,1.565-.05.332,0,.664,0,.996,0,.058-.061.116-.122.175-.182,0-.532,0-1.064,0-1.596Zm30.148,1.598c-.001-.533-.002-1.066-.003-1.6-.055-.062-.11-.125-.165-.187h-9.48v2.181h2.748c-1.575,2.888-3.095,5.673-4.659,8.541-.267-.468-.491-.873-.726-1.272-.845-1.437-1.694-2.872-2.541-4.308-.399-.802-.798-1.605-1.196-2.407-.085-.183-.169-.367-.254-.55l.057-.196h3.284v-1.988h-14.215c0,.423.037.754-.007,1.074-.118.866.21,1.205,1.098,1.117.753-.074,1.518-.03,2.278-.038.126.155.251.309.377.464.417.813.835,1.625,1.252,2.438,1.236,2.219,2.472,4.438,3.708,6.657.368.634.735,1.268,1.103,1.901.106.099.212.199.319.298.188.007.375.014.563.021,1.007,0,2.014,0,3.02,0l2.942-.021c.602.269.952.008,1.214-.535.306-.634.653-1.248.982-1.871.333-.793.663-1.586.999-2.378.072-.17.147-.342.245-.498.511-.816,1.029-1.627,1.545-2.44.056-.08.112-.159.169-.239.039-.048.049-.101.031-.159.264-.534.528-1.068.792-1.603.331-.536.661-1.072.992-1.608.419-.952,1.292-.481,1.968-.629h1.397c.055-.055.109-.11.164-.165Zm-72.588,12.124l.467-.442c.319-.584.638-1.169.956-1.753.23-.419.466-.834.688-1.256.895-1.699,1.786-3.401,2.678-5.102.657-1.075,1.313-2.151,1.97-3.226.074-.048.149-.096.223-.144.519-.012,1.038-.024,1.557-.036h1.322v-1.952h-9.262c-.13.121-.364.234-.373.363-.041.582-.018,1.168-.018,1.812h2.594c-.091.317-.159.555-.227.793-.074.128-.147.256-.221.384-.368.668-.737,1.337-1.105,2.005-.487.921-.974,1.841-1.461,2.762-.199.398-.398.797-.597,1.195-.328.466-.656.932-.96,1.364-.43-.75-.839-1.462-1.248-2.174-.045-.06-.09-.12-.135-.181-.145-.265-.29-.53-.435-.794-.057-.075-.114-.151-.17-.226-.342-.652-.685-1.304-1.027-1.955-.446-.797-.892-1.594-1.337-2.39-.068-.13-.135-.26-.203-.39-.008-.205-.016-.411-.024-.616h2.984c.056-.055.111-.111.167-.166.015-.528.03-1.057.044-1.585.034-.042.068-.084.102-.127-.106-.025-.211-.05-.317-.074h-13.493c-.132.12-.368.233-.377.362-.041.576-.018,1.157-.018,1.815.911,0,1.755.051,2.59-.018.572-.047.891.192,1.152.626.269.46.538.919.807,1.379.395.729.79,1.459,1.185,2.188.255.457.51.914.766,1.371.54.997,1.08,1.994,1.62,2.991l.207.391c.354.706.706,1.413,1.064,2.117.325.641.801.964,1.541.708.978,0,1.955,0,2.933,0,1.007,0,2.014,0,3.021,0,.123-.007.246-.014.369-.021Zm78.555-13.944c-.195.017-.389.034-.584.051-.136.049-.272.098-.408.147-.128.015-.256.031-.385.046-.631.203-1.328.296-1.882.628-1.751,1.049-3.294,2.312-3.65,4.509l-.179.602c-.018.129-.036.258-.053.387,0,.466,0,.932,0,1.398.332,3.917,4.006,6.239,7.747,6.51.195.02.39.041.586.061,1.062-.018,2.123-.037,3.185-.055.267-.002.534-.004.801-.006.201-.048.402-.095.603-.143.526-.15,1.052-.3,1.579-.449,2.017-.184,5.2-2.875,5.342-5.326.052-.267.104-.534.156-.801v-1.179c-.061-.334-.123-.668-.184-1.003-.797-2.698-2.674-4.242-5.313-4.972-.995-.184-1.989-.367-2.984-.551h-2.969c-.333.001-.666.002-.999.003l-.408.141Z" fill="#1d1d1b"/><path d="m105.956,102.539c-.317.007-.634.013-.951.02-.526-.333-1.051-.667-1.577-1l-1.05-2.961c-.002-.99-.005-1.98-.007-2.97.481-.922.963-1.844,1.444-2.766.831-.905,1.944-.511,2.943-.638.196.084.392.167.588.251.257.2.513.4.77.601l-.006-.006.235.375c.22.594.439,1.188.659,1.782.07,1.189.141,2.377.211,3.566-.107.391-.214.781-.322,1.172-.195.398-.39.795-.585,1.193l.005-.006c-.786.463-1.572.925-2.359,1.388Z" fill="#1d1d1b"/><path d="m166.93,92.63c.957-.014,1.915-.027,2.872-.041,0,0,.013.005.013.005.156.087.311.174.467.261l-.013-.015c2.031,1.718,1.966,7.346.028,9.099l-.382.342c-.995.029-1.989.059-2.984.088-.249-.203-.498-.406-.747-.609-.906-1.028-1.175-2.305-1.41-3.596,0-.585.002-1.17.003-1.755.436-1.275.687-2.645,1.813-3.57.113-.07.227-.14.34-.21Z" fill="#1d1d1b"/></svg>