<?xml version="1.0" encoding="UTF-8"?><svg id="Layer_1" xmlns="http://www.w3.org/2000/svg" viewBox="0 0 245.558 196.1"><path d="m220.117,70.066c.022,1.077.043,2.154.065,3.23,0,1.054.001,2.107.002,3.161,0,1.082,0,2.165,0,3.247-.009,1.054-.019,2.109-.029,3.163-.02,1.074-.04,2.148-.06,3.222-.042,1.061-.083,2.122-.125,3.183-.029,1.075-.059,2.149-.089,3.224-.009.987-.019,1.973-.028,2.96-.134,1.069-.308,2.135-.39,3.209-.088,1.155-.089,2.316-.129,3.474-.041,1.059-.082,2.118-.123,3.177-.117,1.071-.235,2.143-.352,3.214-.073,1.059-.146,2.117-.219,3.176-.126,1.084-.251,2.167-.377,3.251-.079,1.05-.159,2.1-.238,3.15-.105,1.063-.209,2.125-.314,3.188-.142.997-.285,1.995-.427,2.992-.188,1.155-.377,2.31-.565,3.465-.072.495-.144.989-.216,1.484-.114.587-.229,1.175-.343,1.762-.17,1.045-.34,2.091-.511,3.136-.219,1.074-.438,2.148-.657,3.222-.234,1.063-.468,2.127-.702,3.19-.27,1.069-.541,2.138-.811,3.208-.074.285-.149.57-.223.855-.224.772-.448,1.544-.672,2.316-.406,1.077-.812,2.155-1.219,3.232-.933,2.137-1.866,4.274-2.798,6.411-.937,1.391-1.842,2.805-2.822,4.165-.568.787-1.258,1.487-1.893,2.226-.158.07-.35.104-.47.215-1.796,1.675-3.81,3.047-5.921,4.285-2.137.984-4.274,1.967-6.41,2.951-1.077.357-2.154.714-3.23,1.071-2.127.517-4.254,1.033-6.381,1.55-1.067.207-2.134.414-3.201.622-1.066.142-2.131.285-3.197.427-1.058.098-2.117.195-3.175.293-1.079.114-2.158.227-3.237.341-1.052.048-2.105.095-3.157.143-1.084.095-2.167.19-3.251.285-1.069.073-2.137.147-3.206.22-.925.068-1.851.136-2.776.204-.149-.004-.298-.009-.446-.013-1.143.065-2.287.131-3.43.196-.981.025-1.962.049-2.943.074-1.074.066-2.148.133-3.223.199-1.064.071-2.128.143-3.191.214-1.072,0-2.144,0-3.216,0-1.221.058-2.442.116-3.663.174-.049-.006-.098-.008-.147-.004-.09,0-.181,0-.271,0-.052-.003-.104-.003-.156,0-.09,0-.181,0-.271,0-.048-.003-.096-.007-.145-.012-.583.011-1.167.023-1.75.034-1.063.012-2.127.025-3.19.037-1.08.01-2.159.019-3.239.029-1.067.042-2.134.085-3.201.127-1.06.008-2.12.015-3.18.022l-3.186-.153-3.221-.059c-1.075-.006-2.149-.012-3.224-.018-1.07-.046-2.139-.092-3.209-.138-1.062-.019-2.124-.039-3.186-.058-1.071-.06-2.142-.12-3.213-.18-1.069-.017-2.138-.034-3.207-.052-1.061-.065-2.123-.131-3.184-.196-2.132-.131-4.264-.261-6.397-.392-1.078-.071-2.156-.142-3.233-.213l-3.174-.213c-1.081-.063-2.162-.127-3.243-.19-1.055-.081-2.111-.161-3.166-.242-1.088-.107-2.175-.215-3.263-.322-1.051-.11-2.101-.221-3.152-.331l-3.207-.447c-1.07-.214-2.141-.427-3.211-.641-2.124-.581-4.247-1.163-6.371-1.744-1.077-.409-2.154-.818-3.231-1.227-.436-.21-.872-.419-1.308-.629-.55-.238-1.1-.475-1.65-.713-1.151-.627-2.301-1.254-3.452-1.881-.274-.152-.547-.305-.821-.457-.784-.573-1.567-1.146-2.351-1.719-.567-.498-1.134-.995-1.701-1.493-.499-.499-.997-.997-1.496-1.496-.44-.556-.879-1.113-1.319-1.669-.566-.854-1.132-1.709-1.698-2.563-.081-.21-.161-.42-.242-.629-.505-1.074-1.009-2.149-1.514-3.223-.842-2.133-1.683-4.266-2.525-6.399-.285-1.066-.57-2.131-.855-3.197-.276-1.078-.553-2.157-.829-3.235-.164-.701-.328-1.402-.492-2.102-.064-.356-.128-.712-.192-1.068-.22-1.074-.44-2.149-.66-3.223-.207-1.062-.415-2.123-.622-3.185-.158-1.078-.315-2.155-.473-3.233-.193-1.061-.385-2.123-.578-3.184-.272-2.134-.545-4.267-.817-6.401-.084-1.07-.167-2.14-.251-3.21-.133-1.061-.267-2.122-.4-3.183-.08-1.075-.161-2.15-.241-3.225-.071-1.066-.142-2.131-.213-3.197-.078-1.067-.155-2.134-.233-3.201-.065-1.069-.13-2.138-.195-3.206-.071-1.07-.142-2.141-.214-3.211-.011-.999-.023-1.999-.034-2.998-.058-1.136-.116-2.271-.174-3.407-.012-1.072-.025-2.143-.037-3.215-.027-1.13-.053-2.26-.08-3.39-.031-1.001-.062-2.002-.093-3.003,0-1.069,0-2.139,0-3.208.031-1.072.062-2.144.093-3.216.026-1.059.051-2.118.077-3.177.011-1.071.022-2.141.034-3.212.071-1.07.142-2.141.214-3.211.123-1.073.247-2.145.37-3.218.09-1.063.181-2.126.271-3.19.142-1.066.285-2.131.427-3.197.207-1.067.414-2.135.62-3.202.067-.152.135-.303.202-.455.218-.916.437-1.833.655-2.749.356-1.072.712-2.143,1.068-3.215.437-1.063.874-2.126,1.312-3.189,0,0-.01.007-.01.007.653-1.071,1.306-2.142,1.959-3.212,1.083-1.07,1.496-2.629,2.794-3.586.91-.671,1.502-1.757,2.371-2.501.818-.7,1.812-1.194,2.728-1.779.91-.517,1.82-1.034,2.729-1.552.078-.052.155-.104.233-.156,1.064-.446,2.128-.892,3.191-1.338,2.14-.712,4.28-1.425,6.42-2.137,1.067-.278,2.134-.557,3.201-.835,1.069-.199,2.139-.398,3.208-.597,1.067-.156,2.135-.312,3.202-.468,1.066-.141,2.131-.282,3.197-.423.764-.077,1.532-.129,2.291-.237,1.373-.196,2.741-.426,4.111-.642,1.074-.076,2.148-.152,3.222-.228,1.065-.131,2.13-.262,3.195-.393,1.066-.071,2.131-.142,3.197-.214l3.194-.25c1.077-.07,2.153-.141,3.23-.211,1.06-.071,2.119-.142,3.179-.213,1.071-.06,2.142-.12,3.213-.18,1.058-.027,2.117-.054,3.175-.081,1.083-.054,2.165-.108,3.248-.162,1.066-.061,2.131-.122,3.197-.182,1.069-.007,2.137-.014,3.206-.02,1.058-.011,2.116-.022,3.173-.032,1.004-.051,2.007-.102,3.01-.153,1.13.017,2.26.034,3.389.051,1.079-.02,2.158-.04,3.237-.06,1.067,0,2.135,0,3.202,0,1.069,0,2.137,0,3.206,0,1.067.001,2.134.002,3.202.003,1.061.007,2.123.013,3.184.02,1.071.052,2.142.105,3.213.157,1.071.011,2.142.022,3.213.033,1.062.053,2.124.105,3.185.158,1.073.019,2.147.039,3.22.058,1.066.059,2.131.118,3.197.177,1.077.07,2.154.139,3.23.209l3.168.188c1.083.072,2.167.145,3.25.217,1.052.07,2.105.14,3.157.209,1.079.082,2.159.163,3.238.245,1.065.082,2.13.165,3.195.247,1.071.132,2.142.264,3.213.396,1.061.095,2.122.189,3.184.284,2.137.272,4.274.544,6.411.815,1.07.142,2.141.285,3.211.427,1.069.208,2.137.416,3.206.623,1.067.219,2.134.439,3.202.658,2.133.641,4.267,1.282,6.4,1.922,1.067.421,2.134.842,3.201,1.263,2.126,1.229,4.253,2.457,6.379,3.686.07.069.14.138.211.207.998.926,1.995,1.853,2.993,2.78.081.131.162.262.243.393,1.431,2.136,2.861,4.273,4.292,6.409.854,2.132,1.707,4.264,2.561,6.397.278,1.069.557,2.138.835,3.206.156,1.064.311,2.129.467,3.193.189,1.071.377,2.143.566,3.214.172,2.131.345,4.261.517,6.392.071,1.081.142,2.161.214,3.242.058,1.06.117,2.12.175,3.18Zm-79.033,67.273l.012.002c-.43-.51-.86-1.019-1.291-1.529-.307-.285-.595-.595-.925-.85-1.625-1.256-3.483-1.965-5.495-2.299-.983-.162-1.967-.323-2.95-.485-1.155-.116-2.311-.232-3.466-.349-1.064-.013-2.129-.025-3.193-.038-1.002.011-2.004.022-3.006.032-1.134.06-2.267.121-3.401.181-1.675.206-3.373.305-5.018.652-1.277.27-2.488.85-3.729,1.293-.299.193-.598.386-.897.579-1.058.939-2.115,1.878-3.173,2.818-.075.142-.149.285-.224.427-.579.915-1.159,1.83-1.738,2.745-.431,1.063-.862,2.126-1.292,3.19-.399,1.08-.798,2.16-1.196,3.24-.31,1.06-.621,2.121-.931,3.181-.355,1.078-.711,2.155-1.066,3.233-.047.081-.094.162-.141.243-.29.988-.58,1.976-.871,2.963-.35,1.075-.699,2.149-1.049,3.224-.297,1.064-.594,2.128-.891,3.192-.212.625-.434,1.247-.633,1.876-.247.781-.065,1.206.871,1.145.915-.061,1.837-.022,2.755-.028,1.069.001,2.137.002,3.206.003,1.069,0,2.138,0,3.206,0,1.067,0,2.134,0,3.201,0,1.069,0,2.138,0,3.206,0,1.067,0,2.134,0,3.201,0,1.069,0,2.138,0,3.206,0,1.067,0,2.134,0,3.201,0,1.069,0,2.138,0,3.206,0,1.067,0,2.134,0,3.201,0,1.069,0,2.138,0,3.206,0,1.067,0,2.134,0,3.201,0,1.069,0,2.138,0,3.206,0,1.067,0,2.134,0,3.201,0,1.069,0,2.138,0,3.206,0,1.067,0,2.134,0,3.201,0h3.206q2.208.056,1.539-2.092c-.093-.299-.191-.597-.286-.896-1.638-5.348-3.277-10.696-4.915-16.045-.403-1.075-.807-2.149-1.21-3.224-.232-.694-.368-1.442-.717-2.072-.771-1.395-1.65-2.731-2.484-4.091l-.254-.224Zm66.409-48.057l-.018-3.18c0-3.211,0-6.423,0-9.634,0-1.06,0-2.12.001-3.18.008-1.524.038-3.048.013-4.571-.01-.617-.142-1.232-.218-1.847-.011-1.061-.021-2.123-.032-3.184-.117-1.07-.234-2.139-.351-3.209-.134-1.085-.269-2.171-.403-3.256-.163-1.058-.325-2.116-.488-3.174-.278-1.067-.557-2.134-.835-3.201-.861-2.137-1.721-4.274-2.582-6.411-.57-.919-1.139-1.839-1.709-2.758-.137-.147-.274-.293-.41-.44-.996-.992-1.992-1.985-2.988-2.977-.13-.078-.26-.155-.39-.233-.941-.569-1.882-1.139-2.824-1.708-1.055-.441-2.109-.881-3.164-1.322-.143-.07-.286-.139-.43-.208-.941-.335-1.882-.67-2.824-1.005-1.065-.294-2.129-.589-3.194-.883-1.561-.529-2.388.166-2.314,1.944l.16,3.205c.004,1.063.008,2.126.013,3.189-.007,1.075-.013,2.149-.02,3.224,0,1.054,0,2.108,0,3.162-.058,1.073-.117,2.146-.175,3.22-.048,1.081-.097,2.162-.145,3.242-.022,1.055-.043,2.109-.065,3.164-.066,1.074-.132,2.149-.198,3.223-.07,1.059-.14,2.118-.209,3.177-.002,1.077-.004,2.154-.005,3.23-.07,1.059-.141,2.119-.211,3.178-.069,1.078-.138,2.155-.207,3.233-.018.848-.035,1.696-.053,2.545-.055.219-.11.438-.165.658l-.216,3.175c-.063,1.081-.127,2.162-.19,3.243l-.218,3.157c-.095,1.069-.191,2.139-.286,3.208-.066,1.075-.131,2.15-.197,3.225-.085,1.055-.17,2.109-.254,3.164-.117,1.076-.233,2.151-.35,3.227-.083,1.071-.167,2.142-.25,3.214-.121,1.062-.242,2.124-.363,3.186-.093,1.074-.185,2.148-.278,3.222l-.213,3.211c-.202,2.139-.404,4.278-.606,6.416-.085,1.063-.17,2.127-.256,3.19-.129,1.073-.257,2.146-.386,3.219-.083,1.065-.166,2.129-.249,3.194-.084,1.054-.169,2.109-.253,3.163-.117,1.076-.235,2.152-.352,3.228-.096,1.06-.192,2.12-.288,3.18-.117,1.076-.233,2.151-.35,3.227l-.291,3.181c-.261,2.144-.521,4.287-.782,6.431-.143,1.076-.285,2.153-.428,3.229-.131,1.056-.263,2.113-.394,3.169-.106,1.063-.212,2.126-.318,3.189.014,1.081.027,2.163.041,3.244.576.416,1.153.832,1.729,1.248,1.061-.135,2.122-.271,3.184-.406.857-.207,1.714-.413,2.57-.62.22-.065.439-.131.659-.196,1.061-.422,2.122-.845,3.182-1.267,2.138-1.152,4.276-2.304,6.413-3.456.794-.56,1.589-1.119,2.383-1.679.284-.213.568-.425.851-.639.773-.865,1.547-1.731,2.32-2.596.289-.422.578-.844.867-1.267.365-.634.731-1.268,1.096-1.902.427-.998.855-1.997,1.282-2.995.627-2.217,1.255-4.435,1.882-6.652.227-.986.454-1.973.681-2.959.2-1.149.4-2.299.601-3.448.202-1.065.405-2.13.607-3.195.361-2.142.722-4.284,1.084-6.426l.425-3.401c.138-1.005.276-2.009.414-3.014.132-1.056.264-2.113.396-3.169.081-1.079.163-2.159.244-3.238.082-1.137.164-2.273.247-3.41.071-.994.143-1.988.214-2.981.071-1.07.142-2.141.213-3.211.064-1.069.129-2.138.193-3.207.086-2.136.173-4.273.259-6.409.057-1.069.113-2.139.17-3.208ZM63.341,47.648c.001-1.069.002-2.137.003-3.206-.012-1.072-.025-2.145-.037-3.217v-3.179c.009-.742-.034-1.489.036-2.225.36-3.784-.956-3.379-3.56-2.601-.03.009-.052.047-.077.071-2.134.731-4.269,1.463-6.403,2.194-.601.288-1.242.513-1.794.875-1.56,1.023-3.084,2.102-4.622,3.159-.501.572-1.002,1.145-1.503,1.717-1.671,1.867-2.78,4.056-3.664,6.375-.358.996-.715,1.993-1.073,2.989-.238,1.131-.473,2.262-.713,3.392-.233,1.093-.471,2.184-.707,3.276-.134,1.056-.268,2.112-.402,3.169-.081,1.08-.161,2.16-.242,3.24-.018,1.071-.036,2.141-.054,3.212-.052,1.065-.105,2.13-.157,3.195,0,1.06,0,2.119,0,3.179-.016,1.067-.033,2.134-.049,3.201,0,1.078,0,2.157,0,3.235,0,1.058,0,2.115,0,3.173,0,1.078,0,2.157,0,3.235.016,1.067.033,2.134.049,3.201.017,1.053.033,2.105.05,3.158l.123,3.239c.03,1.056.06,2.113.091,3.169.072,1.089.144,2.178.215,3.267.055,1.053.109,2.106.164,3.158.08,1.081.159,2.162.239,3.243.128,1.058.256,2.116.383,3.175.076,1.074.153,2.148.229,3.222.26,2.144.52,4.288.78,6.431.156,1.055.312,2.109.468,3.164.153,1.065.307,2.13.46,3.195.203,1.071.405,2.142.607,3.213.202,1.08.404,2.16.605,3.241.426,2.208.851,4.415,1.277,6.623.285.997.569,1.994.854,2.991.309,1.059.617,2.118.926,3.177.28.777.56,1.554.841,2.33.203.364.407.728.61,1.092,1.969,3.967,5.027,6.825,8.962,8.787.441.266.881.531,1.322.797.706.356,1.412.712,2.118,1.068,1.072.499,2.144.999,3.216,1.498,2.126.554,4.252,1.108,6.379,1.662,1.22.12,2.418.182,3.059-1.189.058-1.081.116-2.162.174-3.244l-.427-3.197c-.129-1.081-.258-2.162-.386-3.244-.105-1.063-.209-2.125-.314-3.188-.133-1.057-.266-2.113-.399-3.17-.13-1.073-.259-2.146-.389-3.218-.085-1.062-.171-2.125-.256-3.187-.128-1.073-.257-2.145-.385-3.218-.216-2.137-.431-4.275-.647-6.412l-.273-3.221c-.123-1.062-.245-2.125-.368-3.187-.071-1.066-.142-2.131-.214-3.197l-.252-3.193c-.08-1.08-.16-2.16-.24-3.24-.127-1.059-.254-2.117-.381-3.176l-.229-3.222c-.088-1.053-.176-2.105-.264-3.158-.12-1.081-.24-2.161-.361-3.242-.208-2.135-.416-4.271-.623-6.406-.082-1.071-.165-2.142-.247-3.212-.071-1.06-.142-2.119-.213-3.179l-.427-3.229-.174-3.408-.212-2.989c-.073-1.068-.146-2.137-.22-3.205-.013-1.072-.026-2.143-.039-3.215-.071-1.058-.142-2.117-.214-3.175-.071-1.077-.143-2.155-.214-3.232-.07-1.059-.139-2.118-.209-3.177-.06-1.071-.12-2.142-.18-3.213-.011-1.065-.022-2.13-.034-3.195l-.219-3.23c-.007-1.056-.013-2.112-.02-3.169-.052-1.074-.103-2.148-.155-3.222Zm90.099,28.843c.286-1.076.572-2.153.858-3.229.283-1.059.566-2.118.849-3.177.277-1.08.555-2.159.832-3.239.023-.205.045-.411.068-.616.27-.86.539-1.721.809-2.581.239-.98.478-1.96.717-2.941.271-1.149.543-2.299.814-3.448.563-2.135,1.125-4.271,1.688-6.406.286-1.072.571-2.143.857-3.215.279-1.062.558-2.124.838-3.185.522-2.129,1.043-4.258,1.564-6.387.287-.996.573-1.992.86-2.988.271-1.149.543-2.299.814-3.448.372-.825-.043-1.172-.799-1.28-.66-.094-1.325-.152-1.988-.225-1.071-.131-2.142-.261-3.214-.392-1.065-.083-2.129-.166-3.194-.249-1.066-.071-2.131-.142-3.197-.214-1.067-.065-2.134-.13-3.201-.195-1.069-.006-2.138-.013-3.207-.019-1.067-.065-2.134-.13-3.201-.195-.997-.006-1.994-.012-2.991-.019-1.134-.052-2.268-.103-3.402-.155-1.077-.014-2.154-.027-3.23-.041l-3.196-.025c-1.076-.051-2.152-.101-3.228-.152-1.056-.007-2.112-.014-3.168-.021-1.074.066-2.148.133-3.223.199-1.063,0-2.127.001-3.19.002-1.072,0-2.145-.001-3.217-.002h-3.192c-.997.065-1.994.13-2.991.195-1.142,0-2.284,0-3.426,0-1.074.02-2.147.04-3.221.059-1.062.051-2.125.103-3.187.154-1.074.021-2.148.043-3.222.064-1.056.062-2.113.123-3.169.185-1.077.072-2.154.144-3.231.217-1.061.135-2.123.271-3.184.406-1.069.137-2.137.273-3.206.41-.833.029-1.678.045-1.469,1.275.572,2.146,1.145,4.291,1.717,6.437l.843,3.175c.274,1.071.547,2.142.821,3.213.556,2.149,1.113,4.298,1.669,6.447.285,1.139.57,2.277.855,3.416.286.996.573,1.992.859,2.989.521,2.129,1.043,4.258,1.564,6.387.279,1.062.558,2.124.837,3.185.291,1.074.581,2.148.872,3.222.328,1.08.657,2.159.985,3.239.241,1.048.482,2.096.724,3.144.332,1.152.665,2.305.997,3.457.588,2.054,1.175,4.107,1.763,6.161l1.085,3.222c.83,2.144,1.66,4.288,2.489,6.432.447,1.058.893,2.116,1.34,3.174.355.706.71,1.413,1.066,2.119.214.361.429.723.643,1.084.903,1.088,1.807,2.177,2.71,3.265,1.084.989,2.167,1.978,3.251,2.968.129.059.259.117.389.176.938.492,1.877.983,2.815,1.475,1.074.28,2.148.56,3.222.84,1.069.088,2.139.176,3.208.264l3.202.158c1.059.002,2.118.003,3.177.005,1.077-.002,2.154-.004,3.23-.006,1.059-.071,2.117-.142,3.176-.213,1.072-.201,2.143-.401,3.215-.602,2.467-.525,4.47-1.925,6.431-3.405.577-.562,1.154-1.124,1.732-1.685.634-.951,1.276-1.896,1.9-2.853.778-1.192,1.541-2.393,2.31-3.591.296-.921.535-1.865.902-2.756.511-1.239,1.119-2.438,1.685-3.655.372-1.054.745-2.107,1.116-3.162l1.06-3.001c.343-1.15.685-2.299,1.028-3.449.298-1.067.596-2.134.893-3.201.118-.295.236-.59.354-.885.213-.771.427-1.542.64-2.313Z" fill="#1d1d1b"/></svg>