<?xml version="1.0" encoding="UTF-8"?><svg id="Layer_1" xmlns="http://www.w3.org/2000/svg" viewBox="0 0 245.558 196.1"><path d="m234.6,100.025c-.094-.402-.164-.81-.286-1.203-.21-.676-.452-1.343-.678-2.014-.129-.382-.254-.766-.381-1.148-.664-1.295-1.36-2.571-2.242-3.737-.331-.438-.648-.886-.972-1.329-.078-.099-.156-.199-.235-.298-1.349-1.522-2.783-2.959-4.308-4.306-.258-.214-.515-.429-.773-.643-.757-.552-1.512-1.108-2.273-1.656-.815-.587-1.636-1.165-2.453-1.749-.083-.059-.157-.13-.236-.195-.411-.258-.822-.517-1.234-.775-.25-.125-.506-.24-.749-.377-.922-.521-1.839-1.048-2.757-1.577-.051-.029-.083-.09-.124-.136-.528-.267-1.051-.544-1.585-.798-.978-.464-1.965-.911-2.946-1.37-1.027-.481-2.045-.983-3.079-1.449-.734-.331-1.489-.618-2.234-.924-1.381-.519-2.761-1.038-4.143-1.556-.28-.105-.562-.203-.843-.304-1.298-.45-2.597-.898-3.893-1.354-.166-.058-.318-.158-.477-.238-.215-.062-.431-.125-.646-.187-.959-.281-1.919-.559-2.877-.843-.699-.207-1.394-.424-2.092-.636-.083.002-.166.003-.249.005-.048-.027-.095-.054-.143-.08-.57-.13-1.141-.261-1.711-.391-.225-.043-.52.131-.646-.212l-2.115-.556c-.046-.029-.091-.057-.136-.086l.003.003c-.418-.098-.835-.202-1.254-.291-1.156-.245-2.314-.481-3.469-.729-.093-.02-.173-.103-.259-.156-.955-.199-1.91-.397-2.865-.596-.506-.096-1.013-.186-1.516-.292-.289-.061-.572-.149-.858-.225-.44-.051-.883-.085-1.321-.156-.534-.087-1.065-.198-1.595-.309-.608-.127-1.213-.266-1.82-.399-.637-.098-1.274-.2-1.912-.294-.701-.104-1.404-.192-2.104-.304-.331-.053-.656-.143-.983-.217-.79-.094-1.581-.177-2.37-.283-.872-.118-1.741-.257-2.611-.387-.176-.039-.351-.092-.529-.116-.921-.12-1.842-.239-2.765-.347-.565-.066-1.133-.109-1.7-.162-.205.003-.413.03-.614.004-.856-.113-1.71-.246-2.566-.366-.602-.084-1.205-.159-1.808-.238-.998-.043-1.999-.062-2.995-.137-.669-.05-1.332-.179-1.998-.273-1.704-.117-3.407-.233-5.111-.35-1.211-.052-2.421-.102-3.632-.158-.121-.006-.24-.046-.36-.071-.207.004-.414.017-.62.01-1.266-.041-2.531-.092-3.797-.128-5.771-.166-11.543-.179-17.315-.013-1.613.046-3.227.086-4.84.129-1.414.075-2.828.151-4.242.226-1.661.11-3.322.22-4.983.33-.619.058-1.238.111-1.856.176-.757.079-1.513.178-2.271.248-.287.026-.579-.005-.869-.01-.492.047-.983.096-1.475.141-.508.046-1.031.025-1.52.146-.661.164-1.319.234-1.992.222-.936.119-1.873.232-2.808.361-.504.07-1.003.181-1.508.248-.221.029-.451-.007-.678-.013-.707.102-1.417.19-2.122.31-.95.161-1.894.364-2.865.348-.305.084-.605.191-.915.247-.638.116-1.28.211-1.922.304-.717.104-1.437.198-2.155.296-.391.094-.778.201-1.172.28-.611.122-1.225.233-1.841.332-.656.106-1.316.191-1.974.286-.658.166-1.315.333-1.974.495-.173.043-.349.071-.523.106-.825.158-1.65.316-2.474.473-.664.157-1.329.31-1.992.472-.864.212-1.726.435-2.591.646-.138.034-.285.028-.427.04-.826.211-1.653.415-2.477.634-.426.113-.842.262-1.268.374-.368.097-.743.164-1.115.245-.136.082-.264.21-.41.239-1.458.286-2.86.766-4.269,1.22-.135.044-.281.055-.422.081-.38.11-.76.219-1.139.329-.936.334-1.87.67-2.807.999-.351.123-.709.23-1.063.344-.892.34-1.783.682-2.675,1.021-.77.293-1.54.584-2.311.875-1.153.497-2.314.974-3.456,1.495-1.408.644-2.801,1.321-4.197,1.991-.777.372-1.547.758-2.32,1.138l-3.234,1.854c-.585.377-1.171.753-1.756,1.13-1.655,1.103-3.255,2.28-4.828,3.495-.272.238-.545.477-.817.715-1.52,1.302-2.845,2.797-4.215,4.248-.203.258-.407.517-.61.775-.267.385-.526.775-.801,1.154-.786,1.083-1.379,2.278-2.017,3.447-.356.729-.617,1.488-.842,2.269-.334,1.163-.632,2.324-.629,3.543.005,1.001.01,2.002.016,3.004.008.372-.04.755.036,1.113.154.73.333,1.461.579,2.165.334.954.742,1.882,1.118,2.821.827,1.584,1.816,3.064,2.897,4.484.075.092.151.184.226.275.032.039.063.078.094.118,1.141,1.161,2.256,2.35,3.433,3.473.795.758,1.65,1.46,2.527,2.123,1.294.979,2.631,1.902,3.949,2.848.709.448,1.418.896,2.128,1.344.912.513,1.824,1.026,2.736,1.538,1.303.647,2.605,1.295,3.908,1.941.36.179.722.356,1.083.533.707.337,1.414.675,2.12,1.012.02-.003.045-.016.061-.009.938.407,1.876.815,2.813,1.223.305.094.617.171.915.284,1.233.468,2.463.946,3.693,1.424.131.051.252.127.377.192.592.189,1.184.378,1.776.567.957.305,1.916.607,2.872.915.747.241,1.485.508,2.237.732,1.07.319,2.149.608,3.224.911,1.18.322,2.361.642,3.54.967.442.122.88.258,1.321.387.875.191,1.75.381,2.625.573.807.177,1.613.355,2.419.538.072.016.134.076.2.116.315.056.632.104.946.17,1.105.232,2.207.475,3.313.703,1.006.207,2.013.408,3.022.596.813.151,1.63.28,2.445.418.414.077.827.165,1.243.228.901.135,1.806.249,2.706.388.351.055.696.156,1.043.236.457.067.914.136,1.371.2.716.101,1.432.205,2.148.298.447.058.895.1,1.343.148.136.033.271.083.409.097.511.052,1.025.081,1.536.141,1.059.123,2.116.259,3.173.39.927.115,1.852.242,2.781.34.733.078,1.469.119,2.204.177.123.004.247.002.37.013.716.065,1.432.131,2.148.199.825.079,1.65.16,2.474.24.269,0,.54-.013.808.005,1.382.091,2.764.19,4.146.286.02.001.04.012.059.018.289.01.579.016.868.031,1.366.07,2.733.143,4.099.215.513.015,1.027.024,1.54.045,1.191.048,2.382.101,3.573.152,1.54.019,3.08.039,4.619.058,1.786,0,3.571,0,5.357,0,1.582-.02,3.163-.039,4.745-.059,1.7-.066,3.399-.132,5.099-.198.247-.016.494-.041.741-.047.517-.012,1.035.005,1.552-.022.905-.047,1.809-.117,2.714-.178,1.661-.111,3.322-.222,4.982-.333.077-.024.153-.065.231-.069.964-.055,1.928-.104,2.892-.155.143-.008.286-.008.428-.026.483-.06.965-.126,1.447-.19,1.662-.168,3.324-.336,4.985-.505,1.262-.174,2.523-.353,3.786-.519.4-.053.805-.069,1.207-.103.337-.051.674-.103,1.012-.154.478-.072.955-.155,1.435-.214.846-.104,1.693-.193,2.54-.288.427-.082.853-.168,1.281-.246.635-.116,1.271-.229,1.907-.337.559-.095,1.119-.18,1.679-.269.09-.046.175-.117.27-.133,1.045-.172,2.096-.316,3.137-.508,1.209-.223,2.411-.485,3.615-.731,1.027-.21,2.054-.421,3.08-.631.591-.158,1.178-.331,1.773-.471,1.063-.248,2.131-.476,3.197-.713,1.588-.434,3.176-.868,4.764-1.299.078-.021.163-.015.244-.021,1.027-.327,2.047-.677,3.081-.976,2.289-.662,4.564-1.363,6.781-2.24.033-.013.081.009.122.015.726-.268,1.456-.527,2.178-.806.937-.362,1.869-.739,2.803-1.11.914-.373,1.829-.746,2.743-1.119.456-.218.912-.437,1.369-.655.294-.14.588-.278.882-.417,1.559-.795,3.117-1.591,4.677-2.383.052-.027.121-.021.182-.03l2.713-1.497c.763-.478,1.526-.957,2.29-1.435.129-.1.255-.202.387-.298,1.442-1.047,2.912-2.057,4.319-3.149,1.335-1.036,2.582-2.182,3.708-3.446.89-1,1.798-1.994,2.589-3.07.765-1.04,1.39-2.183,2.077-3.28.254-.641.524-1.277.759-1.925.331-.913.681-1.823.774-2.803.111-.743.245-1.483.326-2.229.128-1.175-.097-2.332-.245-3.491Zm-4.496,3.099c-.044.726-.151,1.448-.24,2.171-.009.072-.082.137-.126.205-.033.294-.019.604-.107.881-.428,1.343-.82,2.704-1.576,3.916-.042.068-.099.127-.149.19-.729,1.418-1.663,2.689-2.77,3.836-.4.427-.799.854-1.199,1.28-.721.668-1.429,1.351-2.169,1.998-.554.484-1.149.92-1.726,1.377-.699.493-1.397.986-2.096,1.479-.969.617-1.939,1.234-2.908,1.85-.558.337-1.106.69-1.675,1.008-.928.52-1.867,1.02-2.805,1.522-.161.086-.34.139-.511.208-.622.295-1.244.59-1.866.885-1.037.464-2.075.928-3.112,1.392-1.396.571-2.79,1.145-4.189,1.71-.261.105-.539.172-.809.256-1.103.405-2.198.836-3.311,1.21-1.896.637-3.803,1.242-5.709,1.848-.308.098-.636.136-.955.202-.932.275-1.86.563-2.796.82-.726.199-1.462.36-2.194.538-1.541.407-3.082.817-4.625,1.216-.115.03-.247-.009-.371-.016-.46.133-.912.299-1.38.393-1.946.392-3.896.758-5.844,1.141-.735.145-1.466.315-2.201.461-.18.036-.369.022-.554.031-.305.071-.607.159-.916.209-.9.144-1.803.27-2.704.408-.458.07-.914.151-1.371.227-.419.075-.836.162-1.257.221-.483.068-.972.098-1.455.167-.762.109-1.521.236-2.282.356-.992.131-1.982.276-2.976.387-.667.074-1.339.097-2.009.143-.753.095-1.506.194-2.26.283-.911.107-1.823.206-2.735.308-1.192.092-2.385.184-3.578.274-.469.035-.939.064-1.408.096-1.607.117-3.214.235-4.822.349-.058.004-.118-.027-.178-.041-.938.068-1.876.147-2.814.202-.76.044-1.521.06-2.282.088-.586.015-1.172.031-1.758.046-1.038.035-2.077.069-3.115.104-1.663.014-3.327.029-4.99.043-.182.027-.365.076-.547.077-1.317.006-2.634.005-3.951,0-.162,0-.324-.044-.486-.068-1.401-.001-2.801,0-4.201-.006-.267-.001-.534-.03-.8-.046-1.306-.041-2.613-.083-3.919-.124-.316-.01-.632-.02-.948-.03l-5.105-.25c-.576-.024-1.153-.035-1.728-.076-1.09-.078-2.179-.173-3.269-.26-.696-.051-1.392-.105-2.088-.153-.41-.029-.821-.078-1.23-.066-.577.016-1.128-.104-1.683-.226-1.27-.111-2.54-.223-3.81-.333-.389-.034-.778-.064-1.167-.095-.422-.036-.845-.061-1.265-.111-.609-.071-1.215-.163-1.824-.24-.424-.054-.849-.098-1.274-.147-.085-.032-.169-.065-.254-.097-.123-.013-.246-.025-.369-.038-.696-.082-1.393-.158-2.089-.248-.52-.067-1.039-.139-1.555-.229-.453-.079-.902-.184-1.352-.278-.363-.029-.73-.033-1.087-.093-.896-.151-1.788-.328-2.681-.492-.41-.075-.821-.145-1.232-.217-.988-.08-1.947-.311-2.913-.518-.782-.168-1.58-.267-2.369-.401-.03-.005-.052-.056-.077-.085-.412-.096-.825-.192-1.237-.288-.479.072-.912-.126-1.36-.23-.673-.157-1.345-.316-2.017-.475-.771-.171-1.543-.339-2.313-.515-.766-.175-1.531-.359-2.296-.539-.047-.028-.095-.056-.142-.083-.083-.028-.167-.056-.25-.085-1.688-.348-3.352-.785-4.982-1.347-1.086-.163-2.102-.575-3.145-.888-.945-.284-1.88-.601-2.816-.915-.996-.334-1.986-.684-2.98-1.024-.381-.13-.765-.252-1.148-.377-.819-.32-1.637-.641-2.456-.96-.794-.309-1.59-.613-2.382-.927-.068-.027-.11-.12-.163-.183-.631-.086-1.143-.466-1.718-.693-.555-.219-1.093-.482-1.639-.725-.503-.271-1.006-.542-1.51-.812-.825-.402-1.659-.787-2.472-1.211-.653-.341-1.284-.726-1.92-1.1-.244-.143-.475-.309-.711-.465-.889-.457-1.737-.98-2.518-1.606-.887-.497-1.728-1.059-2.471-1.756-1.36-.945-2.607-2.019-3.722-3.244-.466-.41-.962-.792-1.275-1.347-1.086-1.125-2.038-2.348-2.758-3.742-.98-1.535-1.681-3.181-1.997-4.981-.075-.345-.208-.689-.215-1.036-.024-1.152-.007-2.304.006-3.456.002-.209.059-.417.091-.626.149-1.089.456-2.138.879-3.147.283-.674.654-1.31.986-1.963.491-1.069,1.183-2.01,1.903-2.93.35-.447.742-.86,1.114-1.289.242-.254.483-.508.725-.762.446-.456.874-.932,1.342-1.365.922-.852,1.849-1.7,2.907-2.388.62-.452,1.24-.904,1.861-1.356.984-.761,2.025-1.436,3.126-2.017.559-.351,1.102-.732,1.681-1.047,1.011-.55,2.044-1.061,3.068-1.586.072-.037.154-.055.231-.083.088-.044.176-.088.265-.132.91-.448,1.815-.908,2.732-1.341.628-.297,1.273-.558,1.913-.83.071-.03.154-.032.232-.046.858-.372,1.711-.76,2.577-1.112.755-.307,1.526-.574,2.29-.858.912-.304,1.824-.607,2.736-.911.793-.273,1.586-.546,2.38-.819,1.633-.596,3.295-1.098,4.984-1.51,1.169-.336,2.337-.678,3.509-1.004.49-.137.99-.241,1.485-.36,1.243-.305,2.486-.615,3.731-.912.413-.099.833-.166,1.25-.248l-.007.007c.045-.032.09-.064.135-.096.085-.002.17-.004.255-.005,1.537-.332,3.075-.664,4.612-.996l4.993-.994c.643-.102,1.287-.2,1.928-.308.357-.06.709-.152,1.066-.202.62-.087,1.244-.153,1.866-.227.642-.107,1.284-.218,1.927-.32.462-.073.926-.139,1.39-.2.6-.079,1.202-.15,1.803-.225l4.985-.634c1.125-.09,2.25-.173,3.373-.273.322-.029.64-.113.961-.159.218-.031.44-.041.659-.06,1.17-.092,2.34-.18,3.509-.275,1.207-.099,2.413-.217,3.621-.306.947-.07,1.895-.108,2.843-.16l4.996-.254c1.663-.053,3.325-.106,4.988-.159l4.992-.088c1.662,0,3.323,0,4.985-.001,1.664.031,3.328.061,4.992.092,1.109.018,2.218.027,3.327.056.554.014,1.107.064,1.661.097,1.17.074,2.34.154,3.511.219.494.028.989.026,1.484.037.618.029,1.237.049,1.854.089.885.058,1.768.13,2.653.196.369.058.739.116,1.108.173,1.465.101,2.931.202,4.396.303,1.397.149,2.794.296,4.19.451.258.029.512.096.768.146.685.069,1.371.139,2.056.207.504.05,1.01.092,1.514.145.349.037.696.085,1.044.129.193-.191.305-.098.382.11l-.014.028c.549.039,1.1.06,1.647.121.459.051.912.157,1.371.222.721.103,1.444.192,2.165.291.028.004.049.059.074.091.46.069.92.14,1.381.207.401.058.804.1,1.202.17.716.125,1.43.264,2.145.397.578.079,1.159.141,1.734.24.808.141,1.612.304,2.415.468.368.075.732.175,1.097.264.495.085.992.158,1.484.256.766.153,1.53.32,2.293.487.156.034.306.098.458.148.209.045.418.091.627.136,1.496.363,2.993.726,4.49,1.087.079.019.164.015.246.022.742.201,1.486.399,2.227.602.903.248,1.805.5,2.708.749.059.016.122.017.184.026,1.363.422,2.726.845,4.089,1.267.306.095.613.184.92.276.756.237,1.514.47,2.267.716.083.027.142.126.212.192.854.227,1.71.452,2.495.874.677.244,1.358.477,2.029.736.99.382,1.972.782,2.958,1.175,1.342.604,2.686,1.204,4.026,1.814.164.075.308.194.461.293.167.074.335.149.502.223.408.19.827.362,1.222.575,1.149.619,2.291,1.252,3.432,1.885.16.089.304.209.455.314l3.004,1.937c.62.436,1.24.872,1.86,1.308.969.795,1.956,1.57,2.901,2.393.552.481,1.038,1.037,1.554,1.56.183.2.366.399.548.599,1.25,1.309,2.328,2.741,3.136,4.366.367.828.773,1.641,1.09,2.488.267.714.434,1.465.636,2.202.025.092-.01.2-.017.301.285.851.287,1.731.234,2.608Z" fill="#1d1d1b"/><path d="m190.086,89.148c-.657.009-1.319.07-1.97.013-.745-.065-1.196.253-1.518.874-.098.189-.256.347-.386.52-.109.232-.199.475-.332.692-.199.326-.429.634-.646.949-.759,1.154-1.519,2.309-2.278,3.463-.566.885-1.124,1.776-1.702,2.653-.277.42-.591.816-.888,1.222-.202.331-.404.662-.607.993-.858,1.316-1.714,2.634-2.574,3.949-.363.556-.726,1.112-1.105,1.657-.134.193-.316.354-.568.632-.288-.793-.532-1.464-.776-2.135-.442-.476-.847-.995-1.337-1.414-.396-.339-.871-.614-1.353-.817-.567-.238-1.18-.364-1.771-.545-.054-.017-.096-.076-.143-.115-.408-.032-.815-.082-1.223-.091-1.155-.026-2.286.147-3.401.438-.119.031-.243.041-.365.061-1.175.465-2.313,1.007-3.385,1.68-.436.273-.866.555-1.298.832-.561.406-1.121.813-1.682,1.219-.233.217-.46.441-.7.65-.893.779-1.791,1.552-2.687,2.328-.666.6-1.331,1.201-1.997,1.801-1.031.814-2.062,1.627-3.093,2.441-1.261.955-2.667,1.608-4.2,1.98-.291.071-.611.022-.918.028-1.24.093-2.09-.517-2.755-1.492-.382-.56-.508-1.178-.505-1.835.002-.432.023-.865.035-1.297.198-1.087.697-2.042,1.326-2.933.224-.316.494-.604.766-.881.099-.101.268-.134.504-.244,0,.332.025.555-.004.771-.346,2.59,2.322,4.576,4.905,3.446.15-.066.307-.118.46-.176.168-.105.335-.211.503-.316.328-.338.687-.652.978-1.019.84-1.059,1.19-2.301,1.275-3.631-.151-.545-.267-1.104-.462-1.633-.315-.854-.915-1.489-1.68-1.976-.171-.109-.324-.247-.485-.371-.29-.091-.581-.183-.871-.274-.719-.131-1.425-.323-2.174-.137-.591.147-1.203.211-1.806.311-1.654.682-3.099,1.667-4.321,2.975-.113.12-.23.236-.346.354-.277.386-.539.784-.839,1.151-.129.158-.336.251-.563.414-.057-.752-.079-1.402-.161-2.044-.17-1.329-.594-2.528-1.83-3.27-.084-.05-.141-.146-.21-.22-.171-.046-.343-.091-.514-.137-.409-.109-.817-.219-1.226-.328-.755.068-1.515.105-2.264.216-.411.061-.804.246-1.205.375-.501.245-1.002.49-1.503.735-.375.254-.749.509-1.126.761-.913.61-1.727,1.341-2.487,2.126-1.238,1.278-2.446,2.584-3.673,3.873-.208.219-.443.413-.746.692-.255-.661-.226-1.271-.316-1.856-.089-.578-.163-1.159-.244-1.739-.204-.516-.383-1.043-.618-1.545-.271-.581-.59-1.14-.889-1.709-.646-.483-1.31-.506-2-.089-.546.33-1.108.635-1.647.975-.616.389-.813.945-.608,1.652.067.231.074.479.109.72.091.288.226.57.267.864.182,1.322.309,2.65.224,3.988-.003.041-.02.08-.03.12-.185,1.02-.355,2.044-.564,3.059-.075.362-.245.705-.372,1.056-.122.292-.243.584-.365.875-.045.177-.05.378-.141.528-.547.902-1.037,1.852-1.689,2.673-1.331,1.676-2.971,2.975-5.086,3.545-.976.263-1.973.4-2.959,0-.845-.269-1.484-.807-1.988-1.52-.579-.704-.838-1.52-.878-2.421-.042-.943-.021-1.881.162-2.811.38-1.727,1.271-3.21,2.231-4.66.053-.08.154-.128.233-.191.069-.089.139-.178.208-.267.125-.157.233-.331.377-.468.731-.7,1.43-1.442,2.219-2.07.717-.571,1.534-1.016,2.307-1.517.679-.403,1.339-.846,2.115-1.054.455-.202.914-.397,1.365-.608.442-.207.466-.283.304-.761-.181-.531-.363-1.061-.545-1.591-.159-.464-.531-.676-.974-.766-.597-.121-1.191-.072-1.779.089-.113.031-.238.016-.358.022-1.631.327-3.203.827-4.689,1.585-.088.045-.199.045-.3.067-1.221.746-2.462,1.46-3.565,2.382-.409.375-.818.75-1.227,1.125-.921,1.043-1.834,2.093-2.583,3.272-.122.192-.263.371-.395.555l-1.961,3.622c-.172.412-.344.824-.516,1.236-.635,2.082-1.891,3.732-3.54,5.121-.662.558-1.284,1.164-1.914,1.759-.516.487-.535.669-.157,1.293.398.658.848,1.277,1.455,1.789.265-.086.531-.173.798-.26,1.078-.911,2.156-1.822,3.234-2.734.216-.246.415-.511.652-.734.274-.257.486-.208.593.144.383,1.259,1.008,2.392,1.771,3.455.711.753,1.492,1.425,2.365,1.986.545.228,1.092.453,1.636.685.816.347,1.673.462,2.552.469.267.002.535.021.802.033,1.194.032,2.341-.244,3.472-.575.519-.152,1.007-.408,1.509-.617,1.08-.66,2.16-1.32,3.239-1.98.522-.451,1.044-.903,1.566-1.354,1.088-1.232,2.177-2.464,3.265-3.696.543-.77,1.086-1.54,1.628-2.31.715-.916,1.431-1.832,2.146-2.748.648-.813,1.29-1.632,1.947-2.438.256-.314.549-.597.825-.894.493-.54.987-1.081,1.48-1.621.456-.434.893-.89,1.371-1.298.663-.566,1.357-1.096,2.04-1.639.046-.037.111-.05.167-.074.651-.485,1.359-.843,2.163-1.005.888-.178,1.62.346,1.537,1.509-.079,1.12-.618,1.984-1.162,2.879-.531.919-1.059,1.839-1.594,2.755-.122.209-.266.405-.4.607-.327.552-.653,1.104-.98,1.656-.427.723-.845,1.453-1.285,2.168-.481.783-.98,1.555-1.48,2.326-.085.131-.216.232-.325.347-.263.45-.526.899-.79,1.349-.575.923-1.147,1.848-1.725,2.769-.206.328-.429.646-.645.969-.324.568-.657,1.131-.969,1.704-.265.486-.148.707.42.732.659.029,1.32,0,1.98.002.184,0,.368.019.552.03.967-.01,1.935-.035,2.902-.025.497.005.864-.118,1.107-.598.181-.357.46-.665.695-.995.249-.39.498-.779.746-1.169.465-.751.919-1.507,1.396-2.25.575-.896,1.169-1.78,1.755-2.669.375-.583.751-1.166,1.126-1.749.064-.121.12-.246.192-.361.571-.908,1.145-1.814,1.722-2.718.042-.066.12-.109.182-.163.336-.568.612-1.179,1.194-1.728.117.705.214,1.286.31,1.868.196.974.672,1.809,1.285,2.576.115.144.235.283.353.424.566.366,1.112.767,1.703,1.087.492.266,1.029.424,1.618.377.51-.041,1.025-.009,1.538-.009,1.19-.238,2.314-.674,3.425-1.142.487-.205.946-.475,1.417-.715.351-.267.686-.567,1.186-.601.177.55-.096,1.02-.144,1.511-.048.486-.011.98-.011,1.471.17.771.114,1.565.325,2.343.198.731.504,1.397.819,2.07.043.092.083.185.124.277.574.826,1.188,1.615,2.052,2.167.308.197.621.387.932.581.564.211,1.126.43,1.695.628.131.046.287.032.431.026.951-.039,1.902-.083,2.853-.125.284-.1.566-.207.853-.3,1.335-.435,2.554-1.099,3.714-1.878.05-.034.112-.05.168-.074.375-.287.751-.574,1.126-.86.391-.366.773-.743,1.18-1.091.125-.106.32-.13.498-.197.108.515.202.966.296,1.417.354,1.15.971,2.114,1.983,2.8.065.044.111.116.166.175.136.045.271.092.408.135.381.117.718.326,1.142.364,1.163.105,2.305.039,3.437-.236,1.706-.578,3.315-1.356,4.825-2.338.472-.34.943-.681,1.415-1.021.24-.215.481-.431.721-.646.747-.668,1.493-1.338,2.243-2.003.106-.094.234-.162.351-.243.37-.379.742-.758,1.111-1.139.353-.364.703-.731,1.054-1.096.921-1.05,1.84-2.1,2.764-3.147.066-.074.16-.124.241-.184.148-.191.292-.385.445-.572.167-.203.253-.416.139-.674-.162-.156-.323-.312-.485-.468-.329-.278-.652-.563-.989-.831-.384-.306-.538-.307-.916.024-.571.499-1.126,1.016-1.687,1.525-.377.407-.754.814-1.132,1.222-.595.6-1.19,1.201-1.786,1.799-.187.188-.376.374-.571.553-1.441,1.324-2.921,2.6-4.575,3.658-.609.39-1.265.674-1.981.793-.45.075-.906.09-1.338-.114-.523-.146-.763-.555-.832-1.032-.076-.521-.057-1.043.233-1.537,1.061-1.803,2.096-3.62,3.147-5.429.091-.157.229-.286.345-.428.2-.35.387-.71.604-1.049.45-.704.917-1.398,1.377-2.095.346-.569.692-1.138,1.038-1.707,1.699-2.669,3.392-5.341,5.099-8.005.465-.725.97-1.423,1.456-2.134.555-.88,1.105-1.762,1.667-2.638.229-.358.482-.701.724-1.051.281-.436.563-.871.844-1.307.84-1.32,1.678-2.641,2.521-3.959.185-.29.388-.568.583-.852.204-.375.408-.751.671-1.236-.368-.049-.62-.108-.874-.112-1.162-.021-2.325-.027-3.488-.038Zm-18.478,19.916c-.048.519-.236,1.025-.361,1.537-.162.418-.311.841-.49,1.251-.222.511-.196.7.283.997.258.16.277.338.154.565-.259.48-.528.953-.793,1.429-.169.248-.339.495-.508.743-.22.365-.426.739-.662,1.094-.767,1.152-1.621,2.236-2.651,3.168-1.291,1.169-2.683,2.185-4.342,2.79-.725.264-1.463.256-2.21.146-.759-.267-1.333-.741-1.614-1.507-.095-.26-.114-.548-.168-.823-.17-.649-.111-1.303,0-1.948.11-.641.256-1.278.417-1.908.099-.387.255-.758.386-1.137.243-.457.486-.915.729-1.372.439-1.048,1.13-1.935,1.81-2.828.209-.275.455-.523.684-.783.737-.976,1.598-1.825,2.601-2.529,1.032-.935,2.224-1.539,3.61-1.751.586-.09,1.125.051,1.652.284,1.071.501,1.587,1.353,1.473,2.582Z" fill="#1d1d1b"/><path d="m92.119,105.295c.683-1.119,1.364-2.241,2.052-3.357.321-.52.658-1.03.988-1.545.433-.742.871-1.481,1.299-2.227.214-.373.61-.454.95-.472.961-.052,1.89-.383,2.862-.303.158-.035.317-.105.474-.1,1.153.04,2.275-.22,3.413-.327.367-.034.738-.031,1.108-.044.88-.075,1.761-.143,2.64-.23.409-.04.677.11.957.42.462.511,1.006.948,1.515,1.417.521.296,1.041.596,1.565.887.537.297,1.218.076,1.525-.42.159-.256.148-.617.207-.903-.762-.735-1.711-1.13-2.38-2,.642-.292,1.229-.559,1.817-.826.548-.449,1.097-.898,1.645-1.346.671-.763,1.115-1.644,1.342-2.631.04-.175.005-.366.026-.547.018-.148.069-.292.105-.437,0-.122,0-.244,0-.366-.031-.085-.063-.17-.094-.254.062-.927-.513-1.561-1.025-2.225-.661-.523-1.458-.721-2.257-.741-.63-.016-1.295.063-1.884.381-.234.126-.472.245-.708.367-1.063.748-1.763,1.789-2.363,2.911-.053.098-.089.206-.133.309-.273.987-.302,1.995-.229,3.007.024.327-.147.447-.432.465-.615.038-1.23.068-1.845.102-1.661.083-3.322.165-4.983.248-.405.023-.81.045-1.291.073.242-.686.632-1.193,1.015-1.704.479-.831,1.024-1.613,1.682-2.314.988-1.317,2.093-2.525,3.332-3.61.5-.458.999-.915,1.499-1.373.344-.314.672-.648,1.034-.94.809-.653,1.635-1.285,2.455-1.925.58-.454,1.167-.899,1.736-1.367.347-.285.664-.605.995-.91-.019-.223-.037-.446-.06-.721.861.192,1.705.359,2.538.571,1.116.284,2.222.608,3.336.903.499.132,1.007.23,1.508.356.11.028.207.109.309.165.741.173,1.487.329,2.222.523.882.234,1.755.501,2.632.754,1.665.414,3.33.828,4.995,1.241.864.196,1.724.414,2.594.581.616.118,1.247.162,1.87.25.885.124,1.765.292,2.653.378.805.078,1.618.07,2.428.102.144.006.289.021.433.031,1.661-.045,3.322-.09,4.983-.135.501-.074,1.001-.149,1.502-.223.254-.062.51-.121.763-.187.908-.238,1.814-.478,2.721-.717,1.622-.631,3.199-1.353,4.693-2.25.722-.58,1.444-1.161,2.166-1.741.285-.422.614-.821.844-1.271.228-.447.432-.913.435-1.45.003-.634-.155-1.173-.65-1.59-.659-.231-1.316-.208-1.981-.01-.348.103-.706.173-1.063.244-.993.199-1.984.407-2.982.58-.478.083-.969.095-1.454.139-1.648.316-3.313.472-4.988.526-.038.015-.076.041-.115.043-1.626.058-3.251.113-4.877.169-1.663-.028-3.325-.057-4.988-.085-1.233-.059-2.466-.115-3.699-.179-.431-.022-.861-.065-1.292-.099-.326-.032-.652-.061-.977-.098-.686-.078-1.37-.166-2.056-.237-.608-.063-1.219-.109-1.828-.162-.301-.037-.602-.073-.902-.11-.322-.04-.645-.082-.967-.123-.084-.042-.169-.084-.253-.126-.208-.03-.415-.06-.623-.09-.084-.009-.167-.018-.251-.028-.461-.06-.923-.114-1.383-.182-.364-.054-.725-.128-1.087-.188-.955-.159-1.909-.317-2.865-.47-.378-.061-.759-.099-1.136-.163-.258-.043-.511-.112-.767-.17-.083.005-.166.009-.248.014-.046-.027-.093-.054-.139-.08-.942-.139-1.884-.275-2.826-.417-.44-.066-.879-.135-1.316-.216-.115-.021-.221-.09-.331-.136-.484-.046-.971-.078-1.453-.141-.8-.104-1.599-.222-2.397-.346-.425-.066-.846-.157-1.269-.237-1.62-.191-3.241-.382-4.861-.573-1.191-.084-2.382-.171-3.573-.25-.473-.032-.946-.047-1.419-.07-1.662-.002-3.325-.003-4.987-.005-1.529.131-3.058.26-4.587.396-.137.012-.271.064-.407.097-.518-.023-1,.136-1.493.266-.568.15-1.153.23-1.728.357-.55.121-1.095.263-1.642.396-.661.248-1.34.459-1.981.753-1.422.653-2.867,1.274-4.223,2.047-1.418.808-2.677,1.864-3.88,2.975-.227.232-.453.465-.68.697-.481.656-.986,1.297-1.437,1.973-.585.875-1.038,1.823-1.41,2.808-.028.074-.086.136-.13.204-.076.349-.14.702-.23,1.047-.272,1.052-.273,2.123-.25,3.197.004.203-.01.406-.016.609.307,1.828,1.05,3.452,2.276,4.85.626.482,1.252.963,1.878,1.445.404.184.794.412,1.215.543.998.309,2.022.48,3.075.423.226-.012.453.001.68.003,1.732-.088,3.301-.734,4.862-1.409.506-.303,1.011-.605,1.517-.908.544-.441,1.106-.86,1.625-1.327.538-.483,1.034-1.013,1.548-1.522.585-.762,1.171-1.524,1.756-2.286.551-.999,1.128-1.984,1.642-3.001.287-.568.471-1.189.701-1.786-.013-.247,0-.499-.043-.741-.073-.402-.261-.782-.681-.873-.423-.091-.871-.058-1.175.355-.196.265-.43.505-.601.785-.655,1.068-1.55,1.919-2.487,2.721-1.11.951-2.302,1.791-3.681,2.325-1.393.679-2.855.811-4.355.501-.275-.057-.515-.285-.771-.434-.976-.492-1.446-1.332-1.596-2.369-.076-.527-.114-1.064-.112-1.597,0-.226.147-.451.226-.676.043-.257.029-.544.142-.766.324-.638.7-1.25,1.055-1.873.649-.972,1.444-1.803,2.405-2.473.85-.765,1.806-1.357,2.877-1.762.914-.363,1.815-.767,2.747-1.077.774-.258,1.585-.405,2.379-.601,1.642-.328,3.298-.534,4.971-.594,1.176-.006,2.351-.025,3.527-.013.494.005.987.075,1.481.115.791.107,1.583.217,2.375.32.384.05.769.088,1.153.128.485.051.971.099,1.457.148.414.074.828.149,1.242.221.874.152,1.749.304,2.623.455.376.065.752.128,1.128.192.909.164,1.82.318,2.727.495.469.092.931.223,1.478.357-.47.633-1.16.723-1.675,1.082-.512.358-1.093.618-1.643.922-.29.219-.58.437-.87.656-.733.605-1.476,1.198-2.196,1.818-.78.672-1.538,1.37-2.308,2.054-.122.109-.256.205-.384.308-.089.085-.177.171-.266.256-.669.719-1.365,1.416-2.001,2.163-.813.954-1.598,1.935-2.36,2.93-.733.957-1.42,1.949-2.133,2.921-.218.297-.443.589-.683.868-.228.264-.479.482-.865.526-.599.068-1.192.187-1.788.284-.625.127-1.25.253-1.875.38-.917.199-1.834.399-2.752.598-.119.026-.239.045-.359.068-1.03.428-2.069.835-3.084,1.294-.495.224-.946.546-1.42.818-.157.09-.324.163-.487.244-.364.437-.721.877-.752,1.482.047.586.36.986.876,1.243.714.084,1.281-.217,1.842-.624.471-.34,1.012-.583,1.522-.869.496-.215.991-.429,1.487-.644,1.303-.585,2.684-.69,4.225-.728-.462.723-.863,1.325-1.348,1.87-.339.483-.668.975-1.02,1.448-.488.656-.994,1.299-1.492,1.947-.412.527-.824,1.055-1.236,1.582-.79.952-1.576,1.908-2.373,2.854-.381.453-.781.891-1.177,1.332-.136.152-.285.292-.428.438-.076.083-.152.166-.229.249-.661.7-1.297,1.426-1.988,2.095-.845.818-1.735,1.589-2.609,2.377-.089.081-.199.139-.3.207-.12.098-.24.196-.361.294-.905.619-1.788,1.275-2.723,1.845-.639.39-1.35.661-2.029.986-1.555.649-3.153,1.097-4.861,1.017-1.677.129-3.17-.412-4.567-1.273-.237-.147-.41-.398-.612-.601-.636-.478-.957-1.177-1.314-1.852-.452-.873-.629-1.798-.622-2.783.006-.826.223-1.606.388-2.399.027-.128.136-.24.207-.359.242-.724.623-1.369,1.121-1.946.587-.911,1.395-1.611,2.219-2.293.252-.209.534-.381.802-.57.333-.224.657-.462,1-.669.408-.246.832-.466,1.248-.698.935-.582.722-1.648.14-2.277-.137-.148-.279-.291-.419-.437-.586-.082-1.175-.247-1.757-.227-.874.03-1.727.25-2.525.639-.091.044-.199.053-.299.078-1.73.892-3.379,1.898-4.747,3.308-.07.072-.158.125-.238.188l-.345.377c-1.104,1.246-1.863,2.71-2.629,4.167-.129.245-.182.529-.271.795-.208.794-.482,1.578-.606,2.385-.125.811-.1,1.645-.141,2.47.044.471.084.942.132,1.413.039.382.044.776.143,1.142.21.776.473,1.537.712,2.305.011.036-.008.08-.012.121.127.21.269.412.379.63.844,1.678,1.974,3.117,3.524,4.204.382.268.77.53,1.172.765.924.54,1.867,1.044,2.924,1.286.296.073.595.139.889.221.697.193,1.403.312,2.128.319.659.006,1.317.03,1.976.046.122-.014.244-.027.366-.041.949-.111,1.901-.202,2.846-.34.597-.087,1.185-.245,1.776-.371,1.111-.464,2.254-.865,3.327-1.405,1.774-.894,3.415-2.001,4.89-3.343.482-.439.993-.846,1.491-1.268.291-.28.581-.56.872-.839.758-.842,1.53-1.671,2.27-2.528,1.8-2.084,3.464-4.272,4.99-6.564.216-.324.468-.624.703-.935.377-.561.754-1.122,1.132-1.684.704-1.1,1.407-2.2,2.111-3.299Zm18.7-14.887c.324-.367.629-.756.979-1.096.32-.311.759-.289,1.165-.245.401.044.644.328.684.752.028.297.104.614-.147.87,0,.545-.37.907-.679,1.28-.501.605-1.125,1.061-1.888,1.295-.473.145-.65.02-.686-.475-.06-.852.002-1.678.571-2.381Z" fill="#1d1d1b"/></svg>