<?xml version="1.0" encoding="UTF-8"?><svg id="Layer_1" xmlns="http://www.w3.org/2000/svg" viewBox="0 0 245.558 196.1"><g id="TRyxHX"><path d="m227.793,77.674c-6.579,13.135-13.172,26.264-19.714,39.418-.557,1.12-1.216,1.463-2.453,1.459-14.235-.048-28.471-.028-42.706-.027-.676,0-1.352,0-2.176,0v13.307h-75.407v-13.235H17.765c1.172-2.451,2.205-4.633,3.257-6.806,4.98-10.287,9.967-20.571,14.947-30.858.59-1.22,1.155-2.452,1.731-3.678.099-.1.198-.2.297-.301,14.308-.022,28.616-.043,42.923-.069,1.316-.002,2.632-.041,3.949-.063.117-.109.235-.218.352-.328v-12.223h75.612v12.224c.134.109.268.218.401.328,4.976.021,9.951.059,14.927.061,16.507.008,33.015.002,49.522.006.691,0,1.383.043,2.074.066.012.24.024.48.037.72Zm-78.273-.426c-.129-.102-.257-.205-.386-.307-17.135-.015-34.27-.031-51.406-.037-.163,0-.326.126-.658.263v11.865h-51.266c-2.643,5.515-5.239,10.93-7.963,16.615h59.319v12.786h52.497v-12.774c.883,0,1.566,0,2.249,0,14.994,0,29.989-.015,44.983.027,1.296.004,1.945-.359,2.543-1.581,2.187-4.465,4.557-8.84,6.856-13.251.266-.51.516-1.027.903-1.802h-57.673v-11.804Z" fill="#1d1d1b"/><path d="m227.793,77.674c-.012-.24-.024-.48-.037-.72.012.24.024.48.037.72Z" fill="#1d1d1b"/><path d="m85.221,76.492c-.117.109-.235.218-.352.328.117-.109.235-.218.352-.328Z" fill="#1d1d1b"/><path d="m161.235,76.821c-.134-.109-.268-.218-.401-.328.134.109.268.218.401.328Z" fill="#1d1d1b"/><path d="m37.998,76.952c-.099.1-.198.2-.297.301.099-.1.198-.2.297-.301Z" fill="#1d1d1b"/><path d="m149.521,77.248l-.386-.307.386.307Z" fill="#1d1d1b"/></g></svg>