<?xml version="1.0" encoding="UTF-8"?><svg id="OBJECTS" xmlns="http://www.w3.org/2000/svg" xmlns:xlink="http://www.w3.org/1999/xlink" viewBox="0 0 74.712 74.712"><defs><clipPath id="clippath"><rect x="-919.471" y="-198.868" width="800" height="800" fill="none"/></clipPath></defs><polygon points="58.572 34.508 54.513 37.418 56.574 41.968 51.602 42.455 51.115 47.426 46.567 45.365 43.654 49.424 40.743 45.365 36.194 47.426 35.708 42.454 30.736 41.968 32.797 37.418 28.739 34.508 32.797 31.597 30.736 27.047 35.708 26.561 36.194 21.589 40.743 23.649 43.654 19.592 46.564 23.649 51.117 21.589 51.603 26.562 56.574 27.047 54.513 31.597 58.572 34.508" fill="#f4e192"/><path d="m51.823,34.508c0,4.511-3.656,8.169-8.169,8.169s-8.167-3.658-8.167-8.169,3.657-8.169,8.167-8.169,8.169,3.658,8.169,8.169Z" fill="#fadd29"/><path d="m50.212,46.412c.385-1.052.604-2.184.604-3.368,0-5.423-4.394-9.821-9.819-9.821-4.046,0-7.515,2.445-9.019,5.935-.792-.28-1.639-.44-2.527-.44-3.939,0-7.176,3.011-7.535,6.858-3.322.858-5.775,3.621-5.775,6.879,0,3.938,3.579,7.161,7.955,7.161h21.876c4.376,0,7.955-3.223,7.955-7.161,0-2.537-1.487-4.77-3.714-6.043Z" fill="#59ebef"/></svg>