<?xml version="1.0" encoding="UTF-8"?><svg id="OBJECTS" xmlns="http://www.w3.org/2000/svg" xmlns:xlink="http://www.w3.org/1999/xlink" viewBox="0 0 74.712 74.712"><defs><clipPath id="clippath"><rect x="-919.471" y="-378.015" width="800" height="800" fill="none"/></clipPath></defs><path d="m52.536,28.754c.385-1.053.604-2.184.604-3.367,0-5.426-4.395-9.822-9.82-9.822-4.045,0-7.514,2.445-9.02,5.936-.792-.28-1.639-.44-2.526-.44-3.94,0-7.177,3.01-7.535,6.856-3.323.859-5.776,3.623-5.776,6.879,0,3.939,3.579,7.161,7.955,7.161h21.877c4.375,0,7.954-3.222,7.954-7.161,0-2.536-1.487-4.77-3.713-6.041Z" fill="#59ebef"/><polygon points="41.424 32.803 27.107 48.622 36.968 48.622 32.483 62.883 47.604 44.734 37.795 44.734 41.424 32.803" fill="#fadd29"/></svg>