<?xml version="1.0" encoding="UTF-8"?><svg id="OBJECTS" xmlns="http://www.w3.org/2000/svg" xmlns:xlink="http://www.w3.org/1999/xlink" viewBox="0 0 74.712 74.712"><defs><clipPath id="clippath"><rect x="-919.471" y="-288.441" width="800" height="800" fill="none"/></clipPath></defs><path d="m50.213,33.559c.385-1.052.604-2.183.604-3.368,0-5.424-4.395-9.821-9.82-9.821-4.045,0-7.514,2.445-9.02,5.935-.792-.279-1.639-.44-2.526-.44-3.94,0-7.177,3.011-7.535,6.859-3.323.858-5.776,3.621-5.776,6.879,0,3.939,3.579,7.16,7.955,7.16h21.877c4.375,0,7.954-3.221,7.954-7.16,0-2.537-1.487-4.77-3.713-6.043Z" fill="#59ebef"/><path d="m32.525,50.937c-.929-1.217-1.654-2.491-1.915-2.967,0,0-.009-.015-.019-.033-.008.016-.019.033-.019.033-.26.476-.984,1.749-1.915,2.967-1.17,1.535-2.715,3.203-2.484,5.618.231,2.405,1.976,3.995,4.399,4.012h.037c2.425-.017,4.17-1.607,4.4-4.012.23-2.415-1.314-4.082-2.485-5.618Z" fill="#59ebef"/><path d="m42.533,55.102c-.93-1.216-1.655-2.491-1.916-2.966,0,0-.01-.016-.018-.033-.01.016-.018.033-.018.033-.261.476-.986,1.75-1.915,2.966-1.171,1.536-2.715,3.205-2.485,5.618.231,2.405,1.976,3.995,4.4,4.011h.036c2.426-.016,4.171-1.605,4.4-4.011.231-2.414-1.313-4.083-2.484-5.618Z" fill="#59ebef"/></svg>