<?xml version="1.0" encoding="UTF-8"?><svg id="Layer_1" xmlns="http://www.w3.org/2000/svg" viewBox="0 0 73.348 73.348"><circle cx="36.674" cy="36.674" r="36.674"/><path d="m33.007,43.79c2.848-2.524,5.537-4.976,8.303-7.34,2.378-2.033,4.847-3.959,7.268-5.943,1.274-1.044,2.498-2.152,3.805-3.152,1.172-.897,2.328-.794,3.071.136.942,1.179,1.009,2.623.022,3.507-2.49,2.23-5.031,4.402-7.554,6.595-1.962,1.706-3.922,3.414-5.892,5.11-2.938,2.528-5.878,5.056-8.836,7.56-.492.417-1.011.55-1.552-.1-2.4-2.886-4.851-5.73-7.259-8.609-.737-.882-1.431-1.805-2.081-2.753-.795-1.159-.574-2.466.483-3.281,1.374-1.06,2.232-1.094,3.323.137,2.133,2.408,4.178,4.894,6.258,7.349.21.248.412.503.641.783Z" fill="#fefefe"/></svg>